<mxfile host="app.diagrams.net" agent="Mozilla/5.0 (Windows NT 10.0; Win64; x64) AppleWebKit/537.36 (KHTML, like Gecko) Chrome/130.0.0.0 Safari/537.36" version="24.8.3">
  <diagram id="WI9T0HZ2pTsCkuznbFz-" name="Page-1">
    <mxGraphModel dx="4252" dy="966" grid="1" gridSize="10" guides="1" tooltips="1" connect="1" arrows="1" fold="1" page="1" pageScale="1" pageWidth="1169" pageHeight="827" math="0" shadow="0">
      <root>
        <mxCell id="0" />
        <mxCell id="1" parent="0" />
        <mxCell id="JlcOlSUOv72aKDt4cfFE-20" value="" style="rounded=0;whiteSpace=wrap;html=1;fillColor=#fff2cc;strokeColor=#d6b656;labelBackgroundColor=none;" parent="1" vertex="1">
          <mxGeometry x="-1890" y="400" width="1330" height="380" as="geometry" />
        </mxCell>
        <mxCell id="yIlqXNv4PA9Dnh1hxRCn-52" value="" style="rounded=0;whiteSpace=wrap;html=1;fillColor=#fff2cc;strokeColor=#d6b656;labelBackgroundColor=none;" parent="1" vertex="1">
          <mxGeometry x="-60" y="474.5" width="900" height="495.5" as="geometry" />
        </mxCell>
        <mxCell id="yIlqXNv4PA9Dnh1hxRCn-50" style="edgeStyle=elbowEdgeStyle;rounded=0;orthogonalLoop=1;jettySize=auto;html=1;exitX=1.022;exitY=0.393;exitDx=0;exitDy=0;exitPerimeter=0;elbow=vertical;startArrow=classic;startFill=1;strokeColor=#788AA3;labelBackgroundColor=none;fontColor=default;" parent="1" source="yIlqXNv4PA9Dnh1hxRCn-39" target="yIlqXNv4PA9Dnh1hxRCn-43" edge="1">
          <mxGeometry relative="1" as="geometry">
            <mxPoint x="1201" y="730.25" as="sourcePoint" />
          </mxGeometry>
        </mxCell>
        <mxCell id="JlcOlSUOv72aKDt4cfFE-31" style="edgeStyle=orthogonalEdgeStyle;rounded=0;orthogonalLoop=1;jettySize=auto;html=1;strokeColor=#788AA3;fontColor=#46495D;fillColor=#B2C9AB;" parent="1" source="yIlqXNv4PA9Dnh1hxRCn-24" target="JlcOlSUOv72aKDt4cfFE-20" edge="1">
          <mxGeometry relative="1" as="geometry" />
        </mxCell>
        <mxCell id="JlcOlSUOv72aKDt4cfFE-32" style="edgeStyle=orthogonalEdgeStyle;rounded=0;orthogonalLoop=1;jettySize=auto;html=1;strokeColor=#788AA3;fontColor=#46495D;fillColor=#B2C9AB;entryX=0;entryY=0.5;entryDx=0;entryDy=0;" parent="1" source="yIlqXNv4PA9Dnh1hxRCn-24" target="JlcOlSUOv72aKDt4cfFE-13" edge="1">
          <mxGeometry relative="1" as="geometry" />
        </mxCell>
        <mxCell id="yIlqXNv4PA9Dnh1hxRCn-24" value="Virtual Private Network" style="aspect=fixed;html=1;perimeter=none;align=center;shadow=0;dashed=0;image;fontSize=12;image=img/lib/mscae/Virtual_Network.svg;labelBackgroundColor=none;fillColor=#B2C9AB;strokeColor=#788AA3;fontColor=#46495D;" parent="1" vertex="1">
          <mxGeometry x="-340" y="556" width="50" height="28.499999999999996" as="geometry" />
        </mxCell>
        <mxCell id="yIlqXNv4PA9Dnh1hxRCn-33" value="Storage" style="shape=image;verticalLabelPosition=bottom;labelBackgroundColor=none;verticalAlign=top;aspect=fixed;imageAspect=0;image=data:image/svg+xml,PHN2ZyB4bWxuczpkYz0iaHR0cDovL3B1cmwub3JnL2RjL2VsZW1lbnRzLzEuMS8iIHhtbG5zOmNjPSJodHRwOi8vY3JlYXRpdmVjb21tb25zLm9yZy9ucyMiIHhtbG5zOnJkZj0iaHR0cDovL3d3dy53My5vcmcvMTk5OS8wMi8yMi1yZGYtc3ludGF4LW5zIyIgeG1sbnM6c3ZnPSJodHRwOi8vd3d3LnczLm9yZy8yMDAwL3N2ZyIgeG1sbnM9Imh0dHA6Ly93d3cudzMub3JnLzIwMDAvc3ZnIiB4bWxuczpzb2RpcG9kaT0iaHR0cDovL3NvZGlwb2RpLnNvdXJjZWZvcmdlLm5ldC9EVEQvc29kaXBvZGktMC5kdGQiIHhtbG5zOmlua3NjYXBlPSJodHRwOi8vd3d3Lmlua3NjYXBlLm9yZy9uYW1lc3BhY2VzL2lua3NjYXBlIiB2ZXJzaW9uPSIxLjEiIGlkPSJzdmc2NDIwMiIgaW5rc2NhcGU6dmVyc2lvbj0iMC45Mi4zICgyNDA1NTQ2LCAyMDE4LTAzLTExKSIgc29kaXBvZGk6ZG9jbmFtZT0iYXp1cmVfc3RvcmFnZV9henVyZV9maWxlcy5zdmciIHg9IjBweCIgeT0iMHB4IiB2aWV3Qm94PSIwIDAgNzUuNTIgNjQuMzQiIHhtbDpzcGFjZT0icHJlc2VydmUiIHdpZHRoPSI3NS41MTk5OTciIGhlaWdodD0iNjQuMzM5OTk2Ij48bWV0YWRhdGEgaWQ9Im1ldGFkYXRhMTg3OTUiPjxyZGY6UkRGPjxjYzpXb3JrIHJkZjphYm91dD0iIj48ZGM6Zm9ybWF0PmltYWdlL3N2Zyt4bWw8L2RjOmZvcm1hdD48ZGM6dHlwZSByZGY6cmVzb3VyY2U9Imh0dHA6Ly9wdXJsLm9yZy9kYy9kY21pdHlwZS9TdGlsbEltYWdlIi8+PGRjOnRpdGxlLz48L2NjOldvcms+PC9yZGY6UkRGPjwvbWV0YWRhdGE+PGRlZnMgaWQ9ImRlZnMxODc5MyIvPiYjeGE7PGZpbHRlciBpZD0iZmlsdGVyXzIiPiYjeGE7CTxmZUdhdXNzaWFuQmx1ciBpZD0iZmVHYXVzc2lhbkJsdXI2NDA5NSIgc3RkRGV2aWF0aW9uPSIyIi8+JiN4YTs8L2ZpbHRlcj4mI3hhOzxzb2RpcG9kaTpuYW1lZHZpZXcgYm9yZGVyY29sb3I9IiM2NjY2NjYiIGJvcmRlcm9wYWNpdHk9IjEiIGZpdC1tYXJnaW4tYm90dG9tPSIwIiBmaXQtbWFyZ2luLWxlZnQ9IjAiIGZpdC1tYXJnaW4tcmlnaHQ9IjAiIGZpdC1tYXJnaW4tdG9wPSIwIiBncmlkdG9sZXJhbmNlPSIxMCIgZ3VpZGV0b2xlcmFuY2U9IjEwIiBpZD0ibmFtZWR2aWV3NjQyMDQiIGlua3NjYXBlOmN1cnJlbnQtbGF5ZXI9InN2ZzY0MjAyIiBpbmtzY2FwZTpjeD0iLTQwLjc1NzY0MiIgaW5rc2NhcGU6Y3k9IjE0LjI0NTcwNSIgaW5rc2NhcGU6cGFnZW9wYWNpdHk9IjAiIGlua3NjYXBlOnBhZ2VzaGFkb3c9IjIiIGlua3NjYXBlOndpbmRvdy1oZWlnaHQ9IjEwMTciIGlua3NjYXBlOndpbmRvdy1tYXhpbWl6ZWQ9IjEiIGlua3NjYXBlOndpbmRvdy13aWR0aD0iMTkyMCIgaW5rc2NhcGU6d2luZG93LXg9Ii04IiBpbmtzY2FwZTp3aW5kb3cteT0iLTgiIGlua3NjYXBlOnpvb209IjMuNjYwMjg4NyIgb2JqZWN0dG9sZXJhbmNlPSIxMCIgcGFnZWNvbG9yPSIjZmZmZmZmIiBzaG93Z3JpZD0iZmFsc2UiPiYjeGE7CTwvc29kaXBvZGk6bmFtZWR2aWV3PiYjeGE7JiN4YTs8cGF0aCBpZD0icGF0aDY0MTA4IiBpbmtzY2FwZTpjb25uZWN0b3ItY3VydmF0dXJlPSIwIiBzdHlsZT0iZmlsbDojYTBhMWEyIiBkPSJtIDAsNjEuNDggYyAwLDEuNTEgMS4wNiwyLjg2IDIuODcsMi44NiBoIDY5Ljc4IGMgMS41MSwwIDIuODcsLTEuMDUgMi44NywtMi44NiB2IC01MCBIIDAgWiIvPiYjeGE7JiN4YTs8cGF0aCBpZD0icGF0aDY0MTE2IiBpbmtzY2FwZTpjb25uZWN0b3ItY3VydmF0dXJlPSIwIiBzdHlsZT0iZmlsbDojN2E3YTdhIiBkPSJNIDcyLjY1LDAgSCAyLjg3IEMgMS4wNiwwIDAsMS4zNSAwLDIuODcgdiA4LjYgSCA3NS41MiBWIDIuODcgQyA3NS41MiwxLjM1IDc0LjQ2LDAgNzIuNjUsMCBaIi8+JiN4YTsmI3hhOzxyZWN0IGlkPSJyZWN0NjQxMjQiIHg9IjI4LjM5OTk5NCIgeT0iMTYuNDU5OTk5IiBzdHlsZT0iZmlsbDojZmZmZmZmIiB3aWR0aD0iMTkuMDMwMDAxIiBoZWlnaHQ9IjExLjQ4Ii8+JiN4YTsmI3hhOzxyZWN0IGlkPSJyZWN0NjQxMzIiIHg9IjI4LjM5OTk5NCIgeT0iMzIuMDIiIHN0eWxlPSJmaWxsOiNmY2QxMTYiIHdpZHRoPSIxOS4wMzAwMDEiIGhlaWdodD0iMTEuNDgiLz4mI3hhOyYjeGE7PHJlY3QgaWQ9InJlY3Q2NDE0MCIgeD0iNTEuMDUwMDAzIiB5PSIzMi4wMiIgc3R5bGU9ImZpbGw6I2ZjZDExNiIgd2lkdGg9IjE5LjAzMDAwMSIgaGVpZ2h0PSIxMS40OCIvPiYjeGE7JiN4YTs8cmVjdCBpZD0icmVjdDY0MTQ4IiB4PSI1MS4wNTAwMDMiIHk9IjE2LjQ1OTk5OSIgc3R5bGU9ImZpbGw6I2ZmZmZmZiIgd2lkdGg9IjE5LjAzMDAwMSIgaGVpZ2h0PSIxMS40OCIvPiYjeGE7JiN4YTs8cmVjdCBpZD0icmVjdDY0MTU2IiB4PSI1LjczOTk5NzkiIHk9IjE2LjQ1OTk5OSIgc3R5bGU9ImZpbGw6I2ZmZmZmZiIgd2lkdGg9IjE5LjAzMDAwMSIgaGVpZ2h0PSIxMS40OCIvPiYjeGE7JiN4YTs8cmVjdCBpZD0icmVjdDY0MTY0IiB4PSI1LjczOTk5NzkiIHk9IjMyLjAyIiBzdHlsZT0iZmlsbDojZmZmZmZmIiB3aWR0aD0iMTkuMDMwMDAxIiBoZWlnaHQ9IjExLjQ4Ii8+JiN4YTsmI3hhOzxyZWN0IGlkPSJyZWN0NjQxNzIiIHg9IjUuNzM5OTk3OSIgeT0iNDcuNDMiIHN0eWxlPSJmaWxsOiNmY2QxMTYiIHdpZHRoPSIxOS4wMzAwMDEiIGhlaWdodD0iMTEuNDgiLz4mI3hhOyYjeGE7PHJlY3QgaWQ9InJlY3Q2NDE4MCIgeD0iMjguMzk5OTk0IiB5PSI0Ny40MyIgc3R5bGU9ImZpbGw6I2ZjZDExNiIgd2lkdGg9IjE5LjAzMDAwMSIgaGVpZ2h0PSIxMS40OCIvPiYjeGE7JiN4YTs8cmVjdCBpZD0icmVjdDY0MTg4IiB4PSI1MS4wNTAwMDMiIHk9IjQ3LjQzIiBzdHlsZT0iZmlsbDojZmNkMTE2IiB3aWR0aD0iMTkuMDMwMDAxIiBoZWlnaHQ9IjExLjQ4Ii8+JiN4YTsmI3hhOzxwYXRoIGlkPSJwYXRoNjQxOTYiIGlua3NjYXBlOmNvbm5lY3Rvci1jdXJ2YXR1cmU9IjAiIHN0eWxlPSJmaWxsOiNmZmZmZmY7ZmlsbC1vcGFjaXR5OjAuMiIgZD0iTSAyLjg3LDAgQyAxLjUxLDAgMCwxLjM2IDAsMi44NyB2IDExLjE4IDQuOTggNDIuNDUgYyAwLDEuNTEgMS41MSwyLjg2IDIuODcsMi44NiBIIDYuMDQgTCA2NS44NiwwIFoiLz4mI3hhOzwvc3ZnPg==;fillColor=#B2C9AB;strokeColor=#788AA3;fontColor=#46495D;" parent="1" vertex="1">
          <mxGeometry x="733.5" y="633.75" width="58" height="49" as="geometry" />
        </mxCell>
        <mxCell id="yIlqXNv4PA9Dnh1hxRCn-41" value="SQL Server" style="group;labelPosition=center;verticalLabelPosition=bottom;align=center;verticalAlign=top;labelBackgroundColor=none;fontColor=#46495D;" parent="1" vertex="1" connectable="0">
          <mxGeometry x="462.5" y="738" width="67" height="61.5" as="geometry" />
        </mxCell>
        <mxCell id="yIlqXNv4PA9Dnh1hxRCn-39" value="" style="aspect=fixed;html=1;perimeter=none;align=center;shadow=0;dashed=0;image;fontSize=12;image=img/lib/mscae/Virtual_Machine.svg;labelBackgroundColor=none;fillColor=#B2C9AB;strokeColor=#788AA3;fontColor=#46495D;" parent="yIlqXNv4PA9Dnh1hxRCn-41" vertex="1">
          <mxGeometry width="54" height="50" as="geometry" />
        </mxCell>
        <mxCell id="yIlqXNv4PA9Dnh1hxRCn-31" value="" style="aspect=fixed;html=1;perimeter=none;align=center;shadow=0;dashed=0;image;fontSize=12;image=img/lib/mscae/SQL_Database_generic.svg;labelBackgroundColor=none;fillColor=#B2C9AB;strokeColor=#788AA3;fontColor=#46495D;" parent="yIlqXNv4PA9Dnh1hxRCn-41" vertex="1">
          <mxGeometry x="39" y="24.5" width="28" height="37" as="geometry" />
        </mxCell>
        <mxCell id="yIlqXNv4PA9Dnh1hxRCn-43" value="Storage" style="shape=image;verticalLabelPosition=bottom;labelBackgroundColor=none;verticalAlign=top;aspect=fixed;imageAspect=0;image=data:image/svg+xml,PHN2ZyB4bWxuczpkYz0iaHR0cDovL3B1cmwub3JnL2RjL2VsZW1lbnRzLzEuMS8iIHhtbG5zOmNjPSJodHRwOi8vY3JlYXRpdmVjb21tb25zLm9yZy9ucyMiIHhtbG5zOnJkZj0iaHR0cDovL3d3dy53My5vcmcvMTk5OS8wMi8yMi1yZGYtc3ludGF4LW5zIyIgeG1sbnM6c3ZnPSJodHRwOi8vd3d3LnczLm9yZy8yMDAwL3N2ZyIgeG1sbnM9Imh0dHA6Ly93d3cudzMub3JnLzIwMDAvc3ZnIiB4bWxuczpzb2RpcG9kaT0iaHR0cDovL3NvZGlwb2RpLnNvdXJjZWZvcmdlLm5ldC9EVEQvc29kaXBvZGktMC5kdGQiIHhtbG5zOmlua3NjYXBlPSJodHRwOi8vd3d3Lmlua3NjYXBlLm9yZy9uYW1lc3BhY2VzL2lua3NjYXBlIiB2ZXJzaW9uPSIxLjEiIGlkPSJzdmc2NDIwMiIgaW5rc2NhcGU6dmVyc2lvbj0iMC45Mi4zICgyNDA1NTQ2LCAyMDE4LTAzLTExKSIgc29kaXBvZGk6ZG9jbmFtZT0iYXp1cmVfc3RvcmFnZV9henVyZV9maWxlcy5zdmciIHg9IjBweCIgeT0iMHB4IiB2aWV3Qm94PSIwIDAgNzUuNTIgNjQuMzQiIHhtbDpzcGFjZT0icHJlc2VydmUiIHdpZHRoPSI3NS41MTk5OTciIGhlaWdodD0iNjQuMzM5OTk2Ij48bWV0YWRhdGEgaWQ9Im1ldGFkYXRhMTg3OTUiPjxyZGY6UkRGPjxjYzpXb3JrIHJkZjphYm91dD0iIj48ZGM6Zm9ybWF0PmltYWdlL3N2Zyt4bWw8L2RjOmZvcm1hdD48ZGM6dHlwZSByZGY6cmVzb3VyY2U9Imh0dHA6Ly9wdXJsLm9yZy9kYy9kY21pdHlwZS9TdGlsbEltYWdlIi8+PGRjOnRpdGxlLz48L2NjOldvcms+PC9yZGY6UkRGPjwvbWV0YWRhdGE+PGRlZnMgaWQ9ImRlZnMxODc5MyIvPiYjeGE7PGZpbHRlciBpZD0iZmlsdGVyXzIiPiYjeGE7CTxmZUdhdXNzaWFuQmx1ciBpZD0iZmVHYXVzc2lhbkJsdXI2NDA5NSIgc3RkRGV2aWF0aW9uPSIyIi8+JiN4YTs8L2ZpbHRlcj4mI3hhOzxzb2RpcG9kaTpuYW1lZHZpZXcgYm9yZGVyY29sb3I9IiM2NjY2NjYiIGJvcmRlcm9wYWNpdHk9IjEiIGZpdC1tYXJnaW4tYm90dG9tPSIwIiBmaXQtbWFyZ2luLWxlZnQ9IjAiIGZpdC1tYXJnaW4tcmlnaHQ9IjAiIGZpdC1tYXJnaW4tdG9wPSIwIiBncmlkdG9sZXJhbmNlPSIxMCIgZ3VpZGV0b2xlcmFuY2U9IjEwIiBpZD0ibmFtZWR2aWV3NjQyMDQiIGlua3NjYXBlOmN1cnJlbnQtbGF5ZXI9InN2ZzY0MjAyIiBpbmtzY2FwZTpjeD0iLTQwLjc1NzY0MiIgaW5rc2NhcGU6Y3k9IjE0LjI0NTcwNSIgaW5rc2NhcGU6cGFnZW9wYWNpdHk9IjAiIGlua3NjYXBlOnBhZ2VzaGFkb3c9IjIiIGlua3NjYXBlOndpbmRvdy1oZWlnaHQ9IjEwMTciIGlua3NjYXBlOndpbmRvdy1tYXhpbWl6ZWQ9IjEiIGlua3NjYXBlOndpbmRvdy13aWR0aD0iMTkyMCIgaW5rc2NhcGU6d2luZG93LXg9Ii04IiBpbmtzY2FwZTp3aW5kb3cteT0iLTgiIGlua3NjYXBlOnpvb209IjMuNjYwMjg4NyIgb2JqZWN0dG9sZXJhbmNlPSIxMCIgcGFnZWNvbG9yPSIjZmZmZmZmIiBzaG93Z3JpZD0iZmFsc2UiPiYjeGE7CTwvc29kaXBvZGk6bmFtZWR2aWV3PiYjeGE7JiN4YTs8cGF0aCBpZD0icGF0aDY0MTA4IiBpbmtzY2FwZTpjb25uZWN0b3ItY3VydmF0dXJlPSIwIiBzdHlsZT0iZmlsbDojYTBhMWEyIiBkPSJtIDAsNjEuNDggYyAwLDEuNTEgMS4wNiwyLjg2IDIuODcsMi44NiBoIDY5Ljc4IGMgMS41MSwwIDIuODcsLTEuMDUgMi44NywtMi44NiB2IC01MCBIIDAgWiIvPiYjeGE7JiN4YTs8cGF0aCBpZD0icGF0aDY0MTE2IiBpbmtzY2FwZTpjb25uZWN0b3ItY3VydmF0dXJlPSIwIiBzdHlsZT0iZmlsbDojN2E3YTdhIiBkPSJNIDcyLjY1LDAgSCAyLjg3IEMgMS4wNiwwIDAsMS4zNSAwLDIuODcgdiA4LjYgSCA3NS41MiBWIDIuODcgQyA3NS41MiwxLjM1IDc0LjQ2LDAgNzIuNjUsMCBaIi8+JiN4YTsmI3hhOzxyZWN0IGlkPSJyZWN0NjQxMjQiIHg9IjI4LjM5OTk5NCIgeT0iMTYuNDU5OTk5IiBzdHlsZT0iZmlsbDojZmZmZmZmIiB3aWR0aD0iMTkuMDMwMDAxIiBoZWlnaHQ9IjExLjQ4Ii8+JiN4YTsmI3hhOzxyZWN0IGlkPSJyZWN0NjQxMzIiIHg9IjI4LjM5OTk5NCIgeT0iMzIuMDIiIHN0eWxlPSJmaWxsOiNmY2QxMTYiIHdpZHRoPSIxOS4wMzAwMDEiIGhlaWdodD0iMTEuNDgiLz4mI3hhOyYjeGE7PHJlY3QgaWQ9InJlY3Q2NDE0MCIgeD0iNTEuMDUwMDAzIiB5PSIzMi4wMiIgc3R5bGU9ImZpbGw6I2ZjZDExNiIgd2lkdGg9IjE5LjAzMDAwMSIgaGVpZ2h0PSIxMS40OCIvPiYjeGE7JiN4YTs8cmVjdCBpZD0icmVjdDY0MTQ4IiB4PSI1MS4wNTAwMDMiIHk9IjE2LjQ1OTk5OSIgc3R5bGU9ImZpbGw6I2ZmZmZmZiIgd2lkdGg9IjE5LjAzMDAwMSIgaGVpZ2h0PSIxMS40OCIvPiYjeGE7JiN4YTs8cmVjdCBpZD0icmVjdDY0MTU2IiB4PSI1LjczOTk5NzkiIHk9IjE2LjQ1OTk5OSIgc3R5bGU9ImZpbGw6I2ZmZmZmZiIgd2lkdGg9IjE5LjAzMDAwMSIgaGVpZ2h0PSIxMS40OCIvPiYjeGE7JiN4YTs8cmVjdCBpZD0icmVjdDY0MTY0IiB4PSI1LjczOTk5NzkiIHk9IjMyLjAyIiBzdHlsZT0iZmlsbDojZmZmZmZmIiB3aWR0aD0iMTkuMDMwMDAxIiBoZWlnaHQ9IjExLjQ4Ii8+JiN4YTsmI3hhOzxyZWN0IGlkPSJyZWN0NjQxNzIiIHg9IjUuNzM5OTk3OSIgeT0iNDcuNDMiIHN0eWxlPSJmaWxsOiNmY2QxMTYiIHdpZHRoPSIxOS4wMzAwMDEiIGhlaWdodD0iMTEuNDgiLz4mI3hhOyYjeGE7PHJlY3QgaWQ9InJlY3Q2NDE4MCIgeD0iMjguMzk5OTk0IiB5PSI0Ny40MyIgc3R5bGU9ImZpbGw6I2ZjZDExNiIgd2lkdGg9IjE5LjAzMDAwMSIgaGVpZ2h0PSIxMS40OCIvPiYjeGE7JiN4YTs8cmVjdCBpZD0icmVjdDY0MTg4IiB4PSI1MS4wNTAwMDMiIHk9IjQ3LjQzIiBzdHlsZT0iZmlsbDojZmNkMTE2IiB3aWR0aD0iMTkuMDMwMDAxIiBoZWlnaHQ9IjExLjQ4Ii8+JiN4YTsmI3hhOzxwYXRoIGlkPSJwYXRoNjQxOTYiIGlua3NjYXBlOmNvbm5lY3Rvci1jdXJ2YXR1cmU9IjAiIHN0eWxlPSJmaWxsOiNmZmZmZmY7ZmlsbC1vcGFjaXR5OjAuMiIgZD0iTSAyLjg3LDAgQyAxLjUxLDAgMCwxLjM2IDAsMi44NyB2IDExLjE4IDQuOTggNDIuNDUgYyAwLDEuNTEgMS41MSwyLjg2IDIuODcsMi44NiBIIDYuMDQgTCA2NS44NiwwIFoiLz4mI3hhOzwvc3ZnPg==;fillColor=#B2C9AB;strokeColor=#788AA3;fontColor=#46495D;" parent="1" vertex="1">
          <mxGeometry x="733.5" y="738" width="58" height="49" as="geometry" />
        </mxCell>
        <mxCell id="yIlqXNv4PA9Dnh1hxRCn-75" value="&lt;span&gt;L&#39;intégralité de l&#39;écosystème est déployé au sein du réseau MVO sur&amp;nbsp; Microsoft Azure&lt;/span&gt;" style="text;html=1;align=left;verticalAlign=top;spacingTop=-4;fontSize=14;labelBackgroundColor=none;whiteSpace=wrap;fontColor=#46495D;" parent="1" vertex="1">
          <mxGeometry x="96" y="412.25" width="210" height="42.5" as="geometry" />
        </mxCell>
        <mxCell id="yIlqXNv4PA9Dnh1hxRCn-95" value="&lt;span&gt;Les relations avec la base de données de production se déroule dans le cadre d&#39;un virtual Private Network qui assure une encapsulation des données de production sur Azure. Ils&amp;nbsp;&lt;/span&gt;qui permettent de gérer granulairement l&#39;accès aux ressources" style="text;html=1;align=left;verticalAlign=top;spacingTop=-4;fontSize=14;labelBackgroundColor=none;whiteSpace=wrap;fontColor=#46495D;" parent="1" vertex="1">
          <mxGeometry x="-539.5" y="460.5" width="449" height="79.5" as="geometry" />
        </mxCell>
        <mxCell id="yIlqXNv4PA9Dnh1hxRCn-97" value="&lt;span&gt;Le Storage account sert au taitement des fichiers fournis par Elsan dans le cadre des exports Sigems et Timewise, il permet de processer les fichiers pour les importer en base de données.&lt;/span&gt;" style="text;html=1;align=left;verticalAlign=top;spacingTop=-4;fontSize=14;labelBackgroundColor=none;whiteSpace=wrap;fontColor=#46495D;" parent="1" vertex="1">
          <mxGeometry x="431.5" y="491" width="360" height="74" as="geometry" />
        </mxCell>
        <mxCell id="JlcOlSUOv72aKDt4cfFE-13" value="" style="whiteSpace=wrap;html=1;aspect=fixed;strokeColor=#82b366;fillColor=#d5e8d4;" parent="1" vertex="1">
          <mxGeometry x="55" y="539.5" width="330" height="330" as="geometry" />
        </mxCell>
        <mxCell id="JlcOlSUOv72aKDt4cfFE-14" value="" style="shape=image;verticalLabelPosition=bottom;labelBackgroundColor=#ffffff;verticalAlign=top;aspect=fixed;imageAspect=0;image=data:image/svg+xml,PHN2ZyB4bWxuczpkYz0iaHR0cDovL3B1cmwub3JnL2RjL2VsZW1lbnRzLzEuMS8iIHhtbG5zOmNjPSJodHRwOi8vY3JlYXRpdmVjb21tb25zLm9yZy9ucyMiIHhtbG5zOnJkZj0iaHR0cDovL3d3dy53My5vcmcvMTk5OS8wMi8yMi1yZGYtc3ludGF4LW5zIyIgeG1sbnM6c3ZnPSJodHRwOi8vd3d3LnczLm9yZy8yMDAwL3N2ZyIgeG1sbnM9Imh0dHA6Ly93d3cudzMub3JnLzIwMDAvc3ZnIiB4bWxuczpzb2RpcG9kaT0iaHR0cDovL3NvZGlwb2RpLnNvdXJjZWZvcmdlLm5ldC9EVEQvc29kaXBvZGktMC5kdGQiIHhtbG5zOmlua3NjYXBlPSJodHRwOi8vd3d3Lmlua3NjYXBlLm9yZy9uYW1lc3BhY2VzL2lua3NjYXBlIiB2ZXJzaW9uPSIxLjEiIGlkPSJzdmc2MTMyMyIgaW5rc2NhcGU6dmVyc2lvbj0iMC45Mi4zICgyNDA1NTQ2LCAyMDE4LTAzLTExKSIgc29kaXBvZGk6ZG9jbmFtZT0iYXp1cmVfcG9ydGFsX3dlYl9hcHBzLnN2ZyIgeD0iMHB4IiB5PSIwcHgiIHZpZXdCb3g9IjAgMCA1MS4wMjkzMTcgNTEuMDIiIHhtbDpzcGFjZT0icHJlc2VydmUiIHdpZHRoPSI1MS4wMjkzMTYiIGhlaWdodD0iNTEuMDIiPjxtZXRhZGF0YSBpZD0ibWV0YWRhdGExMTY1NSI+PHJkZjpSREY+PGNjOldvcmsgcmRmOmFib3V0PSIiPjxkYzpmb3JtYXQ+aW1hZ2Uvc3ZnK3htbDwvZGM6Zm9ybWF0PjxkYzp0eXBlIHJkZjpyZXNvdXJjZT0iaHR0cDovL3B1cmwub3JnL2RjL2RjbWl0eXBlL1N0aWxsSW1hZ2UiLz48ZGM6dGl0bGUvPjwvY2M6V29yaz48L3JkZjpSREY+PC9tZXRhZGF0YT48ZGVmcyBpZD0iZGVmczExNjUzIi8+JiN4YTs8ZmlsdGVyIGlkPSJmaWx0ZXJfMiI+JiN4YTsJPGZlR2F1c3NpYW5CbHVyIGlkPSJmZUdhdXNzaWFuQmx1cjYxMjk2IiBzdGREZXZpYXRpb249IjIiLz4mI3hhOzwvZmlsdGVyPiYjeGE7PHNvZGlwb2RpOm5hbWVkdmlldyBib3JkZXJjb2xvcj0iIzY2NjY2NiIgYm9yZGVyb3BhY2l0eT0iMSIgZml0LW1hcmdpbi1ib3R0b209IjAiIGZpdC1tYXJnaW4tbGVmdD0iMCIgZml0LW1hcmdpbi1yaWdodD0iMCIgZml0LW1hcmdpbi10b3A9IjAiIGdyaWR0b2xlcmFuY2U9IjEwIiBndWlkZXRvbGVyYW5jZT0iMTAiIGlkPSJuYW1lZHZpZXc2MTMyNSIgaW5rc2NhcGU6Y3VycmVudC1sYXllcj0ic3ZnNjEzMjMiIGlua3NjYXBlOmN4PSItNDUuMDA0ODE4IiBpbmtzY2FwZTpjeT0iMzkuNDkwNjM4IiBpbmtzY2FwZTpwYWdlb3BhY2l0eT0iMCIgaW5rc2NhcGU6cGFnZXNoYWRvdz0iMiIgaW5rc2NhcGU6d2luZG93LWhlaWdodD0iMTAxNyIgaW5rc2NhcGU6d2luZG93LW1heGltaXplZD0iMSIgaW5rc2NhcGU6d2luZG93LXdpZHRoPSIxOTIwIiBpbmtzY2FwZTp3aW5kb3cteD0iLTgiIGlua3NjYXBlOndpbmRvdy15PSItOCIgaW5rc2NhcGU6em9vbT0iNC4zMDY1ODM0IiBvYmplY3R0b2xlcmFuY2U9IjEwIiBwYWdlY29sb3I9IiNmZmZmZmYiIHNob3dncmlkPSJmYWxzZSI+JiN4YTsJPC9zb2RpcG9kaTpuYW1lZHZpZXc+JiN4YTsmI3hhOzxwYXRoIGlkPSJwYXRoNjEzMDkiIGlua3NjYXBlOmNvbm5lY3Rvci1jdXJ2YXR1cmU9IjAiIHN0eWxlPSJmaWxsOiM1OWI0ZDkiIGQ9Im0gNDEuMDE0NTI2LDQ1Ljc2IGMgLTQuNjIsMy41MyAtMTAuMDcsNS4yNiAtMTUuNDcsNS4yNiAtNy42OCwwIC0xNS4yNywtMy40NSAtMjAuMjc5OTk5OSwtMTAuMDEgLTguNTcsLTExLjE5IC02LjQ2LC0yNy4xOCA0Ljc0OTk5OTksLTM1Ljc2IDQuNjIsLTMuNTUgMTAuMDgsLTUuMjUgMTUuNDgsLTUuMjUgNy42NywwIDE1LjI2LDMuNDUgMjAuMjgsMTAuMDEgOC41NywxMS4xOCA2LjQzLDI3LjE5IC00Ljc2LDM1Ljc1IHoiLz4mI3hhOyYjeGE7PHBhdGggaWQ9InBhdGg2MTMxNyIgaW5rc2NhcGU6Y29ubmVjdG9yLWN1cnZhdHVyZT0iMCIgc3R5bGU9ImZpbGw6I2ZmZmZmZiIgZD0ibSAzNi4zMzQ1MjYsMjkuOTggYyAxLjg1LDIuNDEgNS4yOSwyLjg1IDcuNywxLjAyIDAuMTIsLTAuMDkgMC4yMiwtMC4yMSAwLjMzLC0wLjMxIDIuNDYsMS43MyA0LjE3LDIuODcgNS4xMywzLjUzIDAuMjgsLTAuNzQgMC40OCwtMS40NSAwLjY4LC0yLjE5IC0xLjAxLC0wLjc2IC0yLjM5LC0xLjgxIC00LjM3LC0zLjQyIDAuNjUsLTEuNzIgMC40NCwtMy43MiAtMC43NSwtNS4yOCAtMS43LC0yLjIxIC00LjcyLC0yLjc3IC03LjA4LC0xLjQxIC0yLjYsLTIuMzMgLTUuNDUsLTUgLTguNDYsLTcuOTkgOS4zNSwtNS4wMyAxNiwtNC4yOSAxNiwtNC4yOSAtMS4xMSwtMS40MiAtMi4zNiwtMi42NiAtMy42OCwtMy43OCAtMy45NSwtMC42MSAtMTAuMDcsLTAuNTQgLTE3LjA3LDMuMTkgbCAtMC4wMSwtMC4wMSB2IDAgYyAtMi4zMywtMi40NCAtNC43MSwtNS4wNiAtNy4xMiwtNy44NyAtMS4xNiwwLjM3IC0yLjI5LDAuODMgLTMuMzgsMS4zOCAxLjc4LDIuOTIgNC4xOCw1Ljg3IDYuODksOC43NCAwLDAuMDEgMC4wMSwwLjAxIDAuMDIsMC4wMiAtMi4yNiwxLjU3IC00Ljc3LDMuNjggLTcuMDksNi4xMyAtMC4zLDAuMzIgLTAuNTgsMC42NCAtMC44NiwwLjk1IC0xLjM4LC0wLjI5IC0yLjg0LC0wLjIgLTQuMTk5OTk5OSwwLjI5IC0yLjMxLC00Ljk4IC0yLjEzLC04Ljk5IC0xLjc2LC0xMS4wNSAtMSwxLjA1IC0xLjk0LDIuMTUgLTIuNzUsMy4zMyAtMC42LDIuNDcgLTAuNzcsNi4wMiAxLjAxLDEwLjMgLTIuMDYsMi43IC0yLjE2LDYuNTIgLTAuMDEsOS4zNSAwLjE4LDAuMjMgMC4zNywwLjQ1IDAuNTcsMC42NSAtMC45NCwzLjIgLTEuMzYsNi4yOSAtMS40OSw4Ljk0IDAuMjQsMC4zMyAwLjI0LDAuNiAwLjQ4LDAuOTIgMS4yMywxLjU3IDIuNzYsMi44OSA0LjI1LDQuMDkgLTAuMTgsLTIuODEgMC4wMSwtNi45NSAxLjc0OTk5OTksLTExLjYxIDEuMiwwLjA5IDIuNDEsLTAuMDkgMy41NSwtMC41NyAwLjY2LDAuNTcgMS4zNCwxLjE1IDIuMDcsMS43NCAyLjUsMS45OCA1LDMuNTMgNy40Myw0Ljc0IC0wLjEyLDEuMjQgMC4xOSwyLjUyIDAuOTksMy41OSAxLjcyLDIuMjIgNC45MSwyLjY0IDcuMTMsMC45NCAwLjQ2LC0wLjM2IDAuODMsLTAuNzggMS4xMywtMS4yNCAzLjk3LDAuODggNy40NCwxLjA0IDEwLjAxLDEuMDQgMC4zOSwwIDIuMjIsLTIuNDkgMy4yNiwtNC4wMyAtMS41NiwwLjMzIC02LjIsMC45NyAtMTIuNTUsLTAuODYgLTAuMTUsLTAuNzEgLTAuNDQsLTEuNCAtMC45MSwtMi4wMiAtMS42MiwtMi4xMSAtNC41NiwtMi41NyAtNi43NiwtMS4xNSAtMi4yLC0xLjIgLTQuNTEsLTIuNyAtNi44OSwtNC41OSAtMC40OCwtMC4zOCAtMC45NSwtMC43NiAtMS4zOSwtMS4xNCAxLjQ1LC0yLjI5IDEuNjEsLTUuMjMgMC4zMiwtNy43IDAuMywtMC4yOSAwLjU4LC0wLjU5IDAuODksLTAuODggMi4zNiwtMi4yIDQuNTgsLTMuOTYgNi42NiwtNS4zOCAtMC4wOSwtMC4wOCAtMC4xNiwtMC4xNiAtMC4yNSwtMC4yNCAwLjA5LDAuMDggMC4xNiwwLjE2IDAuMjUsMC4yNCB2IDAgYyAzLjE4LDIuOTQgNi41Niw1LjczIDkuNzYsOC4yMyAtMC44NSwxLjc5IC0wLjcyLDMuOTggMC41Nyw1LjY2IHoiLz4mI3hhOzwvc3ZnPg==;strokeColor=#788AA3;fontColor=#46495D;fillColor=#B2C9AB;" parent="1" vertex="1">
          <mxGeometry x="70.00000000000011" y="566.5" width="51" height="51" as="geometry" />
        </mxCell>
        <mxCell id="JlcOlSUOv72aKDt4cfFE-15" value="" style="shape=image;verticalLabelPosition=bottom;labelBackgroundColor=#ffffff;verticalAlign=top;aspect=fixed;imageAspect=0;image=data:image/svg+xml,PHN2ZyB4bWxuczpkYz0iaHR0cDovL3B1cmwub3JnL2RjL2VsZW1lbnRzLzEuMS8iIHhtbG5zOmNjPSJodHRwOi8vY3JlYXRpdmVjb21tb25zLm9yZy9ucyMiIHhtbG5zOnJkZj0iaHR0cDovL3d3dy53My5vcmcvMTk5OS8wMi8yMi1yZGYtc3ludGF4LW5zIyIgeG1sbnM6c3ZnPSJodHRwOi8vd3d3LnczLm9yZy8yMDAwL3N2ZyIgeG1sbnM9Imh0dHA6Ly93d3cudzMub3JnLzIwMDAvc3ZnIiB4bWxuczpzb2RpcG9kaT0iaHR0cDovL3NvZGlwb2RpLnNvdXJjZWZvcmdlLm5ldC9EVEQvc29kaXBvZGktMC5kdGQiIHhtbG5zOmlua3NjYXBlPSJodHRwOi8vd3d3Lmlua3NjYXBlLm9yZy9uYW1lc3BhY2VzL2lua3NjYXBlIiB2ZXJzaW9uPSIxLjEiIGlkPSJzdmc2MTMyMyIgaW5rc2NhcGU6dmVyc2lvbj0iMC45Mi4zICgyNDA1NTQ2LCAyMDE4LTAzLTExKSIgc29kaXBvZGk6ZG9jbmFtZT0iYXp1cmVfcG9ydGFsX3dlYl9hcHBzLnN2ZyIgeD0iMHB4IiB5PSIwcHgiIHZpZXdCb3g9IjAgMCA1MS4wMjkzMTcgNTEuMDIiIHhtbDpzcGFjZT0icHJlc2VydmUiIHdpZHRoPSI1MS4wMjkzMTYiIGhlaWdodD0iNTEuMDIiPjxtZXRhZGF0YSBpZD0ibWV0YWRhdGExMTY1NSI+PHJkZjpSREY+PGNjOldvcmsgcmRmOmFib3V0PSIiPjxkYzpmb3JtYXQ+aW1hZ2Uvc3ZnK3htbDwvZGM6Zm9ybWF0PjxkYzp0eXBlIHJkZjpyZXNvdXJjZT0iaHR0cDovL3B1cmwub3JnL2RjL2RjbWl0eXBlL1N0aWxsSW1hZ2UiLz48ZGM6dGl0bGUvPjwvY2M6V29yaz48L3JkZjpSREY+PC9tZXRhZGF0YT48ZGVmcyBpZD0iZGVmczExNjUzIi8+JiN4YTs8ZmlsdGVyIGlkPSJmaWx0ZXJfMiI+JiN4YTsJPGZlR2F1c3NpYW5CbHVyIGlkPSJmZUdhdXNzaWFuQmx1cjYxMjk2IiBzdGREZXZpYXRpb249IjIiLz4mI3hhOzwvZmlsdGVyPiYjeGE7PHNvZGlwb2RpOm5hbWVkdmlldyBib3JkZXJjb2xvcj0iIzY2NjY2NiIgYm9yZGVyb3BhY2l0eT0iMSIgZml0LW1hcmdpbi1ib3R0b209IjAiIGZpdC1tYXJnaW4tbGVmdD0iMCIgZml0LW1hcmdpbi1yaWdodD0iMCIgZml0LW1hcmdpbi10b3A9IjAiIGdyaWR0b2xlcmFuY2U9IjEwIiBndWlkZXRvbGVyYW5jZT0iMTAiIGlkPSJuYW1lZHZpZXc2MTMyNSIgaW5rc2NhcGU6Y3VycmVudC1sYXllcj0ic3ZnNjEzMjMiIGlua3NjYXBlOmN4PSItNDUuMDA0ODE4IiBpbmtzY2FwZTpjeT0iMzkuNDkwNjM4IiBpbmtzY2FwZTpwYWdlb3BhY2l0eT0iMCIgaW5rc2NhcGU6cGFnZXNoYWRvdz0iMiIgaW5rc2NhcGU6d2luZG93LWhlaWdodD0iMTAxNyIgaW5rc2NhcGU6d2luZG93LW1heGltaXplZD0iMSIgaW5rc2NhcGU6d2luZG93LXdpZHRoPSIxOTIwIiBpbmtzY2FwZTp3aW5kb3cteD0iLTgiIGlua3NjYXBlOndpbmRvdy15PSItOCIgaW5rc2NhcGU6em9vbT0iNC4zMDY1ODM0IiBvYmplY3R0b2xlcmFuY2U9IjEwIiBwYWdlY29sb3I9IiNmZmZmZmYiIHNob3dncmlkPSJmYWxzZSI+JiN4YTsJPC9zb2RpcG9kaTpuYW1lZHZpZXc+JiN4YTsmI3hhOzxwYXRoIGlkPSJwYXRoNjEzMDkiIGlua3NjYXBlOmNvbm5lY3Rvci1jdXJ2YXR1cmU9IjAiIHN0eWxlPSJmaWxsOiM1OWI0ZDkiIGQ9Im0gNDEuMDE0NTI2LDQ1Ljc2IGMgLTQuNjIsMy41MyAtMTAuMDcsNS4yNiAtMTUuNDcsNS4yNiAtNy42OCwwIC0xNS4yNywtMy40NSAtMjAuMjc5OTk5OSwtMTAuMDEgLTguNTcsLTExLjE5IC02LjQ2LC0yNy4xOCA0Ljc0OTk5OTksLTM1Ljc2IDQuNjIsLTMuNTUgMTAuMDgsLTUuMjUgMTUuNDgsLTUuMjUgNy42NywwIDE1LjI2LDMuNDUgMjAuMjgsMTAuMDEgOC41NywxMS4xOCA2LjQzLDI3LjE5IC00Ljc2LDM1Ljc1IHoiLz4mI3hhOyYjeGE7PHBhdGggaWQ9InBhdGg2MTMxNyIgaW5rc2NhcGU6Y29ubmVjdG9yLWN1cnZhdHVyZT0iMCIgc3R5bGU9ImZpbGw6I2ZmZmZmZiIgZD0ibSAzNi4zMzQ1MjYsMjkuOTggYyAxLjg1LDIuNDEgNS4yOSwyLjg1IDcuNywxLjAyIDAuMTIsLTAuMDkgMC4yMiwtMC4yMSAwLjMzLC0wLjMxIDIuNDYsMS43MyA0LjE3LDIuODcgNS4xMywzLjUzIDAuMjgsLTAuNzQgMC40OCwtMS40NSAwLjY4LC0yLjE5IC0xLjAxLC0wLjc2IC0yLjM5LC0xLjgxIC00LjM3LC0zLjQyIDAuNjUsLTEuNzIgMC40NCwtMy43MiAtMC43NSwtNS4yOCAtMS43LC0yLjIxIC00LjcyLC0yLjc3IC03LjA4LC0xLjQxIC0yLjYsLTIuMzMgLTUuNDUsLTUgLTguNDYsLTcuOTkgOS4zNSwtNS4wMyAxNiwtNC4yOSAxNiwtNC4yOSAtMS4xMSwtMS40MiAtMi4zNiwtMi42NiAtMy42OCwtMy43OCAtMy45NSwtMC42MSAtMTAuMDcsLTAuNTQgLTE3LjA3LDMuMTkgbCAtMC4wMSwtMC4wMSB2IDAgYyAtMi4zMywtMi40NCAtNC43MSwtNS4wNiAtNy4xMiwtNy44NyAtMS4xNiwwLjM3IC0yLjI5LDAuODMgLTMuMzgsMS4zOCAxLjc4LDIuOTIgNC4xOCw1Ljg3IDYuODksOC43NCAwLDAuMDEgMC4wMSwwLjAxIDAuMDIsMC4wMiAtMi4yNiwxLjU3IC00Ljc3LDMuNjggLTcuMDksNi4xMyAtMC4zLDAuMzIgLTAuNTgsMC42NCAtMC44NiwwLjk1IC0xLjM4LC0wLjI5IC0yLjg0LC0wLjIgLTQuMTk5OTk5OSwwLjI5IC0yLjMxLC00Ljk4IC0yLjEzLC04Ljk5IC0xLjc2LC0xMS4wNSAtMSwxLjA1IC0xLjk0LDIuMTUgLTIuNzUsMy4zMyAtMC42LDIuNDcgLTAuNzcsNi4wMiAxLjAxLDEwLjMgLTIuMDYsMi43IC0yLjE2LDYuNTIgLTAuMDEsOS4zNSAwLjE4LDAuMjMgMC4zNywwLjQ1IDAuNTcsMC42NSAtMC45NCwzLjIgLTEuMzYsNi4yOSAtMS40OSw4Ljk0IDAuMjQsMC4zMyAwLjI0LDAuNiAwLjQ4LDAuOTIgMS4yMywxLjU3IDIuNzYsMi44OSA0LjI1LDQuMDkgLTAuMTgsLTIuODEgMC4wMSwtNi45NSAxLjc0OTk5OTksLTExLjYxIDEuMiwwLjA5IDIuNDEsLTAuMDkgMy41NSwtMC41NyAwLjY2LDAuNTcgMS4zNCwxLjE1IDIuMDcsMS43NCAyLjUsMS45OCA1LDMuNTMgNy40Myw0Ljc0IC0wLjEyLDEuMjQgMC4xOSwyLjUyIDAuOTksMy41OSAxLjcyLDIuMjIgNC45MSwyLjY0IDcuMTMsMC45NCAwLjQ2LC0wLjM2IDAuODMsLTAuNzggMS4xMywtMS4yNCAzLjk3LDAuODggNy40NCwxLjA0IDEwLjAxLDEuMDQgMC4zOSwwIDIuMjIsLTIuNDkgMy4yNiwtNC4wMyAtMS41NiwwLjMzIC02LjIsMC45NyAtMTIuNTUsLTAuODYgLTAuMTUsLTAuNzEgLTAuNDQsLTEuNCAtMC45MSwtMi4wMiAtMS42MiwtMi4xMSAtNC41NiwtMi41NyAtNi43NiwtMS4xNSAtMi4yLC0xLjIgLTQuNTEsLTIuNyAtNi44OSwtNC41OSAtMC40OCwtMC4zOCAtMC45NSwtMC43NiAtMS4zOSwtMS4xNCAxLjQ1LC0yLjI5IDEuNjEsLTUuMjMgMC4zMiwtNy43IDAuMywtMC4yOSAwLjU4LC0wLjU5IDAuODksLTAuODggMi4zNiwtMi4yIDQuNTgsLTMuOTYgNi42NiwtNS4zOCAtMC4wOSwtMC4wOCAtMC4xNiwtMC4xNiAtMC4yNSwtMC4yNCAwLjA5LDAuMDggMC4xNiwwLjE2IDAuMjUsMC4yNCB2IDAgYyAzLjE4LDIuOTQgNi41Niw1LjczIDkuNzYsOC4yMyAtMC44NSwxLjc5IC0wLjcyLDMuOTggMC41Nyw1LjY2IHoiLz4mI3hhOzwvc3ZnPg==;strokeColor=#788AA3;fontColor=#46495D;fillColor=#B2C9AB;" parent="1" vertex="1">
          <mxGeometry x="70.00000000000011" y="665.5" width="51" height="51" as="geometry" />
        </mxCell>
        <mxCell id="JlcOlSUOv72aKDt4cfFE-58" style="edgeStyle=orthogonalEdgeStyle;rounded=0;orthogonalLoop=1;jettySize=auto;html=1;entryX=1;entryY=0.75;entryDx=0;entryDy=0;strokeColor=#788AA3;fontColor=#46495D;fillColor=#B2C9AB;" parent="1" target="JlcOlSUOv72aKDt4cfFE-55" edge="1">
          <mxGeometry relative="1" as="geometry">
            <mxPoint x="50" y="800" as="sourcePoint" />
          </mxGeometry>
        </mxCell>
        <mxCell id="JlcOlSUOv72aKDt4cfFE-16" value="" style="shape=image;verticalLabelPosition=bottom;labelBackgroundColor=#ffffff;verticalAlign=top;aspect=fixed;imageAspect=0;image=data:image/svg+xml,PHN2ZyB4bWxuczpkYz0iaHR0cDovL3B1cmwub3JnL2RjL2VsZW1lbnRzLzEuMS8iIHhtbG5zOmNjPSJodHRwOi8vY3JlYXRpdmVjb21tb25zLm9yZy9ucyMiIHhtbG5zOnJkZj0iaHR0cDovL3d3dy53My5vcmcvMTk5OS8wMi8yMi1yZGYtc3ludGF4LW5zIyIgeG1sbnM6c3ZnPSJodHRwOi8vd3d3LnczLm9yZy8yMDAwL3N2ZyIgeG1sbnM9Imh0dHA6Ly93d3cudzMub3JnLzIwMDAvc3ZnIiB4bWxuczpzb2RpcG9kaT0iaHR0cDovL3NvZGlwb2RpLnNvdXJjZWZvcmdlLm5ldC9EVEQvc29kaXBvZGktMC5kdGQiIHhtbG5zOmlua3NjYXBlPSJodHRwOi8vd3d3Lmlua3NjYXBlLm9yZy9uYW1lc3BhY2VzL2lua3NjYXBlIiB2ZXJzaW9uPSIxLjEiIGlkPSJzdmc2MTMyMyIgaW5rc2NhcGU6dmVyc2lvbj0iMC45Mi4zICgyNDA1NTQ2LCAyMDE4LTAzLTExKSIgc29kaXBvZGk6ZG9jbmFtZT0iYXp1cmVfcG9ydGFsX3dlYl9hcHBzLnN2ZyIgeD0iMHB4IiB5PSIwcHgiIHZpZXdCb3g9IjAgMCA1MS4wMjkzMTcgNTEuMDIiIHhtbDpzcGFjZT0icHJlc2VydmUiIHdpZHRoPSI1MS4wMjkzMTYiIGhlaWdodD0iNTEuMDIiPjxtZXRhZGF0YSBpZD0ibWV0YWRhdGExMTY1NSI+PHJkZjpSREY+PGNjOldvcmsgcmRmOmFib3V0PSIiPjxkYzpmb3JtYXQ+aW1hZ2Uvc3ZnK3htbDwvZGM6Zm9ybWF0PjxkYzp0eXBlIHJkZjpyZXNvdXJjZT0iaHR0cDovL3B1cmwub3JnL2RjL2RjbWl0eXBlL1N0aWxsSW1hZ2UiLz48ZGM6dGl0bGUvPjwvY2M6V29yaz48L3JkZjpSREY+PC9tZXRhZGF0YT48ZGVmcyBpZD0iZGVmczExNjUzIi8+JiN4YTs8ZmlsdGVyIGlkPSJmaWx0ZXJfMiI+JiN4YTsJPGZlR2F1c3NpYW5CbHVyIGlkPSJmZUdhdXNzaWFuQmx1cjYxMjk2IiBzdGREZXZpYXRpb249IjIiLz4mI3hhOzwvZmlsdGVyPiYjeGE7PHNvZGlwb2RpOm5hbWVkdmlldyBib3JkZXJjb2xvcj0iIzY2NjY2NiIgYm9yZGVyb3BhY2l0eT0iMSIgZml0LW1hcmdpbi1ib3R0b209IjAiIGZpdC1tYXJnaW4tbGVmdD0iMCIgZml0LW1hcmdpbi1yaWdodD0iMCIgZml0LW1hcmdpbi10b3A9IjAiIGdyaWR0b2xlcmFuY2U9IjEwIiBndWlkZXRvbGVyYW5jZT0iMTAiIGlkPSJuYW1lZHZpZXc2MTMyNSIgaW5rc2NhcGU6Y3VycmVudC1sYXllcj0ic3ZnNjEzMjMiIGlua3NjYXBlOmN4PSItNDUuMDA0ODE4IiBpbmtzY2FwZTpjeT0iMzkuNDkwNjM4IiBpbmtzY2FwZTpwYWdlb3BhY2l0eT0iMCIgaW5rc2NhcGU6cGFnZXNoYWRvdz0iMiIgaW5rc2NhcGU6d2luZG93LWhlaWdodD0iMTAxNyIgaW5rc2NhcGU6d2luZG93LW1heGltaXplZD0iMSIgaW5rc2NhcGU6d2luZG93LXdpZHRoPSIxOTIwIiBpbmtzY2FwZTp3aW5kb3cteD0iLTgiIGlua3NjYXBlOndpbmRvdy15PSItOCIgaW5rc2NhcGU6em9vbT0iNC4zMDY1ODM0IiBvYmplY3R0b2xlcmFuY2U9IjEwIiBwYWdlY29sb3I9IiNmZmZmZmYiIHNob3dncmlkPSJmYWxzZSI+JiN4YTsJPC9zb2RpcG9kaTpuYW1lZHZpZXc+JiN4YTsmI3hhOzxwYXRoIGlkPSJwYXRoNjEzMDkiIGlua3NjYXBlOmNvbm5lY3Rvci1jdXJ2YXR1cmU9IjAiIHN0eWxlPSJmaWxsOiM1OWI0ZDkiIGQ9Im0gNDEuMDE0NTI2LDQ1Ljc2IGMgLTQuNjIsMy41MyAtMTAuMDcsNS4yNiAtMTUuNDcsNS4yNiAtNy42OCwwIC0xNS4yNywtMy40NSAtMjAuMjc5OTk5OSwtMTAuMDEgLTguNTcsLTExLjE5IC02LjQ2LC0yNy4xOCA0Ljc0OTk5OTksLTM1Ljc2IDQuNjIsLTMuNTUgMTAuMDgsLTUuMjUgMTUuNDgsLTUuMjUgNy42NywwIDE1LjI2LDMuNDUgMjAuMjgsMTAuMDEgOC41NywxMS4xOCA2LjQzLDI3LjE5IC00Ljc2LDM1Ljc1IHoiLz4mI3hhOyYjeGE7PHBhdGggaWQ9InBhdGg2MTMxNyIgaW5rc2NhcGU6Y29ubmVjdG9yLWN1cnZhdHVyZT0iMCIgc3R5bGU9ImZpbGw6I2ZmZmZmZiIgZD0ibSAzNi4zMzQ1MjYsMjkuOTggYyAxLjg1LDIuNDEgNS4yOSwyLjg1IDcuNywxLjAyIDAuMTIsLTAuMDkgMC4yMiwtMC4yMSAwLjMzLC0wLjMxIDIuNDYsMS43MyA0LjE3LDIuODcgNS4xMywzLjUzIDAuMjgsLTAuNzQgMC40OCwtMS40NSAwLjY4LC0yLjE5IC0xLjAxLC0wLjc2IC0yLjM5LC0xLjgxIC00LjM3LC0zLjQyIDAuNjUsLTEuNzIgMC40NCwtMy43MiAtMC43NSwtNS4yOCAtMS43LC0yLjIxIC00LjcyLC0yLjc3IC03LjA4LC0xLjQxIC0yLjYsLTIuMzMgLTUuNDUsLTUgLTguNDYsLTcuOTkgOS4zNSwtNS4wMyAxNiwtNC4yOSAxNiwtNC4yOSAtMS4xMSwtMS40MiAtMi4zNiwtMi42NiAtMy42OCwtMy43OCAtMy45NSwtMC42MSAtMTAuMDcsLTAuNTQgLTE3LjA3LDMuMTkgbCAtMC4wMSwtMC4wMSB2IDAgYyAtMi4zMywtMi40NCAtNC43MSwtNS4wNiAtNy4xMiwtNy44NyAtMS4xNiwwLjM3IC0yLjI5LDAuODMgLTMuMzgsMS4zOCAxLjc4LDIuOTIgNC4xOCw1Ljg3IDYuODksOC43NCAwLDAuMDEgMC4wMSwwLjAxIDAuMDIsMC4wMiAtMi4yNiwxLjU3IC00Ljc3LDMuNjggLTcuMDksNi4xMyAtMC4zLDAuMzIgLTAuNTgsMC42NCAtMC44NiwwLjk1IC0xLjM4LC0wLjI5IC0yLjg0LC0wLjIgLTQuMTk5OTk5OSwwLjI5IC0yLjMxLC00Ljk4IC0yLjEzLC04Ljk5IC0xLjc2LC0xMS4wNSAtMSwxLjA1IC0xLjk0LDIuMTUgLTIuNzUsMy4zMyAtMC42LDIuNDcgLTAuNzcsNi4wMiAxLjAxLDEwLjMgLTIuMDYsMi43IC0yLjE2LDYuNTIgLTAuMDEsOS4zNSAwLjE4LDAuMjMgMC4zNywwLjQ1IDAuNTcsMC42NSAtMC45NCwzLjIgLTEuMzYsNi4yOSAtMS40OSw4Ljk0IDAuMjQsMC4zMyAwLjI0LDAuNiAwLjQ4LDAuOTIgMS4yMywxLjU3IDIuNzYsMi44OSA0LjI1LDQuMDkgLTAuMTgsLTIuODEgMC4wMSwtNi45NSAxLjc0OTk5OTksLTExLjYxIDEuMiwwLjA5IDIuNDEsLTAuMDkgMy41NSwtMC41NyAwLjY2LDAuNTcgMS4zNCwxLjE1IDIuMDcsMS43NCAyLjUsMS45OCA1LDMuNTMgNy40Myw0Ljc0IC0wLjEyLDEuMjQgMC4xOSwyLjUyIDAuOTksMy41OSAxLjcyLDIuMjIgNC45MSwyLjY0IDcuMTMsMC45NCAwLjQ2LC0wLjM2IDAuODMsLTAuNzggMS4xMywtMS4yNCAzLjk3LDAuODggNy40NCwxLjA0IDEwLjAxLDEuMDQgMC4zOSwwIDIuMjIsLTIuNDkgMy4yNiwtNC4wMyAtMS41NiwwLjMzIC02LjIsMC45NyAtMTIuNTUsLTAuODYgLTAuMTUsLTAuNzEgLTAuNDQsLTEuNCAtMC45MSwtMi4wMiAtMS42MiwtMi4xMSAtNC41NiwtMi41NyAtNi43NiwtMS4xNSAtMi4yLC0xLjIgLTQuNTEsLTIuNyAtNi44OSwtNC41OSAtMC40OCwtMC4zOCAtMC45NSwtMC43NiAtMS4zOSwtMS4xNCAxLjQ1LC0yLjI5IDEuNjEsLTUuMjMgMC4zMiwtNy43IDAuMywtMC4yOSAwLjU4LC0wLjU5IDAuODksLTAuODggMi4zNiwtMi4yIDQuNTgsLTMuOTYgNi42NiwtNS4zOCAtMC4wOSwtMC4wOCAtMC4xNiwtMC4xNiAtMC4yNSwtMC4yNCAwLjA5LDAuMDggMC4xNiwwLjE2IDAuMjUsMC4yNCB2IDAgYyAzLjE4LDIuOTQgNi41Niw1LjczIDkuNzYsOC4yMyAtMC44NSwxLjc5IC0wLjcyLDMuOTggMC41Nyw1LjY2IHoiLz4mI3hhOzwvc3ZnPg==;strokeColor=#788AA3;fontColor=#46495D;fillColor=#B2C9AB;" parent="1" vertex="1">
          <mxGeometry x="70.00000000000011" y="758" width="51" height="51" as="geometry" />
        </mxCell>
        <mxCell id="yIlqXNv4PA9Dnh1hxRCn-23" value="Express&lt;br&gt;Route" style="aspect=fixed;html=1;perimeter=none;align=center;shadow=0;dashed=0;image;fontSize=12;image=img/lib/mscae/Express_Route.svg;labelBackgroundColor=none;fillColor=#B2C9AB;strokeColor=#788AA3;fontColor=#46495D;" parent="1" vertex="1">
          <mxGeometry x="306" y="617.5" width="50" height="30.5" as="geometry" />
        </mxCell>
        <mxCell id="JlcOlSUOv72aKDt4cfFE-18" style="edgeStyle=orthogonalEdgeStyle;rounded=0;orthogonalLoop=1;jettySize=auto;html=1;strokeColor=#788AA3;fontColor=#46495D;fillColor=#B2C9AB;" parent="1" source="JlcOlSUOv72aKDt4cfFE-17" target="yIlqXNv4PA9Dnh1hxRCn-33" edge="1">
          <mxGeometry relative="1" as="geometry" />
        </mxCell>
        <mxCell id="JlcOlSUOv72aKDt4cfFE-17" value="" style="shape=image;verticalLabelPosition=bottom;labelBackgroundColor=#ffffff;verticalAlign=top;aspect=fixed;imageAspect=0;image=data:image/svg+xml,PHN2ZyB4bWxuczpjYz0iaHR0cDovL2NyZWF0aXZlY29tbW9ucy5vcmcvbnMjIiB4bWxuczpkYz0iaHR0cDovL3B1cmwub3JnL2RjL2VsZW1lbnRzLzEuMS8iIHhtbG5zOmlua3NjYXBlPSJodHRwOi8vd3d3Lmlua3NjYXBlLm9yZy9uYW1lc3BhY2VzL2lua3NjYXBlIiB4bWxuczpyZGY9Imh0dHA6Ly93d3cudzMub3JnLzE5OTkvMDIvMjItcmRmLXN5bnRheC1ucyMiIHhtbG5zOnNvZGlwb2RpPSJodHRwOi8vc29kaXBvZGkuc291cmNlZm9yZ2UubmV0L0RURC9zb2RpcG9kaS0wLmR0ZCIgeG1sbnM6c3ZnPSJodHRwOi8vd3d3LnczLm9yZy8yMDAwL3N2ZyIgeG1sbnM9Imh0dHA6Ly93d3cudzMub3JnLzIwMDAvc3ZnIiB4bWxuczp4bGluaz0iaHR0cDovL3d3dy53My5vcmcvMTk5OS94bGluayIgdmVyc2lvbj0iMS4xIiBpZD0ic3ZnOTgyOTIiIGlua3NjYXBlOnZlcnNpb249IjAuOTIuMyAoMjQwNTU0NiwgMjAxOC0wMy0xMSkiIHNvZGlwb2RpOmRvY25hbWU9InN0b3JhZ2VfcmVzb3VyY2VfZ3JvdXAuc3ZnIiB4PSIwcHgiIHk9IjBweCIgdmlld0JveD0iMCAwIDU4Ljc3IDUwLjI0IiBzdHlsZT0iZW5hYmxlLWJhY2tncm91bmQ6bmV3IDAgMCA1OC43NyA1MC4yNDsiIHhtbDpzcGFjZT0icHJlc2VydmUiPiYjeGE7PHNvZGlwb2RpOm5hbWVkdmlldyBib3JkZXJjb2xvcj0iIzY2NjY2NiIgYm9yZGVyb3BhY2l0eT0iMSIgZml0LW1hcmdpbi1ib3R0b209IjAiIGZpdC1tYXJnaW4tbGVmdD0iMCIgZml0LW1hcmdpbi1yaWdodD0iMCIgZml0LW1hcmdpbi10b3A9IjAiIGdyaWR0b2xlcmFuY2U9IjEwIiBndWlkZXRvbGVyYW5jZT0iMTAiIGlkPSJuYW1lZHZpZXc5ODI5NCIgaW5rc2NhcGU6Y3VycmVudC1sYXllcj0ic3ZnOTgyOTIiIGlua3NjYXBlOmN4PSI0My44NTM2MjciIGlua3NjYXBlOmN5PSIyNS40NDM1OCIgaW5rc2NhcGU6cGFnZW9wYWNpdHk9IjAiIGlua3NjYXBlOnBhZ2VzaGFkb3c9IjIiIGlua3NjYXBlOndpbmRvdy1oZWlnaHQ9IjEwMTciIGlua3NjYXBlOndpbmRvdy1tYXhpbWl6ZWQ9IjEiIGlua3NjYXBlOndpbmRvdy13aWR0aD0iMTkyMCIgaW5rc2NhcGU6d2luZG93LXg9Ii04IiBpbmtzY2FwZTp3aW5kb3cteT0iLTgiIGlua3NjYXBlOnpvb209IjkuMTUxNzgxMSIgb2JqZWN0dG9sZXJhbmNlPSIxMCIgcGFnZWNvbG9yPSIjZmZmZmZmIiBzaG93Z3JpZD0iZmFsc2UiPiYjeGE7CTwvc29kaXBvZGk6bmFtZWR2aWV3PiYjeGE7PGcgaWQ9Imc5ODI5MCIgdHJhbnNmb3JtPSJ0cmFuc2xhdGUoMCwwLjAwMzM0NTMxKSI+JiN4YTsJPHRpdGxlIGlkPSJ0aXRsZTk4MTM1Ij5QYWdlLTE8L3RpdGxlPiYjeGE7CTxnIGlkPSJncm91cDUxNjUtMSI+JiN4YTsJCTx0aXRsZSBpZD0idGl0bGU5ODEzNyI+U3RvcmFnZSBSZXNvdXJjZSBHcm91cDwvdGl0bGU+JiN4YTsJCTxnIGlkPSJzaGFwZTUxNjYtMiI+JiN4YTsJCQk8dGl0bGUgaWQ9InRpdGxlOTgxMzkiPlNoZWV0LjUxNjY8L3RpdGxlPiYjeGE7CQkJPHBhdGggaWQ9InBhdGg5ODE0MSIgaW5rc2NhcGU6Y29ubmVjdG9yLWN1cnZhdHVyZT0iMCIgc3R5bGU9ImZpbGw6I0UwRTBFMDsiIGQ9Ik0wLDQ3Ljk4YzAsMS4zNCwwLjk2LDIuMjYsMi4xNCwyLjI2ICAgICBjNTQuNDEsMCw1NC40MSwwLDU0LjQxLDBjMS4zLDAsMi4yMi0wLjkyLDIuMjItMi4yNmMwLTM5LjQsMC0zOS40LDAtMzkuNEMwLDguNTgsMCw4LjU4LDAsOC41OEMwLDQ3Ljk4LDAsNDcuOTgsMCw0Ny45OHoiLz4mI3hhOwkJPC9nPiYjeGE7CQk8ZyBpZD0ic2hhcGU1MTY3LTQiIHRyYW5zZm9ybT0idHJhbnNsYXRlKDAsLTQxLjY2MzQpIj4mI3hhOwkJCTx0aXRsZSBpZD0idGl0bGU5ODE0NCI+U2hlZXQuNTE2NzwvdGl0bGU+JiN4YTsJCQk8cGF0aCBpZD0icGF0aDk4MTQ2IiBpbmtzY2FwZTpjb25uZWN0b3ItY3VydmF0dXJlPSIwIiBzdHlsZT0iZmlsbDojOERDNjNGOyIgZD0iTTU2LjY2LDQxLjY2Yy01NC41MiwwLTU0LjUyLDAtNTQuNTIsMCAgICAgQzAuOTYsNDEuNjYsMCw0Mi43LDAsNDMuODFjMCw2LjQzLDAsNi40MywwLDYuNDNjNTguNzcsMCw1OC43NywwLDU4Ljc3LDBjMC02LjQzLDAtNi40MywwLTYuNDMgICAgIEM1OC43Nyw0Mi43LDU3Ljg1LDQxLjY2LDU2LjY2LDQxLjY2eiIvPiYjeGE7CQk8L2c+JiN4YTsJCTxnIGlkPSJzaGFwZTUxNjgtNiIgdHJhbnNmb3JtPSJ0cmFuc2xhdGUoMTcuMTQwNywtMjIuMDU3MSkiPiYjeGE7CQkJPHRpdGxlIGlkPSJ0aXRsZTk4MTQ5Ij5TaGVldC41MTY4PC90aXRsZT4mI3hhOwkJCTxwYXRoIGlkPSJwYXRoOTgxNTEiIGlua3NjYXBlOmNvbm5lY3Rvci1jdXJ2YXR1cmU9IjAiIHN0eWxlPSJmaWxsOiNGRkZGRkY7IiBkPSJNMCw0My41djYuNzRoMTEuMDJWNDMuNUgweiIvPiYjeGE7CQk8L2c+JiN4YTsJCTxnIGlkPSJzaGFwZTUxNjktOCIgdHJhbnNmb3JtPSJ0cmFuc2xhdGUoMTcuMTQwNywtMzAuNjM0OCkiPiYjeGE7CQkJPHRpdGxlIGlkPSJ0aXRsZTk4MTU0Ij5TaGVldC41MTY5PC90aXRsZT4mI3hhOwkJCTxwYXRoIGlkPSJwYXRoOTgxNTYiIGlua3NjYXBlOmNvbm5lY3Rvci1jdXJ2YXR1cmU9IjAiIHN0eWxlPSJmaWxsOiNGRkZGRkY7IiBkPSJNMCw0My41djYuNzRoMTEuMDJWNDMuNUgweiIvPiYjeGE7CQk8L2c+JiN4YTsJCTxnIGlkPSJzaGFwZTUxNzAtMTAiIHRyYW5zZm9ybT0idHJhbnNsYXRlKDE3LjE0MDcsLTEzLjQ3OTMpIj4mI3hhOwkJCTx0aXRsZSBpZD0idGl0bGU5ODE1OSI+U2hlZXQuNTE3MDwvdGl0bGU+JiN4YTsJCQk8cGF0aCBpZD0icGF0aDk4MTYxIiBpbmtzY2FwZTpjb25uZWN0b3ItY3VydmF0dXJlPSIwIiBzdHlsZT0iZmlsbDojOERDNjNGOyIgZD0iTTAsNDQuMTF2Ni4xM2gxMS4wMnYtNi4xM0gweiIvPiYjeGE7CQk8L2c+JiN4YTsJCTxnIGlkPSJzaGFwZTUxNzEtMTIiIHRyYW5zZm9ybT0idHJhbnNsYXRlKDMwLjYwODQsLTEzLjQ3OTMpIj4mI3hhOwkJCTx0aXRsZSBpZD0idGl0bGU5ODE2NCI+U2hlZXQuNTE3MTwvdGl0bGU+JiN4YTsJCQk8cGF0aCBpZD0icGF0aDk4MTY2IiBpbmtzY2FwZTpjb25uZWN0b3ItY3VydmF0dXJlPSIwIiBzdHlsZT0iZmlsbDojOERDNjNGOyIgZD0iTTAsNDQuMTF2Ni4xM2gxMS4wMnYtNi4xM0gweiIvPiYjeGE7CQk8L2c+JiN4YTsJCTxnIGlkPSJzaGFwZTUxNzItMTQiIHRyYW5zZm9ybT0idHJhbnNsYXRlKDMwLjYwODQsLTIyLjA1NzEpIj4mI3hhOwkJCTx0aXRsZSBpZD0idGl0bGU5ODE2OSI+U2hlZXQuNTE3MjwvdGl0bGU+JiN4YTsJCQk8cGF0aCBpZD0icGF0aDk4MTcxIiBpbmtzY2FwZTpjb25uZWN0b3ItY3VydmF0dXJlPSIwIiBzdHlsZT0iZmlsbDojRkZGRkZGOyIgZD0iTTAsNDMuNXY2Ljc0aDExLjAyVjQzLjVIMHoiLz4mI3hhOwkJPC9nPiYjeGE7CQk8ZyBpZD0ic2hhcGU1MTczLTE2IiB0cmFuc2Zvcm09InRyYW5zbGF0ZSgzMC42MDg0LC0zMC42MzQ4KSI+JiN4YTsJCQk8dGl0bGUgaWQ9InRpdGxlOTgxNzQiPlNoZWV0LjUxNzM8L3RpdGxlPiYjeGE7CQkJPHBhdGggaWQ9InBhdGg5ODE3NiIgaW5rc2NhcGU6Y29ubmVjdG9yLWN1cnZhdHVyZT0iMCIgc3R5bGU9ImZpbGw6I0ZGRkZGRjsiIGQ9Ik0wLDQzLjV2Ni43NGgxMS4wMlY0My41SDB6Ii8+JiN4YTsJCTwvZz4mI3hhOwkJPGcgaWQ9InNoYXBlNTE3NC0xOCIgdHJhbnNmb3JtPSJ0cmFuc2xhdGUoNC4yODUxNywtMzAuNjM0OCkiPiYjeGE7CQkJPHRpdGxlIGlkPSJ0aXRsZTk4MTc5Ij5TaGVldC41MTc0PC90aXRsZT4mI3hhOwkJCTxwYXRoIGlkPSJwYXRoOTgxODEiIGlua3NjYXBlOmNvbm5lY3Rvci1jdXJ2YXR1cmU9IjAiIHN0eWxlPSJmaWxsOiNGRkZGRkY7IiBkPSJNMCw0My41djYuNzRoMTEuMDJWNDMuNUgweiIvPiYjeGE7CQk8L2c+JiN4YTsJCTxnIGlkPSJzaGFwZTUxNzUtMjAiIHRyYW5zZm9ybT0idHJhbnNsYXRlKDQuMjg1MTcsLTIyLjA1NzEpIj4mI3hhOwkJCTx0aXRsZSBpZD0idGl0bGU5ODE4NCI+U2hlZXQuNTE3NTwvdGl0bGU+JiN4YTsJCQk8cGF0aCBpZD0icGF0aDk4MTg2IiBpbmtzY2FwZTpjb25uZWN0b3ItY3VydmF0dXJlPSIwIiBzdHlsZT0iZmlsbDojRkZGRkZGOyIgZD0iTTAsNDMuNXY2Ljc0aDExLjAyVjQzLjVIMHoiLz4mI3hhOwkJPC9nPiYjeGE7CQk8ZyBpZD0ic2hhcGU1MTc2LTIyIiB0cmFuc2Zvcm09InRyYW5zbGF0ZSg0LjI4NTE3LC0xMy40NzkzKSI+JiN4YTsJCQk8dGl0bGUgaWQ9InRpdGxlOTgxODkiPlNoZWV0LjUxNzY8L3RpdGxlPiYjeGE7CQkJPHBhdGggaWQ9InBhdGg5ODE5MSIgaW5rc2NhcGU6Y29ubmVjdG9yLWN1cnZhdHVyZT0iMCIgc3R5bGU9ImZpbGw6IzhEQzYzRjsiIGQ9Ik0wLDQ0LjExdjYuMTNoMTEuMDJ2LTYuMTNIMHoiLz4mI3hhOwkJPC9nPiYjeGE7CQk8ZyBpZD0ic2hhcGU1MTc3LTI0IiB0cmFuc2Zvcm09InRyYW5zbGF0ZSg0LjI4NTE3LC00LjI4ODg4KSI+JiN4YTsJCQk8dGl0bGUgaWQ9InRpdGxlOTgxOTQiPlNoZWV0LjUxNzc8L3RpdGxlPiYjeGE7CQkJPHBhdGggaWQ9InBhdGg5ODE5NiIgaW5rc2NhcGU6Y29ubmVjdG9yLWN1cnZhdHVyZT0iMCIgc3R5bGU9ImZpbGw6IzhEQzYzRjsiIGQ9Ik0wLDQzLjV2Ni43NGgxMS4wMlY0My41SDB6Ii8+JiN4YTsJCTwvZz4mI3hhOwkJPGcgaWQ9InNoYXBlNTE3OC0yNiIgdHJhbnNmb3JtPSJ0cmFuc2xhdGUoMTcuMTQwNywtNC4yODg4OCkiPiYjeGE7CQkJPHRpdGxlIGlkPSJ0aXRsZTk4MTk5Ij5TaGVldC41MTc4PC90aXRsZT4mI3hhOwkJCTxwYXRoIGlkPSJwYXRoOTgyMDEiIGlua3NjYXBlOmNvbm5lY3Rvci1jdXJ2YXR1cmU9IjAiIHN0eWxlPSJmaWxsOiM4REM2M0Y7IiBkPSJNMCw0My41djYuNzRoMTEuMDJWNDMuNUgweiIvPiYjeGE7CQk8L2c+JiN4YTsJCTxnIGlkPSJzaGFwZTUxNzktMjgiIHRyYW5zZm9ybT0idHJhbnNsYXRlKDMwLjYwODQsLTQuMjg4ODgpIj4mI3hhOwkJCTx0aXRsZSBpZD0idGl0bGU5ODIwNCI+U2hlZXQuNTE3OTwvdGl0bGU+JiN4YTsJCQk8cGF0aCBpZD0icGF0aDk4MjA2IiBpbmtzY2FwZTpjb25uZWN0b3ItY3VydmF0dXJlPSIwIiBzdHlsZT0iZmlsbDojOERDNjNGOyIgZD0iTTAsNDMuNXY2Ljc0aDExLjAyVjQzLjVIMHoiLz4mI3hhOwkJPC9nPiYjeGE7CQk8ZyBpZD0ic2hhcGU1MTgwLTMwIiB0cmFuc2Zvcm09InRyYW5zbGF0ZSg0My40NjM5LC0xMy40NzkzKSI+JiN4YTsJCQk8dGl0bGUgaWQ9InRpdGxlOTgyMDkiPlNoZWV0LjUxODA8L3RpdGxlPiYjeGE7CQkJPHBhdGggaWQ9InBhdGg5ODIxMSIgaW5rc2NhcGU6Y29ubmVjdG9yLWN1cnZhdHVyZT0iMCIgc3R5bGU9ImZpbGw6IzhEQzYzRjsiIGQ9Ik0wLDQ0LjExdjYuMTNoMTEuMDJ2LTYuMTNIMHoiLz4mI3hhOwkJPC9nPiYjeGE7CQk8ZyBpZD0ic2hhcGU1MTgxLTMyIiB0cmFuc2Zvcm09InRyYW5zbGF0ZSg0My40NjM5LC0yMi4wNTcxKSI+JiN4YTsJCQk8dGl0bGUgaWQ9InRpdGxlOTgyMTQiPlNoZWV0LjUxODE8L3RpdGxlPiYjeGE7CQkJPHBhdGggaWQ9InBhdGg5ODIxNiIgaW5rc2NhcGU6Y29ubmVjdG9yLWN1cnZhdHVyZT0iMCIgc3R5bGU9ImZpbGw6I0ZGRkZGRjsiIGQ9Ik0wLDQzLjV2Ni43NGgxMS4wMlY0My41SDB6Ii8+JiN4YTsJCTwvZz4mI3hhOwkJPGcgaWQ9InNoYXBlNTE4Mi0zNCIgdHJhbnNmb3JtPSJ0cmFuc2xhdGUoNDMuNDYzOSwtMzAuNjM0OCkiPiYjeGE7CQkJPHRpdGxlIGlkPSJ0aXRsZTk4MjE5Ij5TaGVldC41MTgyPC90aXRsZT4mI3hhOwkJCTxwYXRoIGlkPSJwYXRoOTgyMjEiIGlua3NjYXBlOmNvbm5lY3Rvci1jdXJ2YXR1cmU9IjAiIHN0eWxlPSJmaWxsOiNGRkZGRkY7IiBkPSJNMCw0My41djYuNzRoMTEuMDJWNDMuNUgweiIvPiYjeGE7CQk8L2c+JiN4YTsJCTxnIGlkPSJzaGFwZTUxODMtMzYiIHRyYW5zZm9ybT0idHJhbnNsYXRlKDQzLjQ2MzksLTQuMjg4ODgpIj4mI3hhOwkJCTx0aXRsZSBpZD0idGl0bGU5ODIyNCI+U2hlZXQuNTE4MzwvdGl0bGU+JiN4YTsJCQk8cGF0aCBpZD0icGF0aDk4MjI2IiBpbmtzY2FwZTpjb25uZWN0b3ItY3VydmF0dXJlPSIwIiBzdHlsZT0iZmlsbDojOERDNjNGOyIgZD0iTTAsNDMuNXY2Ljc0aDExLjAyVjQzLjVIMHoiLz4mI3hhOwkJPC9nPiYjeGE7CQk8ZyBpZD0ic2hhcGU1MTg0LTM4IiB0cmFuc2Zvcm09InRyYW5zbGF0ZSgxLjgzNjUpIj4mI3hhOwkJCTx0aXRsZSBpZD0idGl0bGU5ODIyOSI+U2hlZXQuNTE4NDwvdGl0bGU+JiN4YTsJCQk8cGF0aCBpZD0icGF0aDk4MjMxIiBpbmtzY2FwZTpjb25uZWN0b3ItY3VydmF0dXJlPSIwIiBzdHlsZT0iZmlsbDojMUM0MjdGOyIgZD0iTTAuMTUsNTAuMjRjMC4xMiwwLDAuMjMsMCwwLjQ2LDAgICAgIGMyLjQ5LDAsMi40OSwwLDIuNDksMGMwLjExLDAsMC4xMSwwLDAuMTEsMGMtMi44MywwLTIuODMsMC0yLjgzLDBDMC4yNyw1MC4yNCwwLjI3LDUwLjI0LDAuMTUsNTAuMjR6IE00OS41OSwwICAgICBDMC42MSwwLDAuNjEsMCwwLjYxLDBDMC4zOCwwLDAuMjcsMCwwLDAuMTVDMC4xNSwwLjE1LDAuMjcsMCwwLjM4LDBDNDkuNTksMCw0OS41OSwwLDQ5LjU5LDBMNDkuNTksMHoiLz4mI3hhOwkJPC9nPiYjeGE7CQk8ZyBpZD0ic2hhcGU1MTg1LTQwIj4mI3hhOwkJCTx0aXRsZSBpZD0idGl0bGU5ODIzNCI+U2hlZXQuNTE4NTwvdGl0bGU+JiN4YTsJCQk8cGF0aCBpZD0icGF0aDk4MjM2IiBpbmtzY2FwZTpjb25uZWN0b3ItY3VydmF0dXJlPSIwIiBzdHlsZT0iZmlsbDojRTNFM0UzOyIgZD0iTTQuMzYsMzcuMDNjMC02LjY2LDAtNi42NiwwLTYuNjYgICAgIGMxMC43OSwwLDEwLjc5LDAsMTAuNzksMGMwLDYuNjYsMCw2LjY2LDAsNi42NkM0LjM2LDM3LjAzLDQuMzYsMzcuMDMsNC4zNiwzNy4wM3ogTTQuMzYsMjguMjJjMC02LjY2LDAtNi42NiwwLTYuNjYgICAgIGMxMC43OSwwLDEwLjc5LDAsMTAuNzksMGMwLDYuNjYsMCw2LjY2LDAsNi42NkM0LjM2LDI4LjIyLDQuMzYsMjguMjIsNC4zNiwyOC4yMnogTTQuMzYsMTkuNDFjMC02LjY2LDAtNi42NiwwLTYuNjYgICAgIGMxMC43OSwwLDEwLjc5LDAsMTAuNzksMGMwLDYuNjYsMCw2LjY2LDAsNi42NkM0LjM2LDE5LjQxLDQuMzYsMTkuNDEsNC4zNiwxOS40MXogTTE3LjQxLDE5LjQxYzAtNi42NiwwLTYuNjYsMC02LjY2ICAgICBjMTAuNzksMCwxMC43OSwwLDEwLjc5LDBjMCw2LjY2LDAsNi42NiwwLDYuNjZDMTcuNDEsMTkuNDEsMTcuNDEsMTkuNDEsMTcuNDEsMTkuNDF6IE00Mi44NSw4LjU4QzAsOC41OCwwLDguNTgsMCw4LjU4ICAgICBjMCwyLjAzLDAsMi4wMywwLDIuMDNjMCwzLjk0LDAsMy45NCwwLDMuOTRjMCwzMy4zMiwwLDMzLjMyLDAsMzMuMzJjMCwxLjE4LDAuODQsMi4xNCwxLjkxLDIuMzdjMC4xMiwwLDAuMTIsMCwwLjIzLDAgICAgIGMyLjgsMCwyLjgsMCwyLjgsMGM0LjAxLTQuNCw0LjAxLTQuNCw0LjAxLTQuNGMtNC41OSwwLTQuNTksMC00LjU5LDBjMC02LjY3LDAtNi42NywwLTYuNjdjMTAuNTYsMCwxMC41NiwwLDEwLjU2LDAgICAgIGMyLjQ5LTIuNiwyLjQ5LTIuNiwyLjQ5LTIuNmMwLTYuMiwwLTYuMiwwLTYuMmM1LjYyLDAsNS42MiwwLDUuNjIsMGMxLjk5LTIuMTUsMS45OS0yLjE1LDEuOTktMi4xNWMtNy42MSwwLTcuNjEsMC03LjYxLDAgICAgIGMwLTYuNjYsMC02LjY2LDAtNi42NmMxMC43OSwwLDEwLjc5LDAsMTAuNzksMGMwLDMuMSwwLDMuMSwwLDMuMWMyLjIyLTIuMzcsMi4yMi0yLjM3LDIuMjItMi4zN2MwLTAuNzMsMC0wLjczLDAtMC43MyAgICAgYzAuNjEsMCwwLjYxLDAsMC42MSwwYzEuOTktMi4xNSwxLjk5LTIuMTUsMS45OS0yLjE1Yy0yLjYsMC0yLjYsMC0yLjYsMGMwLTYuNjYsMC02LjY2LDAtNi42NmM4LjU3LDAsOC41NywwLDguNTcsMCAgICAgQzQyLjg1LDguNTgsNDIuODUsOC41OCw0Mi44NSw4LjU4eiIvPiYjeGE7CQk8L2c+JiN4YTsJCTxnIGlkPSJzaGFwZTUxODYtNDIiIHRyYW5zZm9ybT0idHJhbnNsYXRlKDAsLTQxLjY2MzQpIj4mI3hhOwkJCTx0aXRsZSBpZD0idGl0bGU5ODIzOSI+U2hlZXQuNTE4NjwvdGl0bGU+JiN4YTsJCQk8cGF0aCBpZD0icGF0aDk4MjQxIiBpbmtzY2FwZTpjb25uZWN0b3ItY3VydmF0dXJlPSIwIiBzdHlsZT0iZmlsbDojOTlDQzUzOyIgZD0iTTUxLjQyLDQxLjY2Yy00OS4yOCwwLTQ5LjI4LDAtNDkuMjgsMCAgICAgYy0wLjExLDAtMC4yMywwLjEyLTAuMzQsMC4xMkMwLjczLDQyLjAxLDAsNDIuOTMsMCw0My45MmMwLDYuMzIsMCw2LjMyLDAsNi4zMmM0My4xNiwwLDQzLjE2LDAsNDMuMTYsMCAgICAgQzUxLjQyLDQxLjY2LDUxLjQyLDQxLjY2LDUxLjQyLDQxLjY2eiIvPiYjeGE7CQk8L2c+JiN4YTsJCTxnIGlkPSJzaGFwZTUxODctNDQiIHRyYW5zZm9ybT0idHJhbnNsYXRlKDE3LjE0MDcsLTIyLjA1NzEpIj4mI3hhOwkJCTx0aXRsZSBpZD0idGl0bGU5ODI0NCI+U2hlZXQuNTE4NzwvdGl0bGU+JiN4YTsJCQk8cGF0aCBpZD0icGF0aDk4MjQ2IiBpbmtzY2FwZTpjb25uZWN0b3ItY3VydmF0dXJlPSIwIiBzdHlsZT0iZmlsbDojRkZGRkZGOyIgZD0iTTExLjAyLDQzLjVIMHY2Ljc0aDcuODFsMy4yMS0zLjZWNDMuNXoiLz4mI3hhOwkJPC9nPiYjeGE7CQk8ZyBpZD0ic2hhcGU1MTg4LTQ2IiB0cmFuc2Zvcm09InRyYW5zbGF0ZSgxNy4xNDA3LC0zMC42MzQ4KSI+JiN4YTsJCQk8dGl0bGUgaWQ9InRpdGxlOTgyNDkiPlNoZWV0LjUxODg8L3RpdGxlPiYjeGE7CQkJPHBhdGggaWQ9InBhdGg5ODI1MSIgaW5rc2NhcGU6Y29ubmVjdG9yLWN1cnZhdHVyZT0iMCIgc3R5bGU9ImZpbGw6I0ZGRkZGRjsiIGQ9Ik0wLDQzLjV2Ni43NGgxMS4wMlY0My41SDB6Ii8+JiN4YTsJCTwvZz4mI3hhOwkJPGcgaWQ9InNoYXBlNTE4OS00OCIgdHJhbnNmb3JtPSJ0cmFuc2xhdGUoMTcuMTQwNywtMTMuNDc5MykiPiYjeGE7CQkJPHRpdGxlIGlkPSJ0aXRsZTk4MjU0Ij5TaGVldC41MTg5PC90aXRsZT4mI3hhOwkJCTxwYXRoIGlkPSJwYXRoOTgyNTYiIGlua3NjYXBlOmNvbm5lY3Rvci1jdXJ2YXR1cmU9IjAiIHN0eWxlPSJmaWxsOiM5OUNDNTM7IiBkPSJNNi4xMiw0NC4xMUgwdjYuMTNMNi4xMiw0NC4xMXoiLz4mI3hhOwkJPC9nPiYjeGE7CQk8ZyBpZD0ic2hhcGU1MTkwLTUwIiB0cmFuc2Zvcm09InRyYW5zbGF0ZSgzMC42MDg0LC0yNy41NzE0KSI+JiN4YTsJCQk8dGl0bGUgaWQ9InRpdGxlOTgyNTkiPlNoZWV0LjUxOTA8L3RpdGxlPiYjeGE7CQkJPHBhdGggaWQ9InBhdGg5ODI2MSIgaW5rc2NhcGU6Y29ubmVjdG9yLWN1cnZhdHVyZT0iMCIgc3R5bGU9ImZpbGw6I0ZGRkZGRjsiIGQ9Ik0wLjYxLDQ5LjAySDB2MS4yMkwwLjYxLDQ5LjAyeiIvPiYjeGE7CQk8L2c+JiN4YTsJCTxnIGlkPSJzaGFwZTUxOTEtNTIiIHRyYW5zZm9ybT0idHJhbnNsYXRlKDMwLjYwODQsLTMwLjYzNDgpIj4mI3hhOwkJCTx0aXRsZSBpZD0idGl0bGU5ODI2NCI+U2hlZXQuNTE5MTwvdGl0bGU+JiN4YTsJCQk8cGF0aCBpZD0icGF0aDk4MjY2IiBpbmtzY2FwZTpjb25uZWN0b3ItY3VydmF0dXJlPSIwIiBzdHlsZT0iZmlsbDojRkZGRkZGOyIgZD0iTTguNTcsNDMuNUgwdjYuNzRoMi42NEw4LjU3LDQzLjV6Ii8+JiN4YTsJCTwvZz4mI3hhOwkJPGcgaWQ9InNoYXBlNTE5Mi01NCIgdHJhbnNmb3JtPSJ0cmFuc2xhdGUoNC4yODUxNywtMzAuNjM0OCkiPiYjeGE7CQkJPHRpdGxlIGlkPSJ0aXRsZTk4MjY5Ij5TaGVldC41MTkyPC90aXRsZT4mI3hhOwkJCTxwYXRoIGlkPSJwYXRoOTgyNzEiIGlua3NjYXBlOmNvbm5lY3Rvci1jdXJ2YXR1cmU9IjAiIHN0eWxlPSJmaWxsOiNGRkZGRkY7IiBkPSJNMCw0My41djYuNzRoMTEuMDJWNDMuNUgweiIvPiYjeGE7CQk8L2c+JiN4YTsJCTxnIGlkPSJzaGFwZTUxOTMtNTYiIHRyYW5zZm9ybT0idHJhbnNsYXRlKDQuMjg1MTcsLTIyLjA1NzEpIj4mI3hhOwkJCTx0aXRsZSBpZD0idGl0bGU5ODI3NCI+U2hlZXQuNTE5MzwvdGl0bGU+JiN4YTsJCQk8cGF0aCBpZD0icGF0aDk4Mjc2IiBpbmtzY2FwZTpjb25uZWN0b3ItY3VydmF0dXJlPSIwIiBzdHlsZT0iZmlsbDojRkZGRkZGOyIgZD0iTTAsNDMuNXY2Ljc0aDExLjAyVjQzLjVIMHoiLz4mI3hhOwkJPC9nPiYjeGE7CQk8ZyBpZD0ic2hhcGU1MTk0LTU4IiB0cmFuc2Zvcm09InRyYW5zbGF0ZSg0LjI4NTE3LC0xMy40NzkzKSI+JiN4YTsJCQk8dGl0bGUgaWQ9InRpdGxlOTgyNzkiPlNoZWV0LjUxOTQ8L3RpdGxlPiYjeGE7CQkJPHBhdGggaWQ9InBhdGg5ODI4MSIgaW5rc2NhcGU6Y29ubmVjdG9yLWN1cnZhdHVyZT0iMCIgc3R5bGU9ImZpbGw6Izk5Q0M1MzsiIGQ9Ik0wLDQ0LjExdjYuMTNoMTEuMDJ2LTYuMTNIMHoiLz4mI3hhOwkJPC9nPiYjeGE7CQk8ZyBpZD0ic2hhcGU1MTk1LTYwIiB0cmFuc2Zvcm09InRyYW5zbGF0ZSg0LjI4NTE3LC00LjI4ODg4KSI+JiN4YTsJCQk8dGl0bGUgaWQ9InRpdGxlOTgyODQiPlNoZWV0LjUxOTU8L3RpdGxlPiYjeGE7CQkJPHBhdGggaWQ9InBhdGg5ODI4NiIgaW5rc2NhcGU6Y29ubmVjdG9yLWN1cnZhdHVyZT0iMCIgc3R5bGU9ImZpbGw6Izk5Q0M1MzsiIGQ9Ik0xMC40MSw0My41SDB2Ni43NGg0LjUxTDEwLjQxLDQzLjV6Ii8+JiN4YTsJCTwvZz4mI3hhOwk8L2c+JiN4YTs8L2c+JiN4YTs8L3N2Zz4=;strokeColor=#788AA3;fontColor=#46495D;fillColor=#B2C9AB;" parent="1" vertex="1">
          <mxGeometry x="460" y="629.5" width="59" height="50" as="geometry" />
        </mxCell>
        <mxCell id="JlcOlSUOv72aKDt4cfFE-19" value="&lt;b style=&quot;font-size: 20px;&quot;&gt;ELSAN / PSS&lt;/b&gt;" style="text;html=1;align=center;verticalAlign=middle;resizable=0;points=[];autosize=1;strokeColor=none;fillColor=none;fontColor=#46495D;" parent="1" vertex="1">
          <mxGeometry x="-1890" y="400" width="150" height="40" as="geometry" />
        </mxCell>
        <mxCell id="JlcOlSUOv72aKDt4cfFE-21" style="edgeStyle=orthogonalEdgeStyle;rounded=0;orthogonalLoop=1;jettySize=auto;html=1;exitX=0.5;exitY=1;exitDx=0;exitDy=0;strokeColor=#788AA3;fontColor=#46495D;fillColor=#B2C9AB;" parent="1" source="JlcOlSUOv72aKDt4cfFE-20" target="JlcOlSUOv72aKDt4cfFE-20" edge="1">
          <mxGeometry relative="1" as="geometry" />
        </mxCell>
        <mxCell id="JlcOlSUOv72aKDt4cfFE-29" value="&lt;b style=&quot;font-size: 20px;&quot;&gt;MICROSOFT AZURE ECOSYSTEM&lt;/b&gt;" style="text;html=1;align=center;verticalAlign=middle;resizable=0;points=[];autosize=1;strokeColor=none;fillColor=none;fontColor=#46495D;" parent="1" vertex="1">
          <mxGeometry x="-60" y="474.5" width="350" height="40" as="geometry" />
        </mxCell>
        <mxCell id="JlcOlSUOv72aKDt4cfFE-38" value="" style="group" parent="1" vertex="1" connectable="0">
          <mxGeometry x="-1130" y="881" width="530" height="290" as="geometry" />
        </mxCell>
        <mxCell id="JlcOlSUOv72aKDt4cfFE-33" value="" style="rounded=0;whiteSpace=wrap;html=1;fillColor=#fff2cc;strokeColor=#d6b656;labelBackgroundColor=none;" parent="JlcOlSUOv72aKDt4cfFE-38" vertex="1">
          <mxGeometry y="-10" width="530" height="300" as="geometry" />
        </mxCell>
        <mxCell id="JlcOlSUOv72aKDt4cfFE-34" value="&lt;span style=&quot;font-size: 20px;&quot;&gt;&lt;b&gt;SFTP&lt;/b&gt;&lt;/span&gt;" style="text;html=1;align=center;verticalAlign=middle;resizable=0;points=[];autosize=1;strokeColor=none;fillColor=none;fontColor=#46495D;" parent="JlcOlSUOv72aKDt4cfFE-38" vertex="1">
          <mxGeometry y="-10.00171974522293" width="70" height="40" as="geometry" />
        </mxCell>
        <mxCell id="JlcOlSUOv72aKDt4cfFE-35" value="" style="shape=image;verticalLabelPosition=bottom;labelBackgroundColor=#ffffff;verticalAlign=top;aspect=fixed;imageAspect=0;image=data:image/svg+xml,PHN2ZyB4bWxuczpjYz0iaHR0cDovL2NyZWF0aXZlY29tbW9ucy5vcmcvbnMjIiB4bWxuczpkYz0iaHR0cDovL3B1cmwub3JnL2RjL2VsZW1lbnRzLzEuMS8iIHhtbG5zOmlua3NjYXBlPSJodHRwOi8vd3d3Lmlua3NjYXBlLm9yZy9uYW1lc3BhY2VzL2lua3NjYXBlIiB4bWxuczpyZGY9Imh0dHA6Ly93d3cudzMub3JnLzE5OTkvMDIvMjItcmRmLXN5bnRheC1ucyMiIHhtbG5zOnNvZGlwb2RpPSJodHRwOi8vc29kaXBvZGkuc291cmNlZm9yZ2UubmV0L0RURC9zb2RpcG9kaS0wLmR0ZCIgeG1sbnM6c3ZnPSJodHRwOi8vd3d3LnczLm9yZy8yMDAwL3N2ZyIgeG1sbnM9Imh0dHA6Ly93d3cudzMub3JnLzIwMDAvc3ZnIiB4bWxuczp4bGluaz0iaHR0cDovL3d3dy53My5vcmcvMTk5OS94bGluayIgdmVyc2lvbj0iMS4xIiBpZD0ic3ZnMzg5ODYiIGlua3NjYXBlOnZlcnNpb249IjAuOTIuMyAoMjQwNTU0NiwgMjAxOC0wMy0xMSkiIHNvZGlwb2RpOmRvY25hbWU9ImNzdl8xLnN2ZyIgeD0iMHB4IiB5PSIwcHgiIHZpZXdCb3g9IjAgMCAzMS44OCAzNi40NCIgc3R5bGU9ImVuYWJsZS1iYWNrZ3JvdW5kOm5ldyAwIDAgMzEuODggMzYuNDQ7IiB4bWw6c3BhY2U9InByZXNlcnZlIj4mI3hhOzxzb2RpcG9kaTpuYW1lZHZpZXcgYm9yZGVyY29sb3I9IiM2NjY2NjYiIGJvcmRlcm9wYWNpdHk9IjEiIGZpdC1tYXJnaW4tYm90dG9tPSIwIiBmaXQtbWFyZ2luLWxlZnQ9IjAiIGZpdC1tYXJnaW4tcmlnaHQ9IjAiIGZpdC1tYXJnaW4tdG9wPSIwIiBncmlkdG9sZXJhbmNlPSIxMCIgZ3VpZGV0b2xlcmFuY2U9IjEwIiBpZD0ibmFtZWR2aWV3Mzg5ODgiIGlua3NjYXBlOmN1cnJlbnQtbGF5ZXI9InN2ZzM4OTg2IiBpbmtzY2FwZTpjeD0iMTguNjk5MDk5IiBpbmtzY2FwZTpjeT0iMjMuOTk3OTYxIiBpbmtzY2FwZTpwYWdlb3BhY2l0eT0iMCIgaW5rc2NhcGU6cGFnZXNoYWRvdz0iMiIgaW5rc2NhcGU6d2luZG93LWhlaWdodD0iMTAxNyIgaW5rc2NhcGU6d2luZG93LW1heGltaXplZD0iMSIgaW5rc2NhcGU6d2luZG93LXdpZHRoPSIxOTIwIiBpbmtzY2FwZTp3aW5kb3cteD0iLTgiIGlua3NjYXBlOndpbmRvdy15PSItOCIgaW5rc2NhcGU6em9vbT0iMTYuNTYxNzExIiBvYmplY3R0b2xlcmFuY2U9IjEwIiBwYWdlY29sb3I9IiNmZmZmZmYiIHNob3dncmlkPSJmYWxzZSI+JiN4YTsJPC9zb2RpcG9kaTpuYW1lZHZpZXc+JiN4YTs8ZyBpZD0iZzM4OTg0IiB0cmFuc2Zvcm09InRyYW5zbGF0ZSgtNS4wMjg1NywtMS4xOTIyMTMpIj4mI3hhOwk8dGl0bGUgaWQ9InRpdGxlMzg5MzMiPlBhZ2UtMTwvdGl0bGU+JiN4YTsJPGcgaWQ9Imdyb3VwNDAyNi0xIiB0cmFuc2Zvcm09InRyYW5zbGF0ZSg1LjAyODU3LC0xLjYzMDQyKSI+JiN4YTsJCTx0aXRsZSBpZD0idGl0bGUzODkzNSI+Q1NWICMxPC90aXRsZT4mI3hhOwkJPGcgaWQ9Imdyb3VwNDAyNy0yIj4mI3hhOwkJCTx0aXRsZSBpZD0idGl0bGUzODkzNyI+RE9DICMxLjM2NzU4PC90aXRsZT4mI3hhOwkJCTxnIGlkPSJzaGFwZTQwMjgtMyIgdHJhbnNmb3JtPSJ0cmFuc2xhdGUoNC41NTQ1NikiPiYjeGE7CQkJCTx0aXRsZSBpZD0idGl0bGUzODkzOSI+U2hlZXQuNDAyODwvdGl0bGU+JiN4YTsJCQkJPHBhdGggaWQ9InBhdGgzODk0MSIgaW5rc2NhcGU6Y29ubmVjdG9yLWN1cnZhdHVyZT0iMCIgc3R5bGU9ImZpbGw6I0UyRTVFNzsiIGQ9Ik0yLjI4LDIuODNDMS4wMiwyLjgzLDAsMy44NSwwLDUuMXYzMS44OCAgICAgIGMwLDEuMjYsMS4wMiwyLjI4LDIuMjgsMi4yOGgyMi43N2MxLjI1LDAsMi4yOC0xLjAyLDIuMjgtMi4yOFYxMS45M2wtOS4xMS05LjFIMi4yOHoiLz4mI3hhOwkJCTwvZz4mI3hhOwkJCTxnIGlkPSJzaGFwZTQwMjktNSIgdHJhbnNmb3JtPSJ0cmFuc2xhdGUoMjIuNzcyOCwtMjcuMzI3NCkiPiYjeGE7CQkJCTx0aXRsZSBpZD0idGl0bGUzODk0NCI+U2hlZXQuNDAyOTwvdGl0bGU+JiN4YTsJCQkJPHBhdGggaWQ9InBhdGgzODk0NiIgaW5rc2NhcGU6Y29ubmVjdG9yLWN1cnZhdHVyZT0iMCIgc3R5bGU9ImZpbGw6I0IwQjdCRDsiIGQ9Ik0yLjI4LDM5LjI2aDYuODNMMCwzMC4xNXY2LjgzICAgICAgQzAsMzguMjQsMS4wMiwzOS4yNiwyLjI4LDM5LjI2eiIvPiYjeGE7CQkJPC9nPiYjeGE7CQkJPGcgaWQ9InNoYXBlNDAzMC03IiB0cmFuc2Zvcm09InRyYW5zbGF0ZSgyNS4wNTAxLC0yMC40OTU1KSI+JiN4YTsJCQkJPHRpdGxlIGlkPSJ0aXRsZTM4OTQ5Ij5TaGVldC40MDMwPC90aXRsZT4mI3hhOwkJCQk8cGF0aCBpZD0icGF0aDM4OTUxIiBpbmtzY2FwZTpjb25uZWN0b3ItY3VydmF0dXJlPSIwIiBzdHlsZT0iZmlsbDojQ0FEMUQ4OyIgZD0iTTYuODMsMzkuMjZMMCwzMi40M2g2LjgzVjM5LjI2eiIvPiYjeGE7CQkJPC9nPiYjeGE7CQkJPGcgaWQ9InNoYXBlNDAzMS05IiB0cmFuc2Zvcm09InRyYW5zbGF0ZSgwLC01LjY5MzIpIj4mI3hhOwkJCQk8dGl0bGUgaWQ9InRpdGxlMzg5NTQiPlNoZWV0LjQwMzE8L3RpdGxlPiYjeGE7CQkJCTxwYXRoIGlkPSJwYXRoMzg5NTYiIGlua3NjYXBlOmNvbm5lY3Rvci1jdXJ2YXR1cmU9IjAiIHN0eWxlPSJmaWxsOiNGMzBCQTA7IiBkPSJNMjcuMzMsMzguMTJjMCwwLjYzLTAuNTIsMS4xNC0xLjE0LDEuMTRIMS4xNCAgICAgIEMwLjUxLDM5LjI2LDAsMzguNzUsMCwzOC4xMlYyNi43NGMwLTAuNjMsMC41MS0xLjE0LDEuMTQtMS4xNGgyNS4wNWMwLjYyLDAsMS4xNCwwLjUxLDEuMTQsMS4xNEwyNy4zMywzOC4xMnoiLz4mI3hhOwkJCTwvZz4mI3hhOwkJCTxnIGlkPSJzaGFwZTQwMzItMTEiIHRyYW5zZm9ybT0idHJhbnNsYXRlKDQuNTU0NTYsLTQuNTU0NTYpIj4mI3hhOwkJCQk8dGl0bGUgaWQ9InRpdGxlMzg5NTkiPlNoZWV0LjQwMzI8L3RpdGxlPiYjeGE7CQkJCTxwYXRoIGlkPSJwYXRoMzg5NjEiIGlua3NjYXBlOmNvbm5lY3Rvci1jdXJ2YXR1cmU9IjAiIHN0eWxlPSJmaWxsOiNDQUQxRDg7IiBkPSJNMjEuNjMsMzguMTJIMHYxLjE0aDIxLjYzICAgICAgYzAuNjMsMCwxLjE0LTAuNTEsMS4xNC0xLjE0di0xLjE0QzIyLjc3LDM3LjYxLDIyLjI2LDM4LjEyLDIxLjYzLDM4LjEyeiIvPiYjeGE7CQkJPC9nPiYjeGE7CQk8L2c+JiN4YTsJCTxnIGlkPSJncm91cDQwMzMtMTMiIHRyYW5zZm9ybT0idHJhbnNsYXRlKDUuOSwtOS4yOTgxNikiPiYjeGE7CQkJPHRpdGxlIGlkPSJ0aXRsZTM4OTY1Ij5DU1YuMzY3NzA8L3RpdGxlPiYjeGE7CQkJPGcgaWQ9InNoYXBlNDAzNC0xNCI+JiN4YTsJCQkJPHRpdGxlIGlkPSJ0aXRsZTM4OTY3Ij5TaGVldC40MDM0PC90aXRsZT4mI3hhOwkJCQk8cGF0aCBpZD0icGF0aDM4OTY5IiBpbmtzY2FwZTpjb25uZWN0b3ItY3VydmF0dXJlPSIwIiBzdHlsZT0iZmlsbDojRkZGRkZGOyIgZD0iTTQuMzcsMzguNTdjLTAuMjMsMC4yMy0wLjUsMC40MS0wLjc5LDAuNTIgICAgICBjLTAuMywwLjEyLTAuNjIsMC4xNy0wLjk2LDAuMTdjLTAuMzgsMC0wLjcyLTAuMDctMS4wNC0wLjJjLTAuMzEtMC4xNC0wLjU5LTAuMzUtMC44Mi0wLjYyYy0wLjI0LTAuMjctMC40My0wLjYxLTAuNTYtMS4wMSAgICAgIEMwLjA3LDM3LjAyLDAsMzYuNTUsMCwzNi4wMWMwLTAuNTMsMC4wNy0xLDAuMi0xLjQxYzAuMTMtMC40LDAuMzItMC43NCwwLjU2LTEuMDFjMC4yMy0wLjI3LDAuNTEtMC40OCwwLjgzLTAuNjIgICAgICBzMC42Ni0wLjIxLDEuMDMtMC4yMWMwLjM0LDAsMC42NiwwLjA2LDAuOTYsMC4xN2MwLjI5LDAuMTIsMC41NiwwLjI5LDAuNzksMC41MmwtMC43MSwwLjY0Yy0wLjE0LTAuMTctMC4zLTAuMjktMC40Ny0wLjM2ICAgICAgYy0wLjE4LTAuMDgtMC4zNi0wLjEyLTAuNTQtMC4xMmMtMC4yMiwwLTAuNDIsMC4wNC0wLjYxLDAuMTJjLTAuMTksMC4wOS0wLjM2LDAuMjItMC41MSwwLjQxYy0wLjE1LDAuMi0wLjI3LDAuNDQtMC4zNSwwLjc1ICAgICAgYy0wLjA5LDAuMzEtMC4xMywwLjY4LTAuMTQsMS4xMmMwLjAxLDAuNDMsMC4wNSwwLjgsMC4xMywxLjFjMC4wOSwwLjMxLDAuMiwwLjU2LDAuMzQsMC43NWMwLjE1LDAuMTksMC4zMSwwLjMzLDAuNSwwLjQyICAgICAgYzAuMTgsMC4wOSwwLjM4LDAuMTQsMC41OCwwLjE0YzAuMjEsMCwwLjQtMC4wNCwwLjU4LTAuMTJjMC4xOC0wLjA3LDAuMzQtMC4xOSwwLjQ5LTAuMzZMNC4zNywzOC41N3oiLz4mI3hhOwkJCTwvZz4mI3hhOwkJCTxnIGlkPSJzaGFwZTQwMzUtMTYiIHRyYW5zZm9ybT0idHJhbnNsYXRlKDUuNzQzMzYsLTAuMDA4ODMwMjcpIj4mI3hhOwkJCQk8dGl0bGUgaWQ9InRpdGxlMzg5NzIiPlNoZWV0LjQwMzU8L3RpdGxlPiYjeGE7CQkJCTxwYXRoIGlkPSJwYXRoMzg5NzQiIGlua3NjYXBlOmNvbm5lY3Rvci1jdXJ2YXR1cmU9IjAiIHN0eWxlPSJmaWxsOiNGRkZGRkY7IiBkPSJNMy42NSwzNy40OWMwLDAuMjMtMC4wNCwwLjQ1LTAuMTQsMC42NiAgICAgIGMtMC4wOSwwLjIyLTAuMjIsMC40MS0wLjM5LDAuNTdjLTAuMTcsMC4xNy0wLjM5LDAuMy0wLjY0LDAuNGMtMC4yNSwwLjA5LTAuNTMsMC4xNC0wLjg1LDAuMTRjLTAuMTQsMC0wLjI4LTAuMDEtMC40Mi0wLjAyICAgICAgYy0wLjE1LTAuMDEtMC4yOS0wLjA0LTAuNDQtMC4wN2MtMC4xNS0wLjA0LTAuMjktMC4wOC0wLjQyLTAuMTRDMC4yMSwzOC45NiwwLjEsMzguODksMCwzOC44bDAuMTgtMC43NCAgICAgIGMwLjA4LDAuMDUsMC4xOCwwLjA5LDAuMywwLjE0YzAuMTIsMC4wNCwwLjI1LDAuMDgsMC4zOCwwLjEyYzAuMTMsMC4wNCwwLjI2LDAuMDYsMC4zOSwwLjA5YzAuMTMsMC4wMiwwLjI2LDAuMDMsMC4zNywwLjAzICAgICAgYzAuMzUsMCwwLjYxLTAuMDgsMC44LTAuMjRjMC4xOC0wLjE3LDAuMjgtMC40MSwwLjI4LTAuNzNjMC0wLjItMC4wNy0wLjM2LTAuMi0wLjVzLTAuMjktMC4yNi0wLjQ5LTAuMzggICAgICBjLTAuMi0wLjExLTAuNDEtMC4yMi0wLjY0LTAuMzNjLTAuMjItMC4xMi0wLjQ0LTAuMjUtMC42NC0wLjRjLTAuMi0wLjE1LTAuMzYtMC4zMy0wLjQ5LTAuNTRzLTAuMi0wLjQ2LTAuMi0wLjc3ICAgICAgYzAtMC4yOSwwLjA1LTAuNTQsMC4xNi0wLjc1YzAuMS0wLjIyLDAuMjQtMC40MSwwLjQxLTAuNTZzMC4zOC0wLjI3LDAuNjEtMC4zNWMwLjIzLTAuMDgsMC40Ny0wLjEyLDAuNzMtMC4xMiAgICAgIHMwLjUyLDAuMDIsMC43OSwwLjA3czAuNDgsMC4xMywwLjY1LDAuMjRjLTAuMDQsMC4wNy0wLjA4LDAuMTYtMC4xMiwwLjI1Yy0wLjA1LDAuMDktMC4wOSwwLjE3LTAuMTMsMC4yNSAgICAgIGMtMC4wNCwwLjA3LTAuMDcsMC4xNC0wLjEsMC4xOXMtMC4wNSwwLjA4LTAuMDUsMC4wOWMtMC4wNC0wLjAyLTAuMDctMC4wNC0wLjEyLTAuMDdjLTAuMDQtMC4wMy0wLjEtMC4wNi0wLjE4LTAuMDkgICAgICBjLTAuMDgtMC4wMy0wLjE5LTAuMDUtMC4zMi0wLjA2Yy0wLjEzLTAuMDEtMC4zLTAuMDEtMC41LDAuMDFjLTAuMTIsMC4wMS0wLjIyLDAuMDQtMC4zMywwLjFjLTAuMSwwLjA1LTAuMTksMC4xMi0wLjI3LDAuMiAgICAgIHMtMC4xNCwwLjE3LTAuMTksMC4yN2MtMC4wNCwwLjEtMC4wNywwLjItMC4wNywwLjI5YzAsMC4yMywwLjA3LDAuNDIsMC4yLDAuNTZjMC4xMywwLjE0LDAuMjksMC4yNiwwLjQ5LDAuMzcgICAgICBjMC4xOSwwLjExLDAuNCwwLjIxLDAuNjMsMC4zMWMwLjIzLDAuMSwwLjQ0LDAuMjIsMC42NCwwLjM3YzAuMTksMC4xNCwwLjM1LDAuMzIsMC40OSwwLjUzQzMuNTksMzYuODcsMy42NSwzNy4xNSwzLjY1LDM3LjQ5eiIvPiYjeGE7CQkJPC9nPiYjeGE7CQkJPGcgaWQ9InNoYXBlNDAzNi0xOCIgdHJhbnNmb3JtPSJ0cmFuc2xhdGUoMTAuMTkxMiwtMC4wMDgxOTk1MykiPiYjeGE7CQkJCTx0aXRsZSBpZD0idGl0bGUzODk3NyI+U2hlZXQuNDAzNjwvdGl0bGU+JiN4YTsJCQkJPHBhdGggaWQ9InBhdGgzODk3OSIgaW5rc2NhcGU6Y29ubmVjdG9yLWN1cnZhdHVyZT0iMCIgc3R5bGU9ImZpbGw6I0ZGRkZGRjsiIGQ9Ik0xLjk1LDM5LjI2TDAsMzIuODdoMS4xN2wxLjQ2LDUuNDlsMS41NC01LjQ5ICAgICAgaDEuMTdsLTIuMDUsNi4zOUwxLjk1LDM5LjI2eiIvPiYjeGE7CQkJPC9nPiYjeGE7CQk8L2c+JiN4YTsJPC9nPiYjeGE7PC9nPiYjeGE7PC9zdmc+;strokeColor=#788AA3;fontColor=#46495D;fillColor=#B2C9AB;" parent="JlcOlSUOv72aKDt4cfFE-38" vertex="1">
          <mxGeometry x="80.00307692307693" y="49.998089171974534" width="67.56" height="76" as="geometry" />
        </mxCell>
        <mxCell id="JlcOlSUOv72aKDt4cfFE-36" value="" style="shape=image;verticalLabelPosition=bottom;labelBackgroundColor=#ffffff;verticalAlign=top;aspect=fixed;imageAspect=0;image=data:image/svg+xml,PHN2ZyB4bWxuczpjYz0iaHR0cDovL2NyZWF0aXZlY29tbW9ucy5vcmcvbnMjIiB4bWxuczpkYz0iaHR0cDovL3B1cmwub3JnL2RjL2VsZW1lbnRzLzEuMS8iIHhtbG5zOmlua3NjYXBlPSJodHRwOi8vd3d3Lmlua3NjYXBlLm9yZy9uYW1lc3BhY2VzL2lua3NjYXBlIiB4bWxuczpyZGY9Imh0dHA6Ly93d3cudzMub3JnLzE5OTkvMDIvMjItcmRmLXN5bnRheC1ucyMiIHhtbG5zOnNvZGlwb2RpPSJodHRwOi8vc29kaXBvZGkuc291cmNlZm9yZ2UubmV0L0RURC9zb2RpcG9kaS0wLmR0ZCIgeG1sbnM6c3ZnPSJodHRwOi8vd3d3LnczLm9yZy8yMDAwL3N2ZyIgeG1sbnM9Imh0dHA6Ly93d3cudzMub3JnLzIwMDAvc3ZnIiB4bWxuczp4bGluaz0iaHR0cDovL3d3dy53My5vcmcvMTk5OS94bGluayIgdmVyc2lvbj0iMS4xIiBpZD0ic3ZnMzg5ODYiIGlua3NjYXBlOnZlcnNpb249IjAuOTIuMyAoMjQwNTU0NiwgMjAxOC0wMy0xMSkiIHNvZGlwb2RpOmRvY25hbWU9ImNzdl8xLnN2ZyIgeD0iMHB4IiB5PSIwcHgiIHZpZXdCb3g9IjAgMCAzMS44OCAzNi40NCIgc3R5bGU9ImVuYWJsZS1iYWNrZ3JvdW5kOm5ldyAwIDAgMzEuODggMzYuNDQ7IiB4bWw6c3BhY2U9InByZXNlcnZlIj4mI3hhOzxzb2RpcG9kaTpuYW1lZHZpZXcgYm9yZGVyY29sb3I9IiM2NjY2NjYiIGJvcmRlcm9wYWNpdHk9IjEiIGZpdC1tYXJnaW4tYm90dG9tPSIwIiBmaXQtbWFyZ2luLWxlZnQ9IjAiIGZpdC1tYXJnaW4tcmlnaHQ9IjAiIGZpdC1tYXJnaW4tdG9wPSIwIiBncmlkdG9sZXJhbmNlPSIxMCIgZ3VpZGV0b2xlcmFuY2U9IjEwIiBpZD0ibmFtZWR2aWV3Mzg5ODgiIGlua3NjYXBlOmN1cnJlbnQtbGF5ZXI9InN2ZzM4OTg2IiBpbmtzY2FwZTpjeD0iMTguNjk5MDk5IiBpbmtzY2FwZTpjeT0iMjMuOTk3OTYxIiBpbmtzY2FwZTpwYWdlb3BhY2l0eT0iMCIgaW5rc2NhcGU6cGFnZXNoYWRvdz0iMiIgaW5rc2NhcGU6d2luZG93LWhlaWdodD0iMTAxNyIgaW5rc2NhcGU6d2luZG93LW1heGltaXplZD0iMSIgaW5rc2NhcGU6d2luZG93LXdpZHRoPSIxOTIwIiBpbmtzY2FwZTp3aW5kb3cteD0iLTgiIGlua3NjYXBlOndpbmRvdy15PSItOCIgaW5rc2NhcGU6em9vbT0iMTYuNTYxNzExIiBvYmplY3R0b2xlcmFuY2U9IjEwIiBwYWdlY29sb3I9IiNmZmZmZmYiIHNob3dncmlkPSJmYWxzZSI+JiN4YTsJPC9zb2RpcG9kaTpuYW1lZHZpZXc+JiN4YTs8ZyBpZD0iZzM4OTg0IiB0cmFuc2Zvcm09InRyYW5zbGF0ZSgtNS4wMjg1NywtMS4xOTIyMTMpIj4mI3hhOwk8dGl0bGUgaWQ9InRpdGxlMzg5MzMiPlBhZ2UtMTwvdGl0bGU+JiN4YTsJPGcgaWQ9Imdyb3VwNDAyNi0xIiB0cmFuc2Zvcm09InRyYW5zbGF0ZSg1LjAyODU3LC0xLjYzMDQyKSI+JiN4YTsJCTx0aXRsZSBpZD0idGl0bGUzODkzNSI+Q1NWICMxPC90aXRsZT4mI3hhOwkJPGcgaWQ9Imdyb3VwNDAyNy0yIj4mI3hhOwkJCTx0aXRsZSBpZD0idGl0bGUzODkzNyI+RE9DICMxLjM2NzU4PC90aXRsZT4mI3hhOwkJCTxnIGlkPSJzaGFwZTQwMjgtMyIgdHJhbnNmb3JtPSJ0cmFuc2xhdGUoNC41NTQ1NikiPiYjeGE7CQkJCTx0aXRsZSBpZD0idGl0bGUzODkzOSI+U2hlZXQuNDAyODwvdGl0bGU+JiN4YTsJCQkJPHBhdGggaWQ9InBhdGgzODk0MSIgaW5rc2NhcGU6Y29ubmVjdG9yLWN1cnZhdHVyZT0iMCIgc3R5bGU9ImZpbGw6I0UyRTVFNzsiIGQ9Ik0yLjI4LDIuODNDMS4wMiwyLjgzLDAsMy44NSwwLDUuMXYzMS44OCAgICAgIGMwLDEuMjYsMS4wMiwyLjI4LDIuMjgsMi4yOGgyMi43N2MxLjI1LDAsMi4yOC0xLjAyLDIuMjgtMi4yOFYxMS45M2wtOS4xMS05LjFIMi4yOHoiLz4mI3hhOwkJCTwvZz4mI3hhOwkJCTxnIGlkPSJzaGFwZTQwMjktNSIgdHJhbnNmb3JtPSJ0cmFuc2xhdGUoMjIuNzcyOCwtMjcuMzI3NCkiPiYjeGE7CQkJCTx0aXRsZSBpZD0idGl0bGUzODk0NCI+U2hlZXQuNDAyOTwvdGl0bGU+JiN4YTsJCQkJPHBhdGggaWQ9InBhdGgzODk0NiIgaW5rc2NhcGU6Y29ubmVjdG9yLWN1cnZhdHVyZT0iMCIgc3R5bGU9ImZpbGw6I0IwQjdCRDsiIGQ9Ik0yLjI4LDM5LjI2aDYuODNMMCwzMC4xNXY2LjgzICAgICAgQzAsMzguMjQsMS4wMiwzOS4yNiwyLjI4LDM5LjI2eiIvPiYjeGE7CQkJPC9nPiYjeGE7CQkJPGcgaWQ9InNoYXBlNDAzMC03IiB0cmFuc2Zvcm09InRyYW5zbGF0ZSgyNS4wNTAxLC0yMC40OTU1KSI+JiN4YTsJCQkJPHRpdGxlIGlkPSJ0aXRsZTM4OTQ5Ij5TaGVldC40MDMwPC90aXRsZT4mI3hhOwkJCQk8cGF0aCBpZD0icGF0aDM4OTUxIiBpbmtzY2FwZTpjb25uZWN0b3ItY3VydmF0dXJlPSIwIiBzdHlsZT0iZmlsbDojQ0FEMUQ4OyIgZD0iTTYuODMsMzkuMjZMMCwzMi40M2g2LjgzVjM5LjI2eiIvPiYjeGE7CQkJPC9nPiYjeGE7CQkJPGcgaWQ9InNoYXBlNDAzMS05IiB0cmFuc2Zvcm09InRyYW5zbGF0ZSgwLC01LjY5MzIpIj4mI3hhOwkJCQk8dGl0bGUgaWQ9InRpdGxlMzg5NTQiPlNoZWV0LjQwMzE8L3RpdGxlPiYjeGE7CQkJCTxwYXRoIGlkPSJwYXRoMzg5NTYiIGlua3NjYXBlOmNvbm5lY3Rvci1jdXJ2YXR1cmU9IjAiIHN0eWxlPSJmaWxsOiNGMzBCQTA7IiBkPSJNMjcuMzMsMzguMTJjMCwwLjYzLTAuNTIsMS4xNC0xLjE0LDEuMTRIMS4xNCAgICAgIEMwLjUxLDM5LjI2LDAsMzguNzUsMCwzOC4xMlYyNi43NGMwLTAuNjMsMC41MS0xLjE0LDEuMTQtMS4xNGgyNS4wNWMwLjYyLDAsMS4xNCwwLjUxLDEuMTQsMS4xNEwyNy4zMywzOC4xMnoiLz4mI3hhOwkJCTwvZz4mI3hhOwkJCTxnIGlkPSJzaGFwZTQwMzItMTEiIHRyYW5zZm9ybT0idHJhbnNsYXRlKDQuNTU0NTYsLTQuNTU0NTYpIj4mI3hhOwkJCQk8dGl0bGUgaWQ9InRpdGxlMzg5NTkiPlNoZWV0LjQwMzI8L3RpdGxlPiYjeGE7CQkJCTxwYXRoIGlkPSJwYXRoMzg5NjEiIGlua3NjYXBlOmNvbm5lY3Rvci1jdXJ2YXR1cmU9IjAiIHN0eWxlPSJmaWxsOiNDQUQxRDg7IiBkPSJNMjEuNjMsMzguMTJIMHYxLjE0aDIxLjYzICAgICAgYzAuNjMsMCwxLjE0LTAuNTEsMS4xNC0xLjE0di0xLjE0QzIyLjc3LDM3LjYxLDIyLjI2LDM4LjEyLDIxLjYzLDM4LjEyeiIvPiYjeGE7CQkJPC9nPiYjeGE7CQk8L2c+JiN4YTsJCTxnIGlkPSJncm91cDQwMzMtMTMiIHRyYW5zZm9ybT0idHJhbnNsYXRlKDUuOSwtOS4yOTgxNikiPiYjeGE7CQkJPHRpdGxlIGlkPSJ0aXRsZTM4OTY1Ij5DU1YuMzY3NzA8L3RpdGxlPiYjeGE7CQkJPGcgaWQ9InNoYXBlNDAzNC0xNCI+JiN4YTsJCQkJPHRpdGxlIGlkPSJ0aXRsZTM4OTY3Ij5TaGVldC40MDM0PC90aXRsZT4mI3hhOwkJCQk8cGF0aCBpZD0icGF0aDM4OTY5IiBpbmtzY2FwZTpjb25uZWN0b3ItY3VydmF0dXJlPSIwIiBzdHlsZT0iZmlsbDojRkZGRkZGOyIgZD0iTTQuMzcsMzguNTdjLTAuMjMsMC4yMy0wLjUsMC40MS0wLjc5LDAuNTIgICAgICBjLTAuMywwLjEyLTAuNjIsMC4xNy0wLjk2LDAuMTdjLTAuMzgsMC0wLjcyLTAuMDctMS4wNC0wLjJjLTAuMzEtMC4xNC0wLjU5LTAuMzUtMC44Mi0wLjYyYy0wLjI0LTAuMjctMC40My0wLjYxLTAuNTYtMS4wMSAgICAgIEMwLjA3LDM3LjAyLDAsMzYuNTUsMCwzNi4wMWMwLTAuNTMsMC4wNy0xLDAuMi0xLjQxYzAuMTMtMC40LDAuMzItMC43NCwwLjU2LTEuMDFjMC4yMy0wLjI3LDAuNTEtMC40OCwwLjgzLTAuNjIgICAgICBzMC42Ni0wLjIxLDEuMDMtMC4yMWMwLjM0LDAsMC42NiwwLjA2LDAuOTYsMC4xN2MwLjI5LDAuMTIsMC41NiwwLjI5LDAuNzksMC41MmwtMC43MSwwLjY0Yy0wLjE0LTAuMTctMC4zLTAuMjktMC40Ny0wLjM2ICAgICAgYy0wLjE4LTAuMDgtMC4zNi0wLjEyLTAuNTQtMC4xMmMtMC4yMiwwLTAuNDIsMC4wNC0wLjYxLDAuMTJjLTAuMTksMC4wOS0wLjM2LDAuMjItMC41MSwwLjQxYy0wLjE1LDAuMi0wLjI3LDAuNDQtMC4zNSwwLjc1ICAgICAgYy0wLjA5LDAuMzEtMC4xMywwLjY4LTAuMTQsMS4xMmMwLjAxLDAuNDMsMC4wNSwwLjgsMC4xMywxLjFjMC4wOSwwLjMxLDAuMiwwLjU2LDAuMzQsMC43NWMwLjE1LDAuMTksMC4zMSwwLjMzLDAuNSwwLjQyICAgICAgYzAuMTgsMC4wOSwwLjM4LDAuMTQsMC41OCwwLjE0YzAuMjEsMCwwLjQtMC4wNCwwLjU4LTAuMTJjMC4xOC0wLjA3LDAuMzQtMC4xOSwwLjQ5LTAuMzZMNC4zNywzOC41N3oiLz4mI3hhOwkJCTwvZz4mI3hhOwkJCTxnIGlkPSJzaGFwZTQwMzUtMTYiIHRyYW5zZm9ybT0idHJhbnNsYXRlKDUuNzQzMzYsLTAuMDA4ODMwMjcpIj4mI3hhOwkJCQk8dGl0bGUgaWQ9InRpdGxlMzg5NzIiPlNoZWV0LjQwMzU8L3RpdGxlPiYjeGE7CQkJCTxwYXRoIGlkPSJwYXRoMzg5NzQiIGlua3NjYXBlOmNvbm5lY3Rvci1jdXJ2YXR1cmU9IjAiIHN0eWxlPSJmaWxsOiNGRkZGRkY7IiBkPSJNMy42NSwzNy40OWMwLDAuMjMtMC4wNCwwLjQ1LTAuMTQsMC42NiAgICAgIGMtMC4wOSwwLjIyLTAuMjIsMC40MS0wLjM5LDAuNTdjLTAuMTcsMC4xNy0wLjM5LDAuMy0wLjY0LDAuNGMtMC4yNSwwLjA5LTAuNTMsMC4xNC0wLjg1LDAuMTRjLTAuMTQsMC0wLjI4LTAuMDEtMC40Mi0wLjAyICAgICAgYy0wLjE1LTAuMDEtMC4yOS0wLjA0LTAuNDQtMC4wN2MtMC4xNS0wLjA0LTAuMjktMC4wOC0wLjQyLTAuMTRDMC4yMSwzOC45NiwwLjEsMzguODksMCwzOC44bDAuMTgtMC43NCAgICAgIGMwLjA4LDAuMDUsMC4xOCwwLjA5LDAuMywwLjE0YzAuMTIsMC4wNCwwLjI1LDAuMDgsMC4zOCwwLjEyYzAuMTMsMC4wNCwwLjI2LDAuMDYsMC4zOSwwLjA5YzAuMTMsMC4wMiwwLjI2LDAuMDMsMC4zNywwLjAzICAgICAgYzAuMzUsMCwwLjYxLTAuMDgsMC44LTAuMjRjMC4xOC0wLjE3LDAuMjgtMC40MSwwLjI4LTAuNzNjMC0wLjItMC4wNy0wLjM2LTAuMi0wLjVzLTAuMjktMC4yNi0wLjQ5LTAuMzggICAgICBjLTAuMi0wLjExLTAuNDEtMC4yMi0wLjY0LTAuMzNjLTAuMjItMC4xMi0wLjQ0LTAuMjUtMC42NC0wLjRjLTAuMi0wLjE1LTAuMzYtMC4zMy0wLjQ5LTAuNTRzLTAuMi0wLjQ2LTAuMi0wLjc3ICAgICAgYzAtMC4yOSwwLjA1LTAuNTQsMC4xNi0wLjc1YzAuMS0wLjIyLDAuMjQtMC40MSwwLjQxLTAuNTZzMC4zOC0wLjI3LDAuNjEtMC4zNWMwLjIzLTAuMDgsMC40Ny0wLjEyLDAuNzMtMC4xMiAgICAgIHMwLjUyLDAuMDIsMC43OSwwLjA3czAuNDgsMC4xMywwLjY1LDAuMjRjLTAuMDQsMC4wNy0wLjA4LDAuMTYtMC4xMiwwLjI1Yy0wLjA1LDAuMDktMC4wOSwwLjE3LTAuMTMsMC4yNSAgICAgIGMtMC4wNCwwLjA3LTAuMDcsMC4xNC0wLjEsMC4xOXMtMC4wNSwwLjA4LTAuMDUsMC4wOWMtMC4wNC0wLjAyLTAuMDctMC4wNC0wLjEyLTAuMDdjLTAuMDQtMC4wMy0wLjEtMC4wNi0wLjE4LTAuMDkgICAgICBjLTAuMDgtMC4wMy0wLjE5LTAuMDUtMC4zMi0wLjA2Yy0wLjEzLTAuMDEtMC4zLTAuMDEtMC41LDAuMDFjLTAuMTIsMC4wMS0wLjIyLDAuMDQtMC4zMywwLjFjLTAuMSwwLjA1LTAuMTksMC4xMi0wLjI3LDAuMiAgICAgIHMtMC4xNCwwLjE3LTAuMTksMC4yN2MtMC4wNCwwLjEtMC4wNywwLjItMC4wNywwLjI5YzAsMC4yMywwLjA3LDAuNDIsMC4yLDAuNTZjMC4xMywwLjE0LDAuMjksMC4yNiwwLjQ5LDAuMzcgICAgICBjMC4xOSwwLjExLDAuNCwwLjIxLDAuNjMsMC4zMWMwLjIzLDAuMSwwLjQ0LDAuMjIsMC42NCwwLjM3YzAuMTksMC4xNCwwLjM1LDAuMzIsMC40OSwwLjUzQzMuNTksMzYuODcsMy42NSwzNy4xNSwzLjY1LDM3LjQ5eiIvPiYjeGE7CQkJPC9nPiYjeGE7CQkJPGcgaWQ9InNoYXBlNDAzNi0xOCIgdHJhbnNmb3JtPSJ0cmFuc2xhdGUoMTAuMTkxMiwtMC4wMDgxOTk1MykiPiYjeGE7CQkJCTx0aXRsZSBpZD0idGl0bGUzODk3NyI+U2hlZXQuNDAzNjwvdGl0bGU+JiN4YTsJCQkJPHBhdGggaWQ9InBhdGgzODk3OSIgaW5rc2NhcGU6Y29ubmVjdG9yLWN1cnZhdHVyZT0iMCIgc3R5bGU9ImZpbGw6I0ZGRkZGRjsiIGQ9Ik0xLjk1LDM5LjI2TDAsMzIuODdoMS4xN2wxLjQ2LDUuNDlsMS41NC01LjQ5ICAgICAgaDEuMTdsLTIuMDUsNi4zOUwxLjk1LDM5LjI2eiIvPiYjeGE7CQkJPC9nPiYjeGE7CQk8L2c+JiN4YTsJPC9nPiYjeGE7PC9nPiYjeGE7PC9zdmc+;strokeColor=#788AA3;fontColor=#46495D;fillColor=#B2C9AB;" parent="JlcOlSUOv72aKDt4cfFE-38" vertex="1">
          <mxGeometry x="360.0023076923077" y="39.998089171974534" width="67.56" height="76" as="geometry" />
        </mxCell>
        <mxCell id="JlcOlSUOv72aKDt4cfFE-77" value="&lt;span style=&quot;font-size: 20px;&quot;&gt;EXISTANT POUR OPTIM&lt;/span&gt;" style="text;html=1;align=center;verticalAlign=middle;resizable=0;points=[];autosize=1;strokeColor=none;fillColor=none;fontColor=#46495D;" parent="JlcOlSUOv72aKDt4cfFE-38" vertex="1">
          <mxGeometry x="-0.0048923076923072985" y="250.00171974522294" width="250" height="40" as="geometry" />
        </mxCell>
        <mxCell id="Q-r5WbzmVcZyMv6zKtho-1" value="&lt;div style=&quot;text-align: left;&quot;&gt;&lt;span style=&quot;font-size: 20px; background-color: initial;&quot;&gt;./SIGEMS_IN&lt;/span&gt;&lt;/div&gt;" style="text;html=1;align=center;verticalAlign=middle;resizable=0;points=[];autosize=1;strokeColor=none;fillColor=none;fontColor=#46495D;" parent="JlcOlSUOv72aKDt4cfFE-38" vertex="1">
          <mxGeometry x="43.78510769230775" y="140.001719745223" width="140" height="40" as="geometry" />
        </mxCell>
        <mxCell id="Q-r5WbzmVcZyMv6zKtho-2" value="&lt;div style=&quot;text-align: left;&quot;&gt;&lt;span style=&quot;font-size: 20px; background-color: initial;&quot;&gt;./TIMEWISE_IN&lt;/span&gt;&lt;/div&gt;" style="text;html=1;align=center;verticalAlign=middle;resizable=0;points=[];autosize=1;strokeColor=none;fillColor=none;fontColor=#46495D;" parent="JlcOlSUOv72aKDt4cfFE-38" vertex="1">
          <mxGeometry x="313.78510769230775" y="140.001719745223" width="160" height="40" as="geometry" />
        </mxCell>
        <mxCell id="Q-r5WbzmVcZyMv6zKtho-9" value="" style="shape=image;verticalLabelPosition=bottom;labelBackgroundColor=#ffffff;verticalAlign=top;aspect=fixed;imageAspect=0;image=data:image/svg+xml,PHN2ZyB4bWxuczpjYz0iaHR0cDovL2NyZWF0aXZlY29tbW9ucy5vcmcvbnMjIiB4bWxuczpkYz0iaHR0cDovL3B1cmwub3JnL2RjL2VsZW1lbnRzLzEuMS8iIHhtbG5zOmlua3NjYXBlPSJodHRwOi8vd3d3Lmlua3NjYXBlLm9yZy9uYW1lc3BhY2VzL2lua3NjYXBlIiB4bWxuczpyZGY9Imh0dHA6Ly93d3cudzMub3JnLzE5OTkvMDIvMjItcmRmLXN5bnRheC1ucyMiIHhtbG5zOnNvZGlwb2RpPSJodHRwOi8vc29kaXBvZGkuc291cmNlZm9yZ2UubmV0L0RURC9zb2RpcG9kaS0wLmR0ZCIgeG1sbnM6c3ZnPSJodHRwOi8vd3d3LnczLm9yZy8yMDAwL3N2ZyIgeG1sbnM9Imh0dHA6Ly93d3cudzMub3JnLzIwMDAvc3ZnIiB4bWxuczp4bGluaz0iaHR0cDovL3d3dy53My5vcmcvMTk5OS94bGluayIgdmVyc2lvbj0iMS4xIiBpZD0ic3ZnMTA5MTk0IiBpbmtzY2FwZTp2ZXJzaW9uPSIwLjkyLjMgKDI0MDU1NDYsIDIwMTgtMDMtMTEpIiBzb2RpcG9kaTpkb2NuYW1lPSJhcGlfbWFuYWdlbWVudC5zdmciIHg9IjBweCIgeT0iMHB4IiB2aWV3Qm94PSIwIDAgMjcgMjcuMDUiIHN0eWxlPSJlbmFibGUtYmFja2dyb3VuZDpuZXcgMCAwIDI3IDI3LjA1OyIgeG1sOnNwYWNlPSJwcmVzZXJ2ZSI+JiN4YTs8c29kaXBvZGk6bmFtZWR2aWV3IGJvcmRlcmNvbG9yPSIjNjY2NjY2IiBib3JkZXJvcGFjaXR5PSIxIiBmaXQtbWFyZ2luLWJvdHRvbT0iMCIgZml0LW1hcmdpbi1sZWZ0PSIwIiBmaXQtbWFyZ2luLXJpZ2h0PSIwIiBmaXQtbWFyZ2luLXRvcD0iMCIgZ3JpZHRvbGVyYW5jZT0iMTAiIGd1aWRldG9sZXJhbmNlPSIxMCIgaWQ9Im5hbWVkdmlldzEwOTE5NiIgaW5rc2NhcGU6Y3VycmVudC1sYXllcj0ic3ZnMTA5MTk0IiBpbmtzY2FwZTpjeD0iMTcuOTk5OTU4IiBpbmtzY2FwZTpjeT0iMTguMDI5OTU5IiBpbmtzY2FwZTpwYWdlb3BhY2l0eT0iMCIgaW5rc2NhcGU6cGFnZXNoYWRvdz0iMiIgaW5rc2NhcGU6d2luZG93LWhlaWdodD0iMTAxNyIgaW5rc2NhcGU6d2luZG93LW1heGltaXplZD0iMSIgaW5rc2NhcGU6d2luZG93LXdpZHRoPSIxOTIwIiBpbmtzY2FwZTp3aW5kb3cteD0iLTgiIGlua3NjYXBlOndpbmRvdy15PSItOCIgaW5rc2NhcGU6em9vbT0iMjQuMDM0NDMxIiBvYmplY3R0b2xlcmFuY2U9IjEwIiBwYWdlY29sb3I9IiNmZmZmZmYiIHNob3dncmlkPSJmYWxzZSI+JiN4YTsJPC9zb2RpcG9kaTpuYW1lZHZpZXc+JiN4YTs8ZyBpZD0iZzEwOTE5MiIgdHJhbnNmb3JtPSJ0cmFuc2xhdGUoLTMuMTI1NTA2OWUtNSkiPiYjeGE7CTx0aXRsZSBpZD0idGl0bGUxMDkxODIiPlBhZ2UtMTwvdGl0bGU+JiN4YTsJPGcgaWQ9Imdyb3VwMTYxLTEiPiYjeGE7CQk8dGl0bGUgaWQ9InRpdGxlMTA5MTg0Ij5BUEkgTWFuYWdlbWVudCAoRGVwcmVjYXRlZCk8L3RpdGxlPiYjeGE7CQk8ZyBpZD0ic2hhcGUxNjItMiI+JiN4YTsJCQk8dGl0bGUgaWQ9InRpdGxlMTA5MTg2Ij5TaGVldC4xNjI8L3RpdGxlPiYjeGE7CQkJPHBhdGggaWQ9InBhdGgxMDkxODgiIGlua3NjYXBlOmNvbm5lY3Rvci1jdXJ2YXR1cmU9IjAiIHN0eWxlPSJmaWxsOiMzRjU3NjU7IiBkPSJNMCwwYzcuNTQsMCw3LjU0LDAsNy41NCwwICAgICBjMCw3LjU1LDAsNy41NSwwLDcuNTVjLTEuODksMC0xLjg5LDAtMS44OSwwYzAsMi44MywwLDIuODMsMCwyLjgzYzAuNjMsMC4zMiwwLjk1LDAuNjMsMS4yNiwxLjI2YzIuODIsMCwyLjgyLDAsMi44MiwwICAgICBjMC0xLjg5LDAtMS44OSwwLTEuODljNy41NCwwLDcuNTQsMCw3LjU0LDBjMCw3LjU2LDAsNy41NiwwLDcuNTZjLTEuODgsMC0xLjg4LDAtMS44OCwwYzAsMi44MywwLDIuODMsMCwyLjgzICAgICBjMC4zMSwwLjMxLDAuOTQsMC42MywxLjI1LDAuOTRjMi41MSwwLDIuNTEsMCwyLjUxLDBjMC0xLjg5LDAtMS44OSwwLTEuODljNy44NSwwLDcuODUsMCw3Ljg1LDBjMCw3Ljg2LDAsNy44NiwwLDcuODYgICAgIGMtNy44NSwwLTcuODUsMC03Ljg1LDBjMC00LjA4LDAtNC4wOCwwLTQuMDhjLTIuNTEsMC0yLjUxLDAtMi41MSwwYy0wLjMxLDAuOTQtMS4yNSwxLjU3LTIuMiwxLjU3Yy0wLjk0LDAtMS44OC0wLjYzLTIuMi0xLjU3ICAgICBjLTYuNTksMC02LjU5LDAtNi41OSwwYy0xLjg4LDAtMS44OCwwLTEuODgsMGMwLTEuODksMC0xLjg5LDAtMS44OWMwLTYuMjksMC02LjI5LDAtNi4yOWMtMC45NC0wLjMxLTEuNTctMS4yNi0xLjU3LTIuMiAgICAgYzAtMS4yNiwwLjYzLTEuODksMS41Ny0yLjIxYzAtMi44MywwLTIuODMsMC0yLjgzQzAsNy41NSwwLDcuNTUsMCw3LjU1QzAsMCwwLDAsMCwweiBNMTMuNSwxNy4zMWMtMy43NywwLTMuNzcsMC0zLjc3LDAgICAgIGMwLTMuNzgsMC0zLjc4LDAtMy43OGMtMi44MiwwLTIuODIsMC0yLjgyLDBjLTAuMzEsMC4zMi0wLjYzLDAuOTUtMS4yNiwwLjk1YzAsNi42LDAsNi42LDAsNi42YzYuNTksMCw2LjU5LDAsNi41OSwwICAgICBjMC4zMi0wLjMxLDAuNjQtMC42MywxLjI2LTAuOTRWMTcuMzF6Ii8+JiN4YTsJCTwvZz4mI3hhOwk8L2c+JiN4YTs8L2c+JiN4YTs8L3N2Zz4=;" parent="JlcOlSUOv72aKDt4cfFE-38" vertex="1">
          <mxGeometry x="88.78" y="180" width="50" height="50" as="geometry" />
        </mxCell>
        <mxCell id="Q-r5WbzmVcZyMv6zKtho-10" value="" style="shape=image;verticalLabelPosition=bottom;labelBackgroundColor=#ffffff;verticalAlign=top;aspect=fixed;imageAspect=0;image=data:image/svg+xml,PHN2ZyB4bWxuczpjYz0iaHR0cDovL2NyZWF0aXZlY29tbW9ucy5vcmcvbnMjIiB4bWxuczpkYz0iaHR0cDovL3B1cmwub3JnL2RjL2VsZW1lbnRzLzEuMS8iIHhtbG5zOmlua3NjYXBlPSJodHRwOi8vd3d3Lmlua3NjYXBlLm9yZy9uYW1lc3BhY2VzL2lua3NjYXBlIiB4bWxuczpyZGY9Imh0dHA6Ly93d3cudzMub3JnLzE5OTkvMDIvMjItcmRmLXN5bnRheC1ucyMiIHhtbG5zOnNvZGlwb2RpPSJodHRwOi8vc29kaXBvZGkuc291cmNlZm9yZ2UubmV0L0RURC9zb2RpcG9kaS0wLmR0ZCIgeG1sbnM6c3ZnPSJodHRwOi8vd3d3LnczLm9yZy8yMDAwL3N2ZyIgeG1sbnM9Imh0dHA6Ly93d3cudzMub3JnLzIwMDAvc3ZnIiB4bWxuczp4bGluaz0iaHR0cDovL3d3dy53My5vcmcvMTk5OS94bGluayIgdmVyc2lvbj0iMS4xIiBpZD0ic3ZnMTA5MTk0IiBpbmtzY2FwZTp2ZXJzaW9uPSIwLjkyLjMgKDI0MDU1NDYsIDIwMTgtMDMtMTEpIiBzb2RpcG9kaTpkb2NuYW1lPSJhcGlfbWFuYWdlbWVudC5zdmciIHg9IjBweCIgeT0iMHB4IiB2aWV3Qm94PSIwIDAgMjcgMjcuMDUiIHN0eWxlPSJlbmFibGUtYmFja2dyb3VuZDpuZXcgMCAwIDI3IDI3LjA1OyIgeG1sOnNwYWNlPSJwcmVzZXJ2ZSI+JiN4YTs8c29kaXBvZGk6bmFtZWR2aWV3IGJvcmRlcmNvbG9yPSIjNjY2NjY2IiBib3JkZXJvcGFjaXR5PSIxIiBmaXQtbWFyZ2luLWJvdHRvbT0iMCIgZml0LW1hcmdpbi1sZWZ0PSIwIiBmaXQtbWFyZ2luLXJpZ2h0PSIwIiBmaXQtbWFyZ2luLXRvcD0iMCIgZ3JpZHRvbGVyYW5jZT0iMTAiIGd1aWRldG9sZXJhbmNlPSIxMCIgaWQ9Im5hbWVkdmlldzEwOTE5NiIgaW5rc2NhcGU6Y3VycmVudC1sYXllcj0ic3ZnMTA5MTk0IiBpbmtzY2FwZTpjeD0iMTcuOTk5OTU4IiBpbmtzY2FwZTpjeT0iMTguMDI5OTU5IiBpbmtzY2FwZTpwYWdlb3BhY2l0eT0iMCIgaW5rc2NhcGU6cGFnZXNoYWRvdz0iMiIgaW5rc2NhcGU6d2luZG93LWhlaWdodD0iMTAxNyIgaW5rc2NhcGU6d2luZG93LW1heGltaXplZD0iMSIgaW5rc2NhcGU6d2luZG93LXdpZHRoPSIxOTIwIiBpbmtzY2FwZTp3aW5kb3cteD0iLTgiIGlua3NjYXBlOndpbmRvdy15PSItOCIgaW5rc2NhcGU6em9vbT0iMjQuMDM0NDMxIiBvYmplY3R0b2xlcmFuY2U9IjEwIiBwYWdlY29sb3I9IiNmZmZmZmYiIHNob3dncmlkPSJmYWxzZSI+JiN4YTsJPC9zb2RpcG9kaTpuYW1lZHZpZXc+JiN4YTs8ZyBpZD0iZzEwOTE5MiIgdHJhbnNmb3JtPSJ0cmFuc2xhdGUoLTMuMTI1NTA2OWUtNSkiPiYjeGE7CTx0aXRsZSBpZD0idGl0bGUxMDkxODIiPlBhZ2UtMTwvdGl0bGU+JiN4YTsJPGcgaWQ9Imdyb3VwMTYxLTEiPiYjeGE7CQk8dGl0bGUgaWQ9InRpdGxlMTA5MTg0Ij5BUEkgTWFuYWdlbWVudCAoRGVwcmVjYXRlZCk8L3RpdGxlPiYjeGE7CQk8ZyBpZD0ic2hhcGUxNjItMiI+JiN4YTsJCQk8dGl0bGUgaWQ9InRpdGxlMTA5MTg2Ij5TaGVldC4xNjI8L3RpdGxlPiYjeGE7CQkJPHBhdGggaWQ9InBhdGgxMDkxODgiIGlua3NjYXBlOmNvbm5lY3Rvci1jdXJ2YXR1cmU9IjAiIHN0eWxlPSJmaWxsOiMzRjU3NjU7IiBkPSJNMCwwYzcuNTQsMCw3LjU0LDAsNy41NCwwICAgICBjMCw3LjU1LDAsNy41NSwwLDcuNTVjLTEuODksMC0xLjg5LDAtMS44OSwwYzAsMi44MywwLDIuODMsMCwyLjgzYzAuNjMsMC4zMiwwLjk1LDAuNjMsMS4yNiwxLjI2YzIuODIsMCwyLjgyLDAsMi44MiwwICAgICBjMC0xLjg5LDAtMS44OSwwLTEuODljNy41NCwwLDcuNTQsMCw3LjU0LDBjMCw3LjU2LDAsNy41NiwwLDcuNTZjLTEuODgsMC0xLjg4LDAtMS44OCwwYzAsMi44MywwLDIuODMsMCwyLjgzICAgICBjMC4zMSwwLjMxLDAuOTQsMC42MywxLjI1LDAuOTRjMi41MSwwLDIuNTEsMCwyLjUxLDBjMC0xLjg5LDAtMS44OSwwLTEuODljNy44NSwwLDcuODUsMCw3Ljg1LDBjMCw3Ljg2LDAsNy44NiwwLDcuODYgICAgIGMtNy44NSwwLTcuODUsMC03Ljg1LDBjMC00LjA4LDAtNC4wOCwwLTQuMDhjLTIuNTEsMC0yLjUxLDAtMi41MSwwYy0wLjMxLDAuOTQtMS4yNSwxLjU3LTIuMiwxLjU3Yy0wLjk0LDAtMS44OC0wLjYzLTIuMi0xLjU3ICAgICBjLTYuNTksMC02LjU5LDAtNi41OSwwYy0xLjg4LDAtMS44OCwwLTEuODgsMGMwLTEuODksMC0xLjg5LDAtMS44OWMwLTYuMjksMC02LjI5LDAtNi4yOWMtMC45NC0wLjMxLTEuNTctMS4yNi0xLjU3LTIuMiAgICAgYzAtMS4yNiwwLjYzLTEuODksMS41Ny0yLjIxYzAtMi44MywwLTIuODMsMC0yLjgzQzAsNy41NSwwLDcuNTUsMCw3LjU1QzAsMCwwLDAsMCwweiBNMTMuNSwxNy4zMWMtMy43NywwLTMuNzcsMC0zLjc3LDAgICAgIGMwLTMuNzgsMC0zLjc4LDAtMy43OGMtMi44MiwwLTIuODIsMC0yLjgyLDBjLTAuMzEsMC4zMi0wLjYzLDAuOTUtMS4yNiwwLjk1YzAsNi42LDAsNi42LDAsNi42YzYuNTksMCw2LjU5LDAsNi41OSwwICAgICBjMC4zMi0wLjMxLDAuNjQtMC42MywxLjI2LTAuOTRWMTcuMzF6Ii8+JiN4YTsJCTwvZz4mI3hhOwk8L2c+JiN4YTs8L2c+JiN4YTs8L3N2Zz4=;" parent="JlcOlSUOv72aKDt4cfFE-38" vertex="1">
          <mxGeometry x="368.78" y="180" width="50" height="50" as="geometry" />
        </mxCell>
        <mxCell id="Q-r5WbzmVcZyMv6zKtho-15" value="" style="group" parent="JlcOlSUOv72aKDt4cfFE-38" vertex="1" connectable="0">
          <mxGeometry x="400" y="-6.558280254776946" width="117.58000000000004" height="40" as="geometry" />
        </mxCell>
        <mxCell id="Q-r5WbzmVcZyMv6zKtho-11" value="" style="rounded=1;whiteSpace=wrap;html=1;fillColor=#99FF99;strokeColor=#82b366;" parent="Q-r5WbzmVcZyMv6zKtho-15" vertex="1">
          <mxGeometry y="6.558280254776946" width="117.58" height="26.89" as="geometry" />
        </mxCell>
        <mxCell id="Q-r5WbzmVcZyMv6zKtho-13" value="&lt;span style=&quot;font-size: 20px;&quot;&gt;STATUS&lt;/span&gt;" style="text;html=1;align=center;verticalAlign=middle;resizable=0;points=[];autosize=1;strokeColor=none;fillColor=none;fontColor=#46495D;" parent="Q-r5WbzmVcZyMv6zKtho-15" vertex="1">
          <mxGeometry x="8.785107692307747" width="100" height="40" as="geometry" />
        </mxCell>
        <mxCell id="JlcOlSUOv72aKDt4cfFE-46" style="edgeStyle=orthogonalEdgeStyle;rounded=0;orthogonalLoop=1;jettySize=auto;html=1;entryX=0;entryY=0.75;entryDx=0;entryDy=0;strokeColor=#788AA3;fontColor=#46495D;fillColor=#B2C9AB;" parent="1" source="JlcOlSUOv72aKDt4cfFE-44" target="JlcOlSUOv72aKDt4cfFE-33" edge="1">
          <mxGeometry relative="1" as="geometry" />
        </mxCell>
        <mxCell id="JlcOlSUOv72aKDt4cfFE-44" value="" style="shape=image;verticalLabelPosition=bottom;labelBackgroundColor=#ffffff;verticalAlign=top;aspect=fixed;imageAspect=0;image=data:image/svg+xml,PHN2ZyB4bWxuczpjYz0iaHR0cDovL2NyZWF0aXZlY29tbW9ucy5vcmcvbnMjIiB4bWxuczpkYz0iaHR0cDovL3B1cmwub3JnL2RjL2VsZW1lbnRzLzEuMS8iIHhtbG5zOmlua3NjYXBlPSJodHRwOi8vd3d3Lmlua3NjYXBlLm9yZy9uYW1lc3BhY2VzL2lua3NjYXBlIiB4bWxuczpyZGY9Imh0dHA6Ly93d3cudzMub3JnLzE5OTkvMDIvMjItcmRmLXN5bnRheC1ucyMiIHhtbG5zOnNvZGlwb2RpPSJodHRwOi8vc29kaXBvZGkuc291cmNlZm9yZ2UubmV0L0RURC9zb2RpcG9kaS0wLmR0ZCIgeG1sbnM6c3ZnPSJodHRwOi8vd3d3LnczLm9yZy8yMDAwL3N2ZyIgeG1sbnM9Imh0dHA6Ly93d3cudzMub3JnLzIwMDAvc3ZnIiB4bWxuczp4bGluaz0iaHR0cDovL3d3dy53My5vcmcvMTk5OS94bGluayIgdmVyc2lvbj0iMS4xIiBpZD0ic3ZnMTEyNTgwIiBpbmtzY2FwZTp2ZXJzaW9uPSIwLjkyLjMgKDI0MDU1NDYsIDIwMTgtMDMtMTEpIiBzb2RpcG9kaTpkb2NuYW1lPSJ1cGxvYWRfMS5zdmciIHg9IjBweCIgeT0iMHB4IiB2aWV3Qm94PSIwIDAgNDkuNTIgNDguNzciIHN0eWxlPSJlbmFibGUtYmFja2dyb3VuZDpuZXcgMCAwIDQ5LjUyIDQ4Ljc3OyIgeG1sOnNwYWNlPSJwcmVzZXJ2ZSI+JiN4YTs8c29kaXBvZGk6bmFtZWR2aWV3IGJvcmRlcmNvbG9yPSIjNjY2NjY2IiBib3JkZXJvcGFjaXR5PSIxIiBmaXQtbWFyZ2luLWJvdHRvbT0iMCIgZml0LW1hcmdpbi1sZWZ0PSIwIiBmaXQtbWFyZ2luLXJpZ2h0PSIwIiBmaXQtbWFyZ2luLXRvcD0iMCIgZ3JpZHRvbGVyYW5jZT0iMTAiIGd1aWRldG9sZXJhbmNlPSIxMCIgaWQ9Im5hbWVkdmlldzExMjU4MiIgaW5rc2NhcGU6Y3VycmVudC1sYXllcj0ic3ZnMTEyNTgwIiBpbmtzY2FwZTpjeD0iMzMuMDEzMzc4IiBpbmtzY2FwZTpjeT0iMzIuNTAwODciIGlua3NjYXBlOnBhZ2VvcGFjaXR5PSIwIiBpbmtzY2FwZTpwYWdlc2hhZG93PSIyIiBpbmtzY2FwZTp3aW5kb3ctaGVpZ2h0PSIxMDE3IiBpbmtzY2FwZTp3aW5kb3ctbWF4aW1pemVkPSIxIiBpbmtzY2FwZTp3aW5kb3ctd2lkdGg9IjE5MjAiIGlua3NjYXBlOndpbmRvdy14PSItOCIgaW5rc2NhcGU6d2luZG93LXk9Ii04IiBpbmtzY2FwZTp6b29tPSIxMy4zMzg4MDIiIG9iamVjdHRvbGVyYW5jZT0iMTAiIHBhZ2Vjb2xvcj0iI2ZmZmZmZiIgc2hvd2dyaWQ9ImZhbHNlIj4mI3hhOwk8L3NvZGlwb2RpOm5hbWVkdmlldz4mI3hhOzxnIGlkPSJnMTEyNTc4IiB0cmFuc2Zvcm09InRyYW5zbGF0ZSgwLjAxMDY4MTg3LDAuMDE1MTgxODcpIj4mI3hhOwk8dGl0bGUgaWQ9InRpdGxlMTEyNTQ5Ij5QYWdlLTE8L3RpdGxlPiYjeGE7CTxnIGlkPSJncm91cDUzNDgtMSIgdHJhbnNmb3JtPSJ0cmFuc2xhdGUoMC43NSwtMC43NSkiPiYjeGE7CQk8dGl0bGUgaWQ9InRpdGxlMTEyNTUxIj5VcGxvYWQgIzE8L3RpdGxlPiYjeGE7CQk8ZyBpZD0iZ3JvdXA1MzQ5LTIiPiYjeGE7CQkJPHRpdGxlIGlkPSJ0aXRsZTExMjU1MyI+U2hlZXQuNTM0OTwvdGl0bGU+JiN4YTsJCQk8ZyBpZD0ic2hhcGU1MzUwLTMiPiYjeGE7CQkJCTx0aXRsZSBpZD0idGl0bGUxMTI1NTUiPlNoZWV0LjUzNTA8L3RpdGxlPiYjeGE7CQkJCTxwYXRoIGlkPSJwYXRoMTEyNTU3IiBpbmtzY2FwZTpjb25uZWN0b3ItY3VydmF0dXJlPSIwIiBzdHlsZT0iZmlsbDpub25lOyIgZD0iTTI4LjUsMTYuNzVIMzhsMTAsMTZ2MTZIMHYtMTZsMTAtMTZoOS41SDI4LjV6Ii8+JiN4YTsJCQkJJiN4YTsJCQkJCTxwYXRoIGlkPSJwYXRoMTEyNTU5IiBpbmtzY2FwZTpjb25uZWN0b3ItY3VydmF0dXJlPSIwIiBzdHlsZT0iZmlsbDpub25lO3N0cm9rZTojQTFBRkJBO3N0cm9rZS13aWR0aDoxLjU7c3Ryb2tlLWxpbmVjYXA6cm91bmQ7c3Ryb2tlLWxpbmVqb2luOnJvdW5kO3N0cm9rZS1taXRlcmxpbWl0OjM7IiBkPSIgICAgICBNMjguNSwxNi43NUgzOGwxMCwxNnYxNkgwdi0xNmwxMC0xNmg5LjUiLz4mI3hhOwkJCTwvZz4mI3hhOwkJCTxnIGlkPSJzaGFwZTUzNTEtNiIgdHJhbnNmb3JtPSJ0cmFuc2xhdGUoMCwtNy45OTk3OCkiPiYjeGE7CQkJCTx0aXRsZSBpZD0idGl0bGUxMTI1NjIiPlNoZWV0LjUzNTE8L3RpdGxlPiYjeGE7CQkJCTxwYXRoIGlkPSJwYXRoMTEyNTY0IiBpbmtzY2FwZTpjb25uZWN0b3ItY3VydmF0dXJlPSIwIiBzdHlsZT0iZmlsbDpub25lOyIgZD0iTTAsNDAuNzVoMTR2M2MwLDIuNzYsMi4yNCw1LDUsNWMwLDAsMCwwLDAsMGgxMCAgICAgIGMyLjc2LDAsNS0yLjI0LDUtNWMwLDAsMCwwLDAsMHYtM2gxNEgweiIvPiYjeGE7CQkJCSYjeGE7CQkJCQk8cGF0aCBpZD0icGF0aDExMjU2NiIgaW5rc2NhcGU6Y29ubmVjdG9yLWN1cnZhdHVyZT0iMCIgc3R5bGU9ImZpbGw6bm9uZTtzdHJva2U6I0ExQUZCQTtzdHJva2Utd2lkdGg6MS41O3N0cm9rZS1saW5lY2FwOnJvdW5kO3N0cm9rZS1saW5lam9pbjpyb3VuZDtzdHJva2UtbWl0ZXJsaW1pdDozOyIgZD0iICAgICAgTTAsNDAuNzVoMTR2M2MwLDIuNzYsMi4yNCw1LDUsNWMwLDAsMCwwLDAsMGgxMGMyLjc2LDAsNS0yLjI0LDUtNWMwLDAsMCwwLDAsMHYtM2gxNCIvPiYjeGE7CQkJPC9nPiYjeGE7CQkJPGcgaWQ9InNoYXBlNTM1Mi05IiB0cmFuc2Zvcm09InRyYW5zbGF0ZSgxNi40OTk2LC0xOC44NzQ1KSI+JiN4YTsJCQkJPHRpdGxlIGlkPSJ0aXRsZTExMjU2OSI+U2hlZXQuNTM1MjwvdGl0bGU+JiN4YTsJCQkJPHBhdGggaWQ9InBhdGgxMTI1NzEiIGlua3NjYXBlOmNvbm5lY3Rvci1jdXJ2YXR1cmU9IjAiIHN0eWxlPSJmaWxsOm5vbmU7IiBkPSJNMCwyNy4zN2w3LjUtN2w3LjUsN0gweiBNNy41LDQ4Ljc1VjIwLjM3VjQ4Ljc1eiAgICAgICIvPiYjeGE7CQkJCSYjeGE7CQkJCQk8cGF0aCBpZD0icGF0aDExMjU3MyIgaW5rc2NhcGU6Y29ubmVjdG9yLWN1cnZhdHVyZT0iMCIgc3R5bGU9ImZpbGw6bm9uZTtzdHJva2U6IzEzOUJENztzdHJva2Utd2lkdGg6MS41O3N0cm9rZS1saW5lY2FwOnJvdW5kO3N0cm9rZS1saW5lam9pbjpyb3VuZDtzdHJva2UtbWl0ZXJsaW1pdDozOyIgZD0iICAgICAgTTAsMjcuMzdsNy41LTdsNy41LDcgTTcuNSw0OC43NVYyMC4zNyIvPiYjeGE7CQkJPC9nPiYjeGE7CQk8L2c+JiN4YTsJPC9nPiYjeGE7PC9nPiYjeGE7PC9zdmc+;strokeColor=#788AA3;fontColor=#46495D;fillColor=#B2C9AB;" parent="1" vertex="1">
          <mxGeometry x="-1300" y="921" width="50" height="49" as="geometry" />
        </mxCell>
        <mxCell id="JlcOlSUOv72aKDt4cfFE-45" style="edgeStyle=orthogonalEdgeStyle;rounded=0;orthogonalLoop=1;jettySize=auto;html=1;entryX=0;entryY=0.5;entryDx=0;entryDy=0;strokeColor=#788AA3;fontColor=#46495D;fillColor=#B2C9AB;" parent="1" source="JlcOlSUOv72aKDt4cfFE-76" target="JlcOlSUOv72aKDt4cfFE-44" edge="1">
          <mxGeometry relative="1" as="geometry">
            <mxPoint x="-1110" y="692" as="sourcePoint" />
            <Array as="points">
              <mxPoint x="-1410" y="730" />
              <mxPoint x="-1410" y="953" />
              <mxPoint x="-1300" y="953" />
            </Array>
          </mxGeometry>
        </mxCell>
        <mxCell id="JlcOlSUOv72aKDt4cfFE-67" style="edgeStyle=orthogonalEdgeStyle;rounded=0;orthogonalLoop=1;jettySize=auto;html=1;strokeColor=#788AA3;fontColor=#46495D;fillColor=#B2C9AB;" parent="1" source="JlcOlSUOv72aKDt4cfFE-47" target="JlcOlSUOv72aKDt4cfFE-17" edge="1">
          <mxGeometry relative="1" as="geometry">
            <Array as="points">
              <mxPoint x="210" y="930" />
              <mxPoint x="810" y="930" />
              <mxPoint x="810" y="580" />
              <mxPoint x="510" y="580" />
            </Array>
          </mxGeometry>
        </mxCell>
        <mxCell id="JlcOlSUOv72aKDt4cfFE-47" value="&lt;span style=&quot;font-size: 20px;&quot;&gt;&lt;b&gt;CRONJOBS&lt;/b&gt;&lt;/span&gt;" style="text;html=1;align=center;verticalAlign=middle;resizable=0;points=[];autosize=1;strokeColor=none;fillColor=none;fontColor=#46495D;" parent="1" vertex="1">
          <mxGeometry x="140" y="763.5" width="140" height="40" as="geometry" />
        </mxCell>
        <mxCell id="JlcOlSUOv72aKDt4cfFE-51" style="edgeStyle=orthogonalEdgeStyle;rounded=0;orthogonalLoop=1;jettySize=auto;html=1;strokeColor=#788AA3;fontColor=#46495D;fillColor=#B2C9AB;exitX=-0.02;exitY=0.529;exitDx=0;exitDy=0;exitPerimeter=0;" parent="1" source="JlcOlSUOv72aKDt4cfFE-48" target="JlcOlSUOv72aKDt4cfFE-50" edge="1">
          <mxGeometry relative="1" as="geometry">
            <mxPoint x="-330" y="840" as="sourcePoint" />
          </mxGeometry>
        </mxCell>
        <mxCell id="JlcOlSUOv72aKDt4cfFE-48" value="Virtual Private Network" style="aspect=fixed;html=1;perimeter=none;align=center;shadow=0;dashed=0;image;fontSize=12;image=img/lib/mscae/Virtual_Network.svg;labelBackgroundColor=none;fillColor=#B2C9AB;strokeColor=#788AA3;fontColor=#46495D;" parent="1" vertex="1">
          <mxGeometry x="-330" y="830.25" width="50" height="28.499999999999996" as="geometry" />
        </mxCell>
        <mxCell id="JlcOlSUOv72aKDt4cfFE-52" style="edgeStyle=orthogonalEdgeStyle;rounded=0;orthogonalLoop=1;jettySize=auto;html=1;entryX=1.013;entryY=0.5;entryDx=0;entryDy=0;entryPerimeter=0;strokeColor=#788AA3;fontColor=#46495D;fillColor=#B2C9AB;" parent="1" target="JlcOlSUOv72aKDt4cfFE-48" edge="1">
          <mxGeometry relative="1" as="geometry">
            <mxPoint x="50" y="780" as="sourcePoint" />
            <Array as="points">
              <mxPoint x="-256" y="780" />
              <mxPoint x="-256" y="845" />
            </Array>
          </mxGeometry>
        </mxCell>
        <mxCell id="JlcOlSUOv72aKDt4cfFE-57" style="edgeStyle=orthogonalEdgeStyle;rounded=0;orthogonalLoop=1;jettySize=auto;html=1;strokeColor=#788AA3;fontColor=#46495D;fillColor=#B2C9AB;" parent="1" source="JlcOlSUOv72aKDt4cfFE-55" target="JlcOlSUOv72aKDt4cfFE-33" edge="1">
          <mxGeometry relative="1" as="geometry" />
        </mxCell>
        <mxCell id="JlcOlSUOv72aKDt4cfFE-55" value="" style="shape=image;verticalLabelPosition=bottom;labelBackgroundColor=#ffffff;verticalAlign=top;aspect=fixed;imageAspect=0;image=data:image/svg+xml,PHN2ZyB4bWxuczpjYz0iaHR0cDovL2NyZWF0aXZlY29tbW9ucy5vcmcvbnMjIiB4bWxuczpkYz0iaHR0cDovL3B1cmwub3JnL2RjL2VsZW1lbnRzLzEuMS8iIHhtbG5zOmlua3NjYXBlPSJodHRwOi8vd3d3Lmlua3NjYXBlLm9yZy9uYW1lc3BhY2VzL2lua3NjYXBlIiB4bWxuczpyZGY9Imh0dHA6Ly93d3cudzMub3JnLzE5OTkvMDIvMjItcmRmLXN5bnRheC1ucyMiIHhtbG5zOnNvZGlwb2RpPSJodHRwOi8vc29kaXBvZGkuc291cmNlZm9yZ2UubmV0L0RURC9zb2RpcG9kaS0wLmR0ZCIgeG1sbnM6c3ZnPSJodHRwOi8vd3d3LnczLm9yZy8yMDAwL3N2ZyIgeG1sbnM9Imh0dHA6Ly93d3cudzMub3JnLzIwMDAvc3ZnIiB4bWxuczp4bGluaz0iaHR0cDovL3d3dy53My5vcmcvMTk5OS94bGluayIgdmVyc2lvbj0iMS4xIiBpZD0ic3ZnODI3MTgiIGlua3NjYXBlOnZlcnNpb249IjAuOTIuMyAoMjQwNTU0NiwgMjAxOC0wMy0xMSkiIHNvZGlwb2RpOmRvY25hbWU9ImRvd25sb2FkXzEuc3ZnIiB4PSIwcHgiIHk9IjBweCIgdmlld0JveD0iMCAwIDQ5LjUyIDQ4Ljc3IiBzdHlsZT0iZW5hYmxlLWJhY2tncm91bmQ6bmV3IDAgMCA0OS41MiA0OC43NzsiIHhtbDpzcGFjZT0icHJlc2VydmUiPiYjeGE7PHNvZGlwb2RpOm5hbWVkdmlldyBib3JkZXJjb2xvcj0iIzY2NjY2NiIgYm9yZGVyb3BhY2l0eT0iMSIgZml0LW1hcmdpbi1ib3R0b209IjAiIGZpdC1tYXJnaW4tbGVmdD0iMCIgZml0LW1hcmdpbi1yaWdodD0iMCIgZml0LW1hcmdpbi10b3A9IjAiIGdyaWR0b2xlcmFuY2U9IjEwIiBndWlkZXRvbGVyYW5jZT0iMTAiIGlkPSJuYW1lZHZpZXc4MjcyMCIgaW5rc2NhcGU6Y3VycmVudC1sYXllcj0ic3ZnODI3MTgiIGlua3NjYXBlOmN4PSIzMy4wMTMzNzgiIGlua3NjYXBlOmN5PSIzMi41MDA4NyIgaW5rc2NhcGU6cGFnZW9wYWNpdHk9IjAiIGlua3NjYXBlOnBhZ2VzaGFkb3c9IjIiIGlua3NjYXBlOndpbmRvdy1oZWlnaHQ9IjEwMTciIGlua3NjYXBlOndpbmRvdy1tYXhpbWl6ZWQ9IjEiIGlua3NjYXBlOndpbmRvdy13aWR0aD0iMTkyMCIgaW5rc2NhcGU6d2luZG93LXg9Ii04IiBpbmtzY2FwZTp3aW5kb3cteT0iLTgiIGlua3NjYXBlOnpvb209IjEzLjMzODgwMiIgb2JqZWN0dG9sZXJhbmNlPSIxMCIgcGFnZWNvbG9yPSIjZmZmZmZmIiBzaG93Z3JpZD0iZmFsc2UiPiYjeGE7CTwvc29kaXBvZGk6bmFtZWR2aWV3PiYjeGE7PGcgaWQ9Imc4MjcxNiIgdHJhbnNmb3JtPSJ0cmFuc2xhdGUoMC4wMTA2ODE4NywwLjAxNTE4MTg3KSI+JiN4YTsJPHRpdGxlIGlkPSJ0aXRsZTgyNjg3Ij5QYWdlLTE8L3RpdGxlPiYjeGE7CTxnIGlkPSJncm91cDUzNTktMSIgdHJhbnNmb3JtPSJ0cmFuc2xhdGUoMC43NSwtMC43NSkiPiYjeGE7CQk8dGl0bGUgaWQ9InRpdGxlODI2ODkiPkRvd25sb2FkICMxPC90aXRsZT4mI3hhOwkJPGcgaWQ9Imdyb3VwNTM2MC0yIj4mI3hhOwkJCTx0aXRsZSBpZD0idGl0bGU4MjY5MSI+U2hlZXQuNTM2MDwvdGl0bGU+JiN4YTsJCQk8ZyBpZD0ic2hhcGU1MzYxLTMiPiYjeGE7CQkJCTx0aXRsZSBpZD0idGl0bGU4MjY5MyI+U2hlZXQuNTM2MTwvdGl0bGU+JiN4YTsJCQkJPHBhdGggaWQ9InBhdGg4MjY5NSIgaW5rc2NhcGU6Y29ubmVjdG9yLWN1cnZhdHVyZT0iMCIgc3R5bGU9ImZpbGw6bm9uZTsiIGQ9Ik0yOC41LDE2Ljc1SDM4bDEwLDE2djE2SDB2LTE2bDEwLTE2aDkuNUgyOC41eiIvPiYjeGE7CQkJCSYjeGE7CQkJCQk8cGF0aCBpZD0icGF0aDgyNjk3IiBpbmtzY2FwZTpjb25uZWN0b3ItY3VydmF0dXJlPSIwIiBzdHlsZT0iZmlsbDpub25lO3N0cm9rZTojQTFBRkJBO3N0cm9rZS13aWR0aDoxLjU7c3Ryb2tlLWxpbmVjYXA6cm91bmQ7c3Ryb2tlLWxpbmVqb2luOnJvdW5kO3N0cm9rZS1taXRlcmxpbWl0OjM7IiBkPSIgICAgICBNMjguNSwxNi43NUgzOGwxMCwxNnYxNkgwdi0xNmwxMC0xNmg5LjUiLz4mI3hhOwkJCTwvZz4mI3hhOwkJCTxnIGlkPSJzaGFwZTUzNjItNiIgdHJhbnNmb3JtPSJ0cmFuc2xhdGUoMCwtNy45OTk3OCkiPiYjeGE7CQkJCTx0aXRsZSBpZD0idGl0bGU4MjcwMCI+U2hlZXQuNTM2MjwvdGl0bGU+JiN4YTsJCQkJPHBhdGggaWQ9InBhdGg4MjcwMiIgaW5rc2NhcGU6Y29ubmVjdG9yLWN1cnZhdHVyZT0iMCIgc3R5bGU9ImZpbGw6bm9uZTsiIGQ9Ik0wLDQwLjc1aDE0djNjMCwyLjc2LDIuMjQsNSw1LDVjMCwwLDAsMCwwLDBoMTAgICAgICBjMi43NiwwLDUtMi4yNCw1LTVjMCwwLDAsMCwwLDB2LTNoMTRIMHoiLz4mI3hhOwkJCQkmI3hhOwkJCQkJPHBhdGggaWQ9InBhdGg4MjcwNCIgaW5rc2NhcGU6Y29ubmVjdG9yLWN1cnZhdHVyZT0iMCIgc3R5bGU9ImZpbGw6bm9uZTtzdHJva2U6I0ExQUZCQTtzdHJva2Utd2lkdGg6MS41O3N0cm9rZS1saW5lY2FwOnJvdW5kO3N0cm9rZS1saW5lam9pbjpyb3VuZDtzdHJva2UtbWl0ZXJsaW1pdDozOyIgZD0iICAgICAgTTAsNDAuNzVoMTR2M2MwLDIuNzYsMi4yNCw1LDUsNWMwLDAsMCwwLDAsMGgxMGMyLjc2LDAsNS0yLjI0LDUtNWMwLDAsMCwwLDAsMHYtM2gxNCIvPiYjeGE7CQkJPC9nPiYjeGE7CQkJPGcgaWQ9InNoYXBlNTM2My05IiB0cmFuc2Zvcm09InRyYW5zbGF0ZSgxNi40OTk2LC0xOC44NzQ1KSI+JiN4YTsJCQkJPHRpdGxlIGlkPSJ0aXRsZTgyNzA3Ij5TaGVldC41MzYzPC90aXRsZT4mI3hhOwkJCQk8cGF0aCBpZD0icGF0aDgyNzA5IiBpbmtzY2FwZTpjb25uZWN0b3ItY3VydmF0dXJlPSIwIiBzdHlsZT0iZmlsbDpub25lOyIgZD0iTTAsNDEuNzVsNy41LDdsNy41LTdIMHogTTcuNSwyMC4zN3YyOC4zOFYyMC4zN3oiLz4mI3hhOwkJCQkmI3hhOwkJCQkJPHBhdGggaWQ9InBhdGg4MjcxMSIgaW5rc2NhcGU6Y29ubmVjdG9yLWN1cnZhdHVyZT0iMCIgc3R5bGU9ImZpbGw6bm9uZTtzdHJva2U6I0FBRDczRjtzdHJva2Utd2lkdGg6MS41O3N0cm9rZS1saW5lY2FwOnJvdW5kO3N0cm9rZS1saW5lam9pbjpyb3VuZDtzdHJva2UtbWl0ZXJsaW1pdDozOyIgZD0iICAgICAgTTAsNDEuNzVsNy41LDdsNy41LTcgTTcuNSwyMC4zN3YyOC4zOCIvPiYjeGE7CQkJPC9nPiYjeGE7CQk8L2c+JiN4YTsJPC9nPiYjeGE7PC9nPiYjeGE7PC9zdmc+;strokeColor=#788AA3;fontColor=#46495D;fillColor=#B2C9AB;" parent="1" vertex="1">
          <mxGeometry x="-429.99999999999994" y="973" width="50" height="49" as="geometry" />
        </mxCell>
        <mxCell id="JlcOlSUOv72aKDt4cfFE-59" value="&lt;span style=&quot;font-size: 20px;&quot;&gt;&lt;b&gt;LOGIBOP&lt;/b&gt;&lt;/span&gt;" style="text;html=1;align=center;verticalAlign=middle;resizable=0;points=[];autosize=1;strokeColor=none;fillColor=none;fontColor=#46495D;" parent="1" vertex="1">
          <mxGeometry x="150" y="676" width="120" height="40" as="geometry" />
        </mxCell>
        <mxCell id="JlcOlSUOv72aKDt4cfFE-65" style="edgeStyle=orthogonalEdgeStyle;rounded=0;orthogonalLoop=1;jettySize=auto;html=1;strokeColor=#788AA3;fontColor=#46495D;fillColor=#B2C9AB;" parent="1" source="JlcOlSUOv72aKDt4cfFE-60" target="JlcOlSUOv72aKDt4cfFE-17" edge="1">
          <mxGeometry relative="1" as="geometry" />
        </mxCell>
        <mxCell id="JlcOlSUOv72aKDt4cfFE-60" value="&lt;span style=&quot;font-size: 20px;&quot;&gt;&lt;b&gt;LOGIBOP API&lt;/b&gt;&lt;/span&gt;" style="text;html=1;align=center;verticalAlign=middle;resizable=0;points=[];autosize=1;strokeColor=none;fillColor=none;fontColor=#46495D;" parent="1" vertex="1">
          <mxGeometry x="130" y="565" width="150" height="40" as="geometry" />
        </mxCell>
        <mxCell id="JlcOlSUOv72aKDt4cfFE-63" value="" style="endArrow=classic;startArrow=classic;html=1;rounded=0;strokeColor=#788AA3;fontColor=#46495D;fillColor=#B2C9AB;entryX=0.052;entryY=0.353;entryDx=0;entryDy=0;entryPerimeter=0;exitX=0.538;exitY=0.975;exitDx=0;exitDy=0;exitPerimeter=0;" parent="1" source="JlcOlSUOv72aKDt4cfFE-60" target="yIlqXNv4PA9Dnh1hxRCn-23" edge="1">
          <mxGeometry width="50" height="50" relative="1" as="geometry">
            <mxPoint x="250" y="650" as="sourcePoint" />
            <mxPoint x="300" y="600" as="targetPoint" />
          </mxGeometry>
        </mxCell>
        <mxCell id="JlcOlSUOv72aKDt4cfFE-64" value="" style="endArrow=classic;startArrow=classic;html=1;rounded=0;strokeColor=#788AA3;fontColor=#46495D;fillColor=#B2C9AB;" parent="1" source="JlcOlSUOv72aKDt4cfFE-59" edge="1">
          <mxGeometry width="50" height="50" relative="1" as="geometry">
            <mxPoint x="260" y="700" as="sourcePoint" />
            <mxPoint x="300" y="650" as="targetPoint" />
          </mxGeometry>
        </mxCell>
        <mxCell id="JlcOlSUOv72aKDt4cfFE-66" style="edgeStyle=orthogonalEdgeStyle;rounded=0;orthogonalLoop=1;jettySize=auto;html=1;entryX=-0.005;entryY=0.686;entryDx=0;entryDy=0;entryPerimeter=0;strokeColor=#788AA3;fontColor=#46495D;fillColor=#B2C9AB;" parent="1" source="JlcOlSUOv72aKDt4cfFE-60" target="yIlqXNv4PA9Dnh1hxRCn-39" edge="1">
          <mxGeometry relative="1" as="geometry">
            <Array as="points">
              <mxPoint x="371" y="590" />
              <mxPoint x="371" y="772" />
            </Array>
          </mxGeometry>
        </mxCell>
        <mxCell id="JlcOlSUOv72aKDt4cfFE-69" value="" style="endArrow=classic;startArrow=classic;html=1;rounded=0;strokeColor=#788AA3;fontColor=#46495D;fillColor=#B2C9AB;" parent="1" edge="1">
          <mxGeometry width="50" height="50" relative="1" as="geometry">
            <mxPoint x="282" y="787" as="sourcePoint" />
            <mxPoint x="462.5" y="787" as="targetPoint" />
          </mxGeometry>
        </mxCell>
        <mxCell id="JlcOlSUOv72aKDt4cfFE-71" style="edgeStyle=orthogonalEdgeStyle;rounded=0;orthogonalLoop=1;jettySize=auto;html=1;entryX=1;entryY=0.5;entryDx=0;entryDy=0;entryPerimeter=0;strokeColor=#788AA3;fontColor=#46495D;fillColor=#B2C9AB;exitX=0;exitY=0.75;exitDx=0;exitDy=0;" parent="1" source="JlcOlSUOv72aKDt4cfFE-14" target="JlcOlSUOv72aKDt4cfFE-49" edge="1">
          <mxGeometry relative="1" as="geometry">
            <Array as="points">
              <mxPoint x="-258" y="605" />
              <mxPoint x="-258" y="679" />
            </Array>
          </mxGeometry>
        </mxCell>
        <mxCell id="JlcOlSUOv72aKDt4cfFE-72" value="Virtual Private Network" style="aspect=fixed;html=1;perimeter=none;align=center;shadow=0;dashed=0;image;fontSize=12;image=img/lib/mscae/Virtual_Network.svg;labelBackgroundColor=none;fillColor=#B2C9AB;strokeColor=#788AA3;fontColor=#46495D;" parent="1" vertex="1">
          <mxGeometry x="-320" y="647" width="50" height="28.499999999999996" as="geometry" />
        </mxCell>
        <mxCell id="JlcOlSUOv72aKDt4cfFE-73" value="" style="rounded=1;whiteSpace=wrap;html=1;strokeColor=#788AA3;fontColor=#46495D;fillColor=#B2C9AB;" parent="1" vertex="1">
          <mxGeometry x="-880" y="570" width="312.22" height="190" as="geometry" />
        </mxCell>
        <mxCell id="oSTg5xwtnezDUg6IkT8Y-1" value="&lt;font style=&quot;font-size: 15px;&quot;&gt;Le module SFTP est déjà existant et&amp;nbsp;&lt;/font&gt;&lt;div style=&quot;font-size: 15px;&quot;&gt;&lt;font style=&quot;font-size: 15px;&quot;&gt;ne&amp;nbsp;&lt;span style=&quot;background-color: initial;&quot;&gt;nécessite aucune modification&amp;nbsp;&lt;/span&gt;&lt;/font&gt;&lt;/div&gt;&lt;div style=&quot;font-size: 15px;&quot;&gt;&lt;span style=&quot;background-color: initial;&quot;&gt;&lt;font style=&quot;font-size: 15px;&quot;&gt;supplémentaire&lt;/font&gt;&lt;/span&gt;&lt;/div&gt;" style="text;html=1;align=left;verticalAlign=middle;resizable=0;points=[];autosize=1;strokeColor=none;fillColor=none;fontColor=#46495D;" parent="1" vertex="1">
          <mxGeometry x="-1130" y="1171" width="270" height="70" as="geometry" />
        </mxCell>
        <mxCell id="oSTg5xwtnezDUg6IkT8Y-2" value="Le fichier est uploadé automatiquement par wraptor dans deux dossiers distincts du SFTP qui permettent un traitement automatisé par l&#39;application LOGIBOP" style="text;html=1;align=left;verticalAlign=top;spacingTop=-4;fontSize=14;labelBackgroundColor=none;whiteSpace=wrap;fontColor=#46495D;" parent="1" vertex="1">
          <mxGeometry x="-1485" y="981" width="290" height="90" as="geometry" />
        </mxCell>
        <mxCell id="oSTg5xwtnezDUg6IkT8Y-3" value="Les fichiers sont téléchargés dans l&#39;écosystème Microsoft Azure par les routine automatisées des CRON JOBS afin de pouvoir être traités et injectés dans la base de données." style="text;html=1;align=left;verticalAlign=top;spacingTop=-4;fontSize=14;labelBackgroundColor=none;whiteSpace=wrap;fontColor=#46495D;" parent="1" vertex="1">
          <mxGeometry x="-567.78" y="1030" width="368" height="90" as="geometry" />
        </mxCell>
        <mxCell id="oSTg5xwtnezDUg6IkT8Y-4" value="L&#39;upload des données depuis Optim se fait directement par un export des nouvelles lignes de la base de données dans le cadre d&#39;un VPN afin de maintenir l&#39;application LOGIBOP à jour. La connexion se fait en SSL" style="text;html=1;align=left;verticalAlign=top;spacingTop=-4;fontSize=14;labelBackgroundColor=none;whiteSpace=wrap;fontColor=#46495D;" parent="1" vertex="1">
          <mxGeometry x="-539.75" y="721" width="269.5" height="106.5" as="geometry" />
        </mxCell>
        <mxCell id="oSTg5xwtnezDUg6IkT8Y-7" value="WRAPTOR est déjà en place au sein du PSS et ne nécessite pas de modifications si ce n&#39;est le paramétrage des exports" style="text;html=1;align=left;verticalAlign=top;spacingTop=-4;fontSize=14;labelBackgroundColor=none;whiteSpace=wrap;fontColor=#46495D;" parent="1" vertex="1">
          <mxGeometry x="-1830" y="530" width="320" height="54.5" as="geometry" />
        </mxCell>
        <mxCell id="oSTg5xwtnezDUg6IkT8Y-9" value="&lt;span&gt;La base de données SQL sert au fonctionnement du backend de LOGIBOP qui sert les données aux utilisateurs.&lt;/span&gt;" style="text;html=1;align=left;verticalAlign=top;spacingTop=-4;fontSize=14;labelBackgroundColor=none;whiteSpace=wrap;fontColor=#46495D;" parent="1" vertex="1">
          <mxGeometry x="500" y="830.25" width="250" height="69.75" as="geometry" />
        </mxCell>
        <mxCell id="Q-r5WbzmVcZyMv6zKtho-17" value="" style="group" parent="1" vertex="1" connectable="0">
          <mxGeometry x="-1910" y="280" width="270" height="79" as="geometry" />
        </mxCell>
        <mxCell id="Q-r5WbzmVcZyMv6zKtho-3" value="" style="rounded=1;whiteSpace=wrap;html=1;fillColor=#99FF99;strokeColor=#82b366;" parent="Q-r5WbzmVcZyMv6zKtho-17" vertex="1">
          <mxGeometry width="115.71630757064872" height="34.100719424460436" as="geometry" />
        </mxCell>
        <mxCell id="Q-r5WbzmVcZyMv6zKtho-4" value="&lt;span style=&quot;font-size: 20px;&quot;&gt;Existant&lt;/span&gt;" style="text;html=1;align=left;verticalAlign=middle;resizable=0;points=[];autosize=1;strokeColor=none;fillColor=none;fontColor=#46495D;" parent="Q-r5WbzmVcZyMv6zKtho-17" vertex="1">
          <mxGeometry x="125.35461553668908" y="-2.9455693534344105" width="90" height="40" as="geometry" />
        </mxCell>
        <mxCell id="Q-r5WbzmVcZyMv6zKtho-5" value="" style="rounded=1;whiteSpace=wrap;html=1;fillColor=#FF6600;strokeColor=#82b366;" parent="Q-r5WbzmVcZyMv6zKtho-17" vertex="1">
          <mxGeometry y="44.89928057553958" width="115.71630757064872" height="34.100719424460436" as="geometry" />
        </mxCell>
        <mxCell id="Q-r5WbzmVcZyMv6zKtho-6" value="&lt;span style=&quot;font-size: 20px;&quot;&gt;Restant à faire&lt;/span&gt;" style="text;html=1;align=left;verticalAlign=middle;resizable=0;points=[];autosize=1;strokeColor=none;fillColor=none;fontColor=#46495D;" parent="Q-r5WbzmVcZyMv6zKtho-17" vertex="1">
          <mxGeometry x="125.35461553668908" y="41.95371122210516" width="150" height="40" as="geometry" />
        </mxCell>
        <mxCell id="Q-r5WbzmVcZyMv6zKtho-18" value="" style="group" parent="1" vertex="1" connectable="0">
          <mxGeometry x="-500" y="850.001719745223" width="117.58000000000004" height="40" as="geometry" />
        </mxCell>
        <mxCell id="Q-r5WbzmVcZyMv6zKtho-19" value="" style="rounded=1;whiteSpace=wrap;html=1;fillColor=#99FF99;strokeColor=#82b366;" parent="Q-r5WbzmVcZyMv6zKtho-18" vertex="1">
          <mxGeometry y="6.558280254776946" width="117.58" height="26.89" as="geometry" />
        </mxCell>
        <mxCell id="Q-r5WbzmVcZyMv6zKtho-20" value="&lt;span style=&quot;font-size: 20px;&quot;&gt;STATUS&lt;/span&gt;" style="text;html=1;align=center;verticalAlign=middle;resizable=0;points=[];autosize=1;strokeColor=none;fillColor=none;fontColor=#46495D;" parent="Q-r5WbzmVcZyMv6zKtho-18" vertex="1">
          <mxGeometry x="8.785107692307747" width="100" height="40" as="geometry" />
        </mxCell>
        <mxCell id="Q-r5WbzmVcZyMv6zKtho-21" value="" style="group" parent="1" vertex="1" connectable="0">
          <mxGeometry x="-480" y="640.001719745223" width="117.58000000000004" height="40" as="geometry" />
        </mxCell>
        <mxCell id="Q-r5WbzmVcZyMv6zKtho-22" value="" style="rounded=1;whiteSpace=wrap;html=1;fillColor=#99FF99;strokeColor=#82b366;" parent="Q-r5WbzmVcZyMv6zKtho-21" vertex="1">
          <mxGeometry y="6.558280254776946" width="117.58" height="26.89" as="geometry" />
        </mxCell>
        <mxCell id="Q-r5WbzmVcZyMv6zKtho-23" value="&lt;span style=&quot;font-size: 20px;&quot;&gt;STATUS&lt;/span&gt;" style="text;html=1;align=center;verticalAlign=middle;resizable=0;points=[];autosize=1;strokeColor=none;fillColor=none;fontColor=#46495D;" parent="Q-r5WbzmVcZyMv6zKtho-21" vertex="1">
          <mxGeometry x="8.785107692307747" width="100" height="40" as="geometry" />
        </mxCell>
        <mxCell id="Q-r5WbzmVcZyMv6zKtho-24" value="" style="group" parent="1" vertex="1" connectable="0">
          <mxGeometry x="-460" y="530.001719745223" width="117.58000000000004" height="40" as="geometry" />
        </mxCell>
        <mxCell id="Q-r5WbzmVcZyMv6zKtho-25" value="" style="rounded=1;whiteSpace=wrap;html=1;fillColor=#99FF99;strokeColor=#82b366;" parent="Q-r5WbzmVcZyMv6zKtho-24" vertex="1">
          <mxGeometry y="6.558280254776946" width="117.58" height="26.89" as="geometry" />
        </mxCell>
        <mxCell id="Q-r5WbzmVcZyMv6zKtho-26" value="&lt;span style=&quot;font-size: 20px;&quot;&gt;STATUS&lt;/span&gt;" style="text;html=1;align=center;verticalAlign=middle;resizable=0;points=[];autosize=1;strokeColor=none;fillColor=none;fontColor=#46495D;" parent="Q-r5WbzmVcZyMv6zKtho-24" vertex="1">
          <mxGeometry x="8.785107692307747" width="100" height="40" as="geometry" />
        </mxCell>
        <mxCell id="Q-r5WbzmVcZyMv6zKtho-27" value="" style="group" parent="1" vertex="1" connectable="0">
          <mxGeometry x="63" y="827.001719745223" width="117.58000000000004" height="40" as="geometry" />
        </mxCell>
        <mxCell id="Q-r5WbzmVcZyMv6zKtho-28" value="" style="rounded=1;whiteSpace=wrap;html=1;fillColor=#99FF99;strokeColor=#82b366;" parent="Q-r5WbzmVcZyMv6zKtho-27" vertex="1">
          <mxGeometry y="6.558280254776946" width="117.58" height="26.89" as="geometry" />
        </mxCell>
        <mxCell id="Q-r5WbzmVcZyMv6zKtho-29" value="&lt;span style=&quot;font-size: 20px;&quot;&gt;STATUS&lt;/span&gt;" style="text;html=1;align=center;verticalAlign=middle;resizable=0;points=[];autosize=1;strokeColor=none;fillColor=none;fontColor=#46495D;" parent="Q-r5WbzmVcZyMv6zKtho-27" vertex="1">
          <mxGeometry x="8.785107692307747" width="100" height="40" as="geometry" />
        </mxCell>
        <mxCell id="Q-r5WbzmVcZyMv6zKtho-30" value="" style="group" parent="1" vertex="1" connectable="0">
          <mxGeometry x="530" y="660.001719745223" width="117.58000000000004" height="40" as="geometry" />
        </mxCell>
        <mxCell id="Q-r5WbzmVcZyMv6zKtho-31" value="" style="rounded=1;whiteSpace=wrap;html=1;fillColor=#99FF99;strokeColor=#82b366;" parent="Q-r5WbzmVcZyMv6zKtho-30" vertex="1">
          <mxGeometry y="6.558280254776946" width="117.58" height="26.89" as="geometry" />
        </mxCell>
        <mxCell id="Q-r5WbzmVcZyMv6zKtho-32" value="&lt;span style=&quot;font-size: 20px;&quot;&gt;STATUS&lt;/span&gt;" style="text;html=1;align=center;verticalAlign=middle;resizable=0;points=[];autosize=1;strokeColor=none;fillColor=none;fontColor=#46495D;" parent="Q-r5WbzmVcZyMv6zKtho-30" vertex="1">
          <mxGeometry x="8.785107692307747" width="100" height="40" as="geometry" />
        </mxCell>
        <mxCell id="Q-r5WbzmVcZyMv6zKtho-33" value="" style="group" parent="1" vertex="1" connectable="0">
          <mxGeometry x="540" y="760.001719745223" width="117.58000000000004" height="40" as="geometry" />
        </mxCell>
        <mxCell id="Q-r5WbzmVcZyMv6zKtho-34" value="" style="rounded=1;whiteSpace=wrap;html=1;fillColor=#99FF99;strokeColor=#82b366;" parent="Q-r5WbzmVcZyMv6zKtho-33" vertex="1">
          <mxGeometry y="6.558280254776946" width="117.58" height="26.89" as="geometry" />
        </mxCell>
        <mxCell id="Q-r5WbzmVcZyMv6zKtho-35" value="&lt;span style=&quot;font-size: 20px;&quot;&gt;STATUS&lt;/span&gt;" style="text;html=1;align=center;verticalAlign=middle;resizable=0;points=[];autosize=1;strokeColor=none;fillColor=none;fontColor=#46495D;" parent="Q-r5WbzmVcZyMv6zKtho-33" vertex="1">
          <mxGeometry x="8.785107692307747" width="100" height="40" as="geometry" />
        </mxCell>
        <mxCell id="Q-r5WbzmVcZyMv6zKtho-36" value="" style="group" parent="1" vertex="1" connectable="0">
          <mxGeometry x="-470" y="1090.001719745223" width="117.58000000000004" height="40" as="geometry" />
        </mxCell>
        <mxCell id="Q-r5WbzmVcZyMv6zKtho-37" value="" style="rounded=1;whiteSpace=wrap;html=1;fillColor=#99FF99;strokeColor=#82b366;" parent="Q-r5WbzmVcZyMv6zKtho-36" vertex="1">
          <mxGeometry y="6.558280254776946" width="117.58" height="26.89" as="geometry" />
        </mxCell>
        <mxCell id="Q-r5WbzmVcZyMv6zKtho-38" value="&lt;span style=&quot;font-size: 20px;&quot;&gt;STATUS&lt;/span&gt;" style="text;html=1;align=center;verticalAlign=middle;resizable=0;points=[];autosize=1;strokeColor=none;fillColor=none;fontColor=#46495D;" parent="Q-r5WbzmVcZyMv6zKtho-36" vertex="1">
          <mxGeometry x="8.785107692307747" width="100" height="40" as="geometry" />
        </mxCell>
        <mxCell id="Q-r5WbzmVcZyMv6zKtho-39" value="" style="group" parent="1" vertex="1" connectable="0">
          <mxGeometry x="-1840" y="591.75" width="380" height="172.5" as="geometry" />
        </mxCell>
        <mxCell id="JlcOlSUOv72aKDt4cfFE-76" value="" style="rounded=1;whiteSpace=wrap;html=1;strokeColor=#788AA3;fontColor=#46495D;fillColor=#B2C9AB;" parent="Q-r5WbzmVcZyMv6zKtho-39" vertex="1">
          <mxGeometry width="380" height="172.5" as="geometry" />
        </mxCell>
        <mxCell id="JlcOlSUOv72aKDt4cfFE-74" value="TIMEWISE" style="rounded=1;whiteSpace=wrap;html=1;strokeColor=#d79b00;fillColor=#ffe6cc;" parent="Q-r5WbzmVcZyMv6zKtho-39" vertex="1">
          <mxGeometry x="30" y="103" width="120" height="60" as="geometry" />
        </mxCell>
        <mxCell id="JlcOlSUOv72aKDt4cfFE-75" value="SIGEMS" style="rounded=1;whiteSpace=wrap;html=1;strokeColor=#d79b00;fillColor=#ffe6cc;" parent="Q-r5WbzmVcZyMv6zKtho-39" vertex="1">
          <mxGeometry x="230" y="103" width="120" height="60" as="geometry" />
        </mxCell>
        <mxCell id="oSTg5xwtnezDUg6IkT8Y-6" value="&lt;span style=&quot;font-size: 20px;&quot;&gt;WRAPTOR&lt;/span&gt;" style="text;html=1;align=center;verticalAlign=middle;resizable=0;points=[];autosize=1;strokeColor=none;fillColor=none;fontColor=#46495D;" parent="Q-r5WbzmVcZyMv6zKtho-39" vertex="1">
          <mxGeometry x="125" y="49.75" width="130" height="40" as="geometry" />
        </mxCell>
        <mxCell id="Q-r5WbzmVcZyMv6zKtho-16" value="" style="group" parent="Q-r5WbzmVcZyMv6zKtho-39" vertex="1" connectable="0">
          <mxGeometry x="30" y="8.379999999999995" width="100" height="34.75" as="geometry" />
        </mxCell>
        <mxCell id="Q-r5WbzmVcZyMv6zKtho-12" value="" style="rounded=1;whiteSpace=wrap;html=1;fillColor=#FF6600;strokeColor=#82b366;" parent="Q-r5WbzmVcZyMv6zKtho-16" vertex="1">
          <mxGeometry y="2" width="100" height="32.75" as="geometry" />
        </mxCell>
        <mxCell id="Q-r5WbzmVcZyMv6zKtho-14" value="&lt;span style=&quot;font-family: Helvetica; font-size: 20px; font-style: normal; font-variant-ligatures: normal; font-variant-caps: normal; font-weight: 400; letter-spacing: normal; orphans: 2; text-align: center; text-indent: 0px; text-transform: none; widows: 2; word-spacing: 0px; -webkit-text-stroke-width: 0px; white-space: nowrap; text-decoration-thickness: initial; text-decoration-style: initial; text-decoration-color: initial; float: none; display: inline !important;&quot;&gt;&lt;font color=&quot;#ffffff&quot;&gt;STATUS&lt;/font&gt;&lt;/span&gt;" style="text;whiteSpace=wrap;html=1;" parent="Q-r5WbzmVcZyMv6zKtho-16" vertex="1">
          <mxGeometry x="10" width="90" height="33.5" as="geometry" />
        </mxCell>
        <mxCell id="Q-r5WbzmVcZyMv6zKtho-40" value="" style="group" parent="1" vertex="1" connectable="0">
          <mxGeometry x="-1390" y="540" width="510" height="206.5" as="geometry" />
        </mxCell>
        <mxCell id="JlcOlSUOv72aKDt4cfFE-22" value="" style="group" parent="Q-r5WbzmVcZyMv6zKtho-40" vertex="1" connectable="0">
          <mxGeometry width="100" height="110" as="geometry" />
        </mxCell>
        <mxCell id="yIlqXNv4PA9Dnh1hxRCn-51" value="" style="rounded=0;whiteSpace=wrap;html=1;fillColor=#d5e8d4;strokeColor=#82b366;labelBackgroundColor=none;" parent="JlcOlSUOv72aKDt4cfFE-22" vertex="1">
          <mxGeometry width="100" height="110" as="geometry" />
        </mxCell>
        <mxCell id="yIlqXNv4PA9Dnh1hxRCn-27" value="Users" style="aspect=fixed;html=1;perimeter=none;align=center;shadow=0;dashed=0;image;fontSize=12;image=img/lib/mscae/PersonWithFriend.svg;labelBackgroundColor=none;fillColor=#B2C9AB;strokeColor=#788AA3;fontColor=#46495D;" parent="JlcOlSUOv72aKDt4cfFE-22" vertex="1">
          <mxGeometry x="20" y="17.5" width="60.61" height="60" as="geometry" />
        </mxCell>
        <mxCell id="JlcOlSUOv72aKDt4cfFE-23" value="" style="group" parent="Q-r5WbzmVcZyMv6zKtho-40" vertex="1" connectable="0">
          <mxGeometry x="110" width="100" height="110" as="geometry" />
        </mxCell>
        <mxCell id="JlcOlSUOv72aKDt4cfFE-24" value="" style="rounded=0;whiteSpace=wrap;html=1;fillColor=#d5e8d4;strokeColor=#82b366;labelBackgroundColor=none;" parent="JlcOlSUOv72aKDt4cfFE-23" vertex="1">
          <mxGeometry width="100" height="110" as="geometry" />
        </mxCell>
        <mxCell id="JlcOlSUOv72aKDt4cfFE-25" value="Users" style="aspect=fixed;html=1;perimeter=none;align=center;shadow=0;dashed=0;image;fontSize=12;image=img/lib/mscae/PersonWithFriend.svg;labelBackgroundColor=none;fillColor=#B2C9AB;strokeColor=#788AA3;fontColor=#46495D;" parent="JlcOlSUOv72aKDt4cfFE-23" vertex="1">
          <mxGeometry x="20" y="17.5" width="60.61" height="60" as="geometry" />
        </mxCell>
        <mxCell id="JlcOlSUOv72aKDt4cfFE-26" value="" style="group" parent="Q-r5WbzmVcZyMv6zKtho-40" vertex="1" connectable="0">
          <mxGeometry x="220" width="100" height="110" as="geometry" />
        </mxCell>
        <mxCell id="JlcOlSUOv72aKDt4cfFE-27" value="" style="rounded=0;whiteSpace=wrap;html=1;fillColor=#d5e8d4;strokeColor=#82b366;labelBackgroundColor=none;" parent="JlcOlSUOv72aKDt4cfFE-26" vertex="1">
          <mxGeometry width="100" height="110" as="geometry" />
        </mxCell>
        <mxCell id="JlcOlSUOv72aKDt4cfFE-28" value="Users" style="aspect=fixed;html=1;perimeter=none;align=center;shadow=0;dashed=0;image;fontSize=12;image=img/lib/mscae/PersonWithFriend.svg;labelBackgroundColor=none;fillColor=#B2C9AB;strokeColor=#788AA3;fontColor=#46495D;" parent="JlcOlSUOv72aKDt4cfFE-26" vertex="1">
          <mxGeometry x="20" y="17.5" width="60.61" height="60" as="geometry" />
        </mxCell>
        <mxCell id="oSTg5xwtnezDUg6IkT8Y-10" style="edgeStyle=orthogonalEdgeStyle;rounded=0;orthogonalLoop=1;jettySize=auto;html=1;entryX=0.75;entryY=1;entryDx=0;entryDy=0;" parent="Q-r5WbzmVcZyMv6zKtho-40" source="JlcOlSUOv72aKDt4cfFE-73" target="JlcOlSUOv72aKDt4cfFE-27" edge="1">
          <mxGeometry relative="1" as="geometry">
            <Array as="points">
              <mxPoint x="295" y="190" />
            </Array>
          </mxGeometry>
        </mxCell>
        <mxCell id="oSTg5xwtnezDUg6IkT8Y-5" value="Les utilisateurs utilisent l&#39;application pour référencer les articles, les lieux de stockage et récupérer les compositions nécessaire à la préparation des interventions par le biais de PDA" style="text;html=1;align=left;verticalAlign=top;spacingTop=-4;fontSize=14;labelBackgroundColor=none;whiteSpace=wrap;fontColor=#46495D;" parent="Q-r5WbzmVcZyMv6zKtho-40" vertex="1">
          <mxGeometry y="116.5" width="280" height="90" as="geometry" />
        </mxCell>
        <mxCell id="oSTg5xwtnezDUg6IkT8Y-8" value="L&#39;accès à la base se fait par le biais d&#39;un rôle utilisateur dont les droits sont limités sur la base de données" style="text;html=1;align=left;verticalAlign=top;spacingTop=-4;fontSize=14;labelBackgroundColor=none;whiteSpace=wrap;fontColor=#46495D;" parent="Q-r5WbzmVcZyMv6zKtho-40" vertex="1">
          <mxGeometry x="330" width="150" height="79.5" as="geometry" />
        </mxCell>
        <mxCell id="JlcOlSUOv72aKDt4cfFE-49" value="" style="sketch=0;aspect=fixed;pointerEvents=1;shadow=0;dashed=0;html=1;strokeColor=none;labelPosition=center;verticalLabelPosition=bottom;verticalAlign=top;align=center;fillColor=#00188D;shape=mxgraph.azure.computer;fontColor=#46495D;" parent="1" vertex="1">
          <mxGeometry x="-695" y="624.75" width="84.44" height="76" as="geometry" />
        </mxCell>
        <mxCell id="JlcOlSUOv72aKDt4cfFE-50" value="&lt;span style=&quot;font-size: 20px;&quot;&gt;&lt;b&gt;LOGIBOP PC&lt;/b&gt;&lt;/span&gt;" style="text;html=1;align=center;verticalAlign=middle;resizable=0;points=[];autosize=1;strokeColor=none;fillColor=none;fontColor=#46495D;" parent="1" vertex="1">
          <mxGeometry x="-727.78" y="716" width="150" height="40" as="geometry" />
        </mxCell>
        <mxCell id="Q-r5WbzmVcZyMv6zKtho-41" value="" style="sketch=0;aspect=fixed;pointerEvents=1;shadow=0;dashed=0;html=1;strokeColor=none;labelPosition=center;verticalLabelPosition=bottom;verticalAlign=top;align=center;fillColor=#00188D;shape=mxgraph.azure.computer;fontColor=#46495D;" parent="1" vertex="1">
          <mxGeometry x="-837.22" y="626" width="84.44" height="76" as="geometry" />
        </mxCell>
        <mxCell id="Q-r5WbzmVcZyMv6zKtho-42" value="&lt;b style=&quot;font-size: 20px;&quot;&gt;OPTIM&lt;/b&gt;" style="text;html=1;align=center;verticalAlign=middle;resizable=0;points=[];autosize=1;strokeColor=none;fillColor=none;fontColor=#46495D;" parent="1" vertex="1">
          <mxGeometry x="-840" y="718" width="90" height="40" as="geometry" />
        </mxCell>
        <mxCell id="Q-r5WbzmVcZyMv6zKtho-43" value="" style="group" parent="1" vertex="1" connectable="0">
          <mxGeometry x="-702" y="580.001719745223" width="117.58000000000004" height="40" as="geometry" />
        </mxCell>
        <mxCell id="Q-r5WbzmVcZyMv6zKtho-44" value="" style="rounded=1;whiteSpace=wrap;html=1;fillColor=#99FF99;strokeColor=#82b366;" parent="Q-r5WbzmVcZyMv6zKtho-43" vertex="1">
          <mxGeometry y="6.558280254776946" width="117.58" height="26.89" as="geometry" />
        </mxCell>
        <mxCell id="Q-r5WbzmVcZyMv6zKtho-45" value="&lt;span style=&quot;font-size: 20px;&quot;&gt;STATUS&lt;/span&gt;" style="text;html=1;align=center;verticalAlign=middle;resizable=0;points=[];autosize=1;strokeColor=none;fillColor=none;fontColor=#46495D;" parent="Q-r5WbzmVcZyMv6zKtho-43" vertex="1">
          <mxGeometry x="8.785107692307747" width="100" height="40" as="geometry" />
        </mxCell>
        <mxCell id="Q-r5WbzmVcZyMv6zKtho-46" value="&lt;span style=&quot;font-size: 20px;&quot;&gt;&lt;b&gt;RDS&lt;/b&gt;&lt;/span&gt;" style="text;html=1;align=center;verticalAlign=middle;resizable=0;points=[];autosize=1;strokeColor=none;fillColor=none;fontColor=#46495D;" parent="1" vertex="1">
          <mxGeometry x="-860" y="579.9982802547771" width="70" height="40" as="geometry" />
        </mxCell>
        <mxCell id="Q-r5WbzmVcZyMv6zKtho-55" value="" style="image;html=1;image=img/lib/clip_art/networking/Wireless_Router_128x128.png" parent="1" vertex="1">
          <mxGeometry x="-1325" y="396" width="200" height="134" as="geometry" />
        </mxCell>
        <mxCell id="Q-r5WbzmVcZyMv6zKtho-58" value="" style="group" parent="1" vertex="1" connectable="0">
          <mxGeometry x="-1390" y="420" width="100" height="34.75" as="geometry" />
        </mxCell>
        <mxCell id="Q-r5WbzmVcZyMv6zKtho-59" value="" style="rounded=1;whiteSpace=wrap;html=1;fillColor=#FF6600;strokeColor=#82b366;" parent="Q-r5WbzmVcZyMv6zKtho-58" vertex="1">
          <mxGeometry y="2" width="100" height="32.75" as="geometry" />
        </mxCell>
        <mxCell id="Q-r5WbzmVcZyMv6zKtho-60" value="&lt;span style=&quot;font-family: Helvetica; font-size: 20px; font-style: normal; font-variant-ligatures: normal; font-variant-caps: normal; font-weight: 400; letter-spacing: normal; orphans: 2; text-align: center; text-indent: 0px; text-transform: none; widows: 2; word-spacing: 0px; -webkit-text-stroke-width: 0px; white-space: nowrap; text-decoration-thickness: initial; text-decoration-style: initial; text-decoration-color: initial; float: none; display: inline !important;&quot;&gt;&lt;font color=&quot;#ffffff&quot;&gt;STATUS&lt;/font&gt;&lt;/span&gt;" style="text;whiteSpace=wrap;html=1;" parent="Q-r5WbzmVcZyMv6zKtho-58" vertex="1">
          <mxGeometry x="10" width="90" height="33.5" as="geometry" />
        </mxCell>
        <mxCell id="Q-r5WbzmVcZyMv6zKtho-61" value="&lt;b style=&quot;font-size: 20px;&quot;&gt;WIFI ARSENAL&lt;/b&gt;" style="text;html=1;align=center;verticalAlign=middle;resizable=0;points=[];autosize=1;strokeColor=none;fillColor=none;fontColor=#46495D;" parent="1" vertex="1">
          <mxGeometry x="-1200" y="417.37" width="170" height="40" as="geometry" />
        </mxCell>
        <mxCell id="Q-r5WbzmVcZyMv6zKtho-62" value="" style="shape=flexArrow;endArrow=classic;startArrow=classic;html=1;rounded=0;exitX=0.559;exitY=0.009;exitDx=0;exitDy=0;exitPerimeter=0;" parent="1" source="Q-r5WbzmVcZyMv6zKtho-55" target="Q-r5WbzmVcZyMv6zKtho-52" edge="1">
          <mxGeometry width="100" height="100" relative="1" as="geometry">
            <mxPoint x="-1210" y="390" as="sourcePoint" />
            <mxPoint x="-810" y="140" as="targetPoint" />
          </mxGeometry>
        </mxCell>
        <mxCell id="Q-r5WbzmVcZyMv6zKtho-66" value="" style="shape=flexArrow;endArrow=classic;startArrow=classic;html=1;rounded=0;exitX=1;exitY=0.75;exitDx=0;exitDy=0;entryX=0.303;entryY=-0.047;entryDx=0;entryDy=0;entryPerimeter=0;" parent="1" source="Q-r5WbzmVcZyMv6zKtho-52" target="JlcOlSUOv72aKDt4cfFE-29" edge="1">
          <mxGeometry width="100" height="100" relative="1" as="geometry">
            <mxPoint x="10" y="220" as="sourcePoint" />
            <mxPoint x="-50" y="360" as="targetPoint" />
          </mxGeometry>
        </mxCell>
        <mxCell id="Q-r5WbzmVcZyMv6zKtho-67" value="" style="group" parent="1" vertex="1" connectable="0">
          <mxGeometry x="-1020.0000000000002" y="150" width="500" height="300" as="geometry" />
        </mxCell>
        <mxCell id="Q-r5WbzmVcZyMv6zKtho-52" value="" style="rounded=0;whiteSpace=wrap;html=1;fillColor=#fff2cc;strokeColor=#d6b656;labelBackgroundColor=none;" parent="Q-r5WbzmVcZyMv6zKtho-67" vertex="1">
          <mxGeometry width="500" height="300" as="geometry" />
        </mxCell>
        <mxCell id="Q-r5WbzmVcZyMv6zKtho-51" value="" style="group" parent="Q-r5WbzmVcZyMv6zKtho-67" vertex="1" connectable="0">
          <mxGeometry x="60" y="70" width="368.02000000000004" height="181" as="geometry" />
        </mxCell>
        <mxCell id="Q-r5WbzmVcZyMv6zKtho-7" value="" style="verticalLabelPosition=bottom;sketch=0;aspect=fixed;html=1;verticalAlign=top;strokeColor=none;align=center;outlineConnect=0;shape=mxgraph.citrix.pda;" parent="Q-r5WbzmVcZyMv6zKtho-51" vertex="1">
          <mxGeometry x="92.58000000000004" width="89.02" height="181" as="geometry" />
        </mxCell>
        <mxCell id="Q-r5WbzmVcZyMv6zKtho-48" value="" style="verticalLabelPosition=bottom;sketch=0;aspect=fixed;html=1;verticalAlign=top;strokeColor=none;align=center;outlineConnect=0;shape=mxgraph.citrix.pda;" parent="Q-r5WbzmVcZyMv6zKtho-51" vertex="1">
          <mxGeometry width="89.02" height="181" as="geometry" />
        </mxCell>
        <mxCell id="Q-r5WbzmVcZyMv6zKtho-49" value="" style="verticalLabelPosition=bottom;sketch=0;aspect=fixed;html=1;verticalAlign=top;strokeColor=none;align=center;outlineConnect=0;shape=mxgraph.citrix.pda;" parent="Q-r5WbzmVcZyMv6zKtho-51" vertex="1">
          <mxGeometry x="279" width="89.02" height="181" as="geometry" />
        </mxCell>
        <mxCell id="Q-r5WbzmVcZyMv6zKtho-50" value="" style="verticalLabelPosition=bottom;sketch=0;aspect=fixed;html=1;verticalAlign=top;strokeColor=none;align=center;outlineConnect=0;shape=mxgraph.citrix.pda;" parent="Q-r5WbzmVcZyMv6zKtho-51" vertex="1">
          <mxGeometry x="185.75" width="89.02" height="181" as="geometry" />
        </mxCell>
        <mxCell id="Q-r5WbzmVcZyMv6zKtho-53" value="&lt;b style=&quot;font-size: 20px;&quot;&gt;LOGIBOP MOBILE PDA&lt;/b&gt;" style="text;html=1;align=center;verticalAlign=middle;resizable=0;points=[];autosize=1;strokeColor=none;fillColor=none;fontColor=#46495D;" parent="Q-r5WbzmVcZyMv6zKtho-67" vertex="1">
          <mxGeometry width="250" height="40" as="geometry" />
        </mxCell>
        <mxCell id="Q-r5WbzmVcZyMv6zKtho-63" value="" style="group" parent="Q-r5WbzmVcZyMv6zKtho-67" vertex="1" connectable="0">
          <mxGeometry x="376" y="0.001719745222999336" width="117.58000000000004" height="40" as="geometry" />
        </mxCell>
        <mxCell id="Q-r5WbzmVcZyMv6zKtho-64" value="" style="rounded=1;whiteSpace=wrap;html=1;fillColor=#99FF99;strokeColor=#82b366;" parent="Q-r5WbzmVcZyMv6zKtho-63" vertex="1">
          <mxGeometry y="6.558280254776946" width="117.58" height="26.89" as="geometry" />
        </mxCell>
        <mxCell id="Q-r5WbzmVcZyMv6zKtho-65" value="&lt;span style=&quot;font-size: 20px;&quot;&gt;STATUS&lt;/span&gt;" style="text;html=1;align=center;verticalAlign=middle;resizable=0;points=[];autosize=1;strokeColor=none;fillColor=none;fontColor=#46495D;" parent="Q-r5WbzmVcZyMv6zKtho-63" vertex="1">
          <mxGeometry x="8.785107692307747" width="100" height="40" as="geometry" />
        </mxCell>
      </root>
    </mxGraphModel>
  </diagram>
</mxfile>
